<?xml version="1.0" encoding="UTF-8" standalone="no"?>
<!DOCTYPE svg PUBLIC "-//W3C//DTD SVG 1.1//EN"
 "http://www.w3.org/Graphics/SVG/1.1/DTD/svg11.dtd">
<!-- Generated by graphviz version 2.40.1 (20161225.0304)
 -->
<!-- Title: dependencies Pages: 1 -->
<svg width="814pt" height="284pt"
 viewBox="0.00 0.00 814.00 284.00" xmlns="http://www.w3.org/2000/svg" xmlns:xlink="http://www.w3.org/1999/xlink">
<g id="graph0" class="graph" transform="scale(1 1) rotate(0) translate(4 280)">
<title>dependencies</title>
<polygon fill="#ffffff" stroke="transparent" points="-4,4 -4,-280 810,-280 810,4 -4,4"/>
<text text-anchor="start" x="382.0091" y="-42.4" font-family="sans-serif" font-weight="bold" font-size="14.00" fill="#000000">Legend</text>
<polygon fill="#ffffb3" stroke="transparent" points="169,-10 169,-30 189,-30 189,-10 169,-10"/>
<text text-anchor="start" x="192.629" y="-15.4" font-family="sans-serif" font-size="14.00" fill="#000000"> &#160;Declarations</text>
<polygon fill="#8dd3c7" stroke="transparent" points="282,-10 282,-30 302,-30 302,-10 282,-10"/>
<text text-anchor="start" x="305.7251" y="-15.4" font-family="sans-serif" font-size="14.00" fill="#000000"> &#160;Module</text>
<polygon fill="#80b1d3" stroke="transparent" points="368,-10 368,-30 388,-30 388,-10 368,-10"/>
<text text-anchor="start" x="391.7812" y="-15.4" font-family="sans-serif" font-size="14.00" fill="#000000"> &#160;Bootstrap</text>
<polygon fill="#fdb462" stroke="transparent" points="465,-10 465,-30 485,-30 485,-10 465,-10"/>
<text text-anchor="start" x="488.6732" y="-15.4" font-family="sans-serif" font-size="14.00" fill="#000000"> &#160;Providers</text>
<polygon fill="#fb8072" stroke="transparent" points="561,-10 561,-30 581,-30 581,-10 561,-10"/>
<text text-anchor="start" x="584.7258" y="-15.4" font-family="sans-serif" font-size="14.00" fill="#000000"> &#160;Exports</text>
<g id="clust1" class="cluster">
<title>cluster_FuseAngularMaterialModule</title>
<polygon fill="none" stroke="#000000" stroke-dasharray="1,5" points="8,-70 8,-268 798,-268 798,-70 8,-70"/>
</g>
<g id="clust2" class="cluster">
<title>cluster_FuseAngularMaterialModule_declarations</title>
<polygon fill="none" stroke="#000000" points="284,-78 284,-130 790,-130 790,-78 284,-78"/>
</g>
<g id="clust6" class="cluster">
<title>cluster_FuseAngularMaterialModule_imports</title>
<polygon fill="none" stroke="#000000" points="16,-78 16,-130 276,-130 276,-78 16,-78"/>
</g>
<g id="clust7" class="cluster">
<title>cluster_FuseAngularMaterialModule_exports</title>
<polygon fill="none" stroke="#000000" points="332,-208 332,-260 450,-260 450,-208 332,-208"/>
</g>
<!-- { &#160;} -->
<g id="node1" class="node">
<title>{ &#160;}</title>
<polygon fill="#ffffb3" stroke="#000000" points="782,-122 728,-122 728,-86 782,-86 782,-122"/>
<text text-anchor="middle" x="755" y="-99.8" font-family="Times,serif" font-size="14.00" fill="#000000">{ &#160;}</text>
</g>
<!-- FuseAngularMaterialModule -->
<g id="node4" class="node">
<title>FuseAngularMaterialModule</title>
<polygon fill="#8dd3c7" stroke="#000000" points="480.785,-187 477.785,-191 456.785,-191 453.785,-187 301.215,-187 301.215,-151 480.785,-151 480.785,-187"/>
<text text-anchor="middle" x="391" y="-164.8" font-family="Times,serif" font-size="14.00" fill="#000000">FuseAngularMaterialModule</text>
</g>
<!-- { &#160;}&#45;&gt;FuseAngularMaterialModule -->
<g id="edge1" class="edge">
<title>{ &#160;}&#45;&gt;FuseAngularMaterialModule</title>
<path fill="none" stroke="#000000" d="M755,-122.2843C755,-143.3211 755,-175 755,-175 755,-175 490.9776,-175 490.9776,-175"/>
<polygon fill="#000000" stroke="#000000" points="490.9776,-171.5001 480.9776,-175 490.9775,-178.5001 490.9776,-171.5001"/>
</g>
<!-- FuseAngularMaterialComponent -->
<g id="node2" class="node">
<title>FuseAngularMaterialComponent</title>
<polygon fill="#ffffb3" stroke="#000000" points="709.5674,-122 508.4326,-122 508.4326,-86 709.5674,-86 709.5674,-122"/>
<text text-anchor="middle" x="609" y="-99.8" font-family="Times,serif" font-size="14.00" fill="#000000">FuseAngularMaterialComponent</text>
</g>
<!-- FuseAngularMaterialComponent&#45;&gt;FuseAngularMaterialModule -->
<g id="edge2" class="edge">
<title>FuseAngularMaterialComponent&#45;&gt;FuseAngularMaterialModule</title>
<path fill="none" stroke="#000000" d="M609,-122.0225C609,-139.3734 609,-163 609,-163 609,-163 490.9276,-163 490.9276,-163"/>
<polygon fill="#000000" stroke="#000000" points="490.9276,-159.5001 480.9276,-163 490.9275,-166.5001 490.9276,-159.5001"/>
</g>
<!-- FuseExampleViewerComponent -->
<g id="node3" class="node">
<title>FuseExampleViewerComponent</title>
<polygon fill="#ffffb3" stroke="#000000" points="490.231,-122 291.769,-122 291.769,-86 490.231,-86 490.231,-122"/>
<text text-anchor="middle" x="391" y="-99.8" font-family="Times,serif" font-size="14.00" fill="#000000">FuseExampleViewerComponent</text>
</g>
<!-- FuseExampleViewerComponent&#45;&gt;FuseAngularMaterialModule -->
<g id="edge3" class="edge">
<title>FuseExampleViewerComponent&#45;&gt;FuseAngularMaterialModule</title>
<path fill="none" stroke="#000000" d="M391,-122.1061C391,-122.1061 391,-140.991 391,-140.991"/>
<polygon fill="#000000" stroke="#000000" points="387.5001,-140.9909 391,-150.991 394.5001,-140.991 387.5001,-140.9909"/>
</g>
<!-- SharedModule  -->
<g id="node7" class="node">
<title>SharedModule </title>
<polygon fill="#fb8072" stroke="#000000" points="441.9222,-252 340.0778,-252 340.0778,-216 441.9222,-216 441.9222,-252"/>
<text text-anchor="middle" x="391" y="-229.8" font-family="Times,serif" font-size="14.00" fill="#000000">SharedModule </text>
</g>
<!-- FuseAngularMaterialModule&#45;&gt;SharedModule  -->
<g id="edge6" class="edge">
<title>FuseAngularMaterialModule&#45;&gt;SharedModule </title>
<path fill="none" stroke="#000000" stroke-dasharray="5,2" d="M391,-187.1061C391,-187.1061 391,-205.991 391,-205.991"/>
<polygon fill="#000000" stroke="#000000" points="387.5001,-205.9909 391,-215.991 394.5001,-205.991 387.5001,-205.9909"/>
</g>
<!-- SharedModule -->
<g id="node5" class="node">
<title>SharedModule</title>
<polygon fill="#8dd3c7" stroke="#000000" points="268.4231,-122 265.4231,-126 244.4231,-126 241.4231,-122 169.5769,-122 169.5769,-86 268.4231,-86 268.4231,-122"/>
<text text-anchor="middle" x="219" y="-99.8" font-family="Times,serif" font-size="14.00" fill="#000000">SharedModule</text>
</g>
<!-- SharedModule&#45;&gt;FuseAngularMaterialModule -->
<g id="edge4" class="edge">
<title>SharedModule&#45;&gt;FuseAngularMaterialModule</title>
<path fill="none" stroke="#000000" d="M219,-122.0225C219,-139.3734 219,-163 219,-163 219,-163 291.2218,-163 291.2218,-163"/>
<polygon fill="#000000" stroke="#000000" points="291.2218,-166.5001 301.2218,-163 291.2217,-159.5001 291.2218,-166.5001"/>
</g>
<!-- FuseWidgetModule -->
<g id="node6" class="node">
<title>FuseWidgetModule</title>
<polygon fill="#8dd3c7" stroke="#000000" points="151.7022,-122 148.7022,-126 127.7022,-126 124.7022,-122 24.2978,-122 24.2978,-86 151.7022,-86 151.7022,-122"/>
<text text-anchor="middle" x="88" y="-99.8" font-family="Times,serif" font-size="14.00" fill="#000000">FuseWidgetModule</text>
</g>
<!-- FuseWidgetModule&#45;&gt;FuseAngularMaterialModule -->
<g id="edge5" class="edge">
<title>FuseWidgetModule&#45;&gt;FuseAngularMaterialModule</title>
<path fill="none" stroke="#000000" d="M88,-122.2843C88,-143.3211 88,-175 88,-175 88,-175 291.3198,-175 291.3198,-175"/>
<polygon fill="#000000" stroke="#000000" points="291.3199,-178.5001 301.3198,-175 291.3198,-171.5001 291.3199,-178.5001"/>
</g>
</g>
</svg>
