<?xml version="1.0" encoding="UTF-8" standalone="no"?>
<!DOCTYPE svg PUBLIC "-//W3C//DTD SVG 1.1//EN"
 "http://www.w3.org/Graphics/SVG/1.1/DTD/svg11.dtd">
<!-- Generated by graphviz version 2.40.1 (20161225.0304)
 -->
<!-- Title: dependencies Pages: 1 -->
<svg width="810pt" height="284pt"
 viewBox="0.00 0.00 810.00 284.00" xmlns="http://www.w3.org/2000/svg" xmlns:xlink="http://www.w3.org/1999/xlink">
<g id="graph0" class="graph" transform="scale(1 1) rotate(0) translate(4 280)">
<title>dependencies</title>
<polygon fill="#ffffff" stroke="transparent" points="-4,4 -4,-280 806,-280 806,4 -4,4"/>
<text text-anchor="start" x="380.0091" y="-42.4" font-family="sans-serif" font-weight="bold" font-size="14.00" fill="#000000">Legend</text>
<polygon fill="#ffffb3" stroke="transparent" points="167,-10 167,-30 187,-30 187,-10 167,-10"/>
<text text-anchor="start" x="190.629" y="-15.4" font-family="sans-serif" font-size="14.00" fill="#000000"> &#160;Declarations</text>
<polygon fill="#8dd3c7" stroke="transparent" points="280,-10 280,-30 300,-30 300,-10 280,-10"/>
<text text-anchor="start" x="303.7251" y="-15.4" font-family="sans-serif" font-size="14.00" fill="#000000"> &#160;Module</text>
<polygon fill="#80b1d3" stroke="transparent" points="366,-10 366,-30 386,-30 386,-10 366,-10"/>
<text text-anchor="start" x="389.7812" y="-15.4" font-family="sans-serif" font-size="14.00" fill="#000000"> &#160;Bootstrap</text>
<polygon fill="#fdb462" stroke="transparent" points="463,-10 463,-30 483,-30 483,-10 463,-10"/>
<text text-anchor="start" x="486.6732" y="-15.4" font-family="sans-serif" font-size="14.00" fill="#000000"> &#160;Providers</text>
<polygon fill="#fb8072" stroke="transparent" points="559,-10 559,-30 579,-30 579,-10 559,-10"/>
<text text-anchor="start" x="582.7258" y="-15.4" font-family="sans-serif" font-size="14.00" fill="#000000"> &#160;Exports</text>
<g id="clust1" class="cluster">
<title>cluster_FusePipesModule</title>
<polygon fill="none" stroke="#000000" stroke-dasharray="1,5" points="8,-70 8,-268 794,-268 794,-70 8,-70"/>
</g>
<g id="clust2" class="cluster">
<title>cluster_FusePipesModule_declarations</title>
<polygon fill="none" stroke="#000000" points="30,-78 30,-130 777,-130 777,-78 30,-78"/>
</g>
<g id="clust10" class="cluster">
<title>cluster_FusePipesModule_exports</title>
<polygon fill="none" stroke="#000000" points="16,-208 16,-260 786,-260 786,-208 16,-208"/>
</g>
<!-- KeysPipe -->
<g id="node1" class="node">
<title>KeysPipe</title>
<polygon fill="#ffffb3" stroke="#000000" points="768.6545,-122 699.3455,-122 699.3455,-86 768.6545,-86 768.6545,-122"/>
<text text-anchor="middle" x="734" y="-99.8" font-family="Times,serif" font-size="14.00" fill="#000000">KeysPipe</text>
</g>
<!-- FusePipesModule -->
<g id="node7" class="node">
<title>FusePipesModule</title>
<polygon fill="#8dd3c7" stroke="#000000" points="448.3245,-187 445.3245,-191 424.3245,-191 421.3245,-187 331.6755,-187 331.6755,-151 448.3245,-151 448.3245,-187"/>
<text text-anchor="middle" x="390" y="-164.8" font-family="Times,serif" font-size="14.00" fill="#000000">FusePipesModule</text>
</g>
<!-- KeysPipe&#45;&gt;FusePipesModule -->
<g id="edge1" class="edge">
<title>KeysPipe&#45;&gt;FusePipesModule</title>
<path fill="none" stroke="#000000" d="M747.3589,-122.2667C747.3589,-140.5552 747.3589,-166 747.3589,-166 747.3589,-166 458.2112,-166 458.2112,-166"/>
<polygon fill="#000000" stroke="#000000" points="458.2113,-162.5001 448.2112,-166 458.2112,-169.5001 458.2113,-162.5001"/>
</g>
<!-- GetByIdPipe -->
<g id="node2" class="node">
<title>GetByIdPipe</title>
<polygon fill="#ffffb3" stroke="#000000" points="681.5969,-122 592.4031,-122 592.4031,-86 681.5969,-86 681.5969,-122"/>
<text text-anchor="middle" x="637" y="-99.8" font-family="Times,serif" font-size="14.00" fill="#000000">GetByIdPipe</text>
</g>
<!-- GetByIdPipe&#45;&gt;FusePipesModule -->
<g id="edge2" class="edge">
<title>GetByIdPipe&#45;&gt;FusePipesModule</title>
<path fill="none" stroke="#000000" d="M652.2661,-122.0091C652.2661,-138.0494 652.2661,-159 652.2661,-159 652.2661,-159 458.2054,-159 458.2054,-159"/>
<polygon fill="#000000" stroke="#000000" points="458.2054,-155.5001 448.2054,-159 458.2053,-162.5001 458.2054,-155.5001"/>
</g>
<!-- HtmlToPlaintextPipe -->
<g id="node3" class="node">
<title>HtmlToPlaintextPipe</title>
<polygon fill="#ffffb3" stroke="#000000" points="574.493,-122 439.507,-122 439.507,-86 574.493,-86 574.493,-122"/>
<text text-anchor="middle" x="507" y="-99.8" font-family="Times,serif" font-size="14.00" fill="#000000">HtmlToPlaintextPipe</text>
</g>
<!-- HtmlToPlaintextPipe&#45;&gt;FusePipesModule -->
<g id="edge3" class="edge">
<title>HtmlToPlaintextPipe&#45;&gt;FusePipesModule</title>
<path fill="none" stroke="#000000" d="M443.8328,-122.1061C443.8328,-122.1061 443.8328,-140.991 443.8328,-140.991"/>
<polygon fill="#000000" stroke="#000000" points="440.3328,-140.9909 443.8328,-150.991 447.3328,-140.991 440.3328,-140.9909"/>
</g>
<!-- FilterPipe -->
<g id="node4" class="node">
<title>FilterPipe</title>
<polygon fill="#ffffb3" stroke="#000000" points="421.7177,-122 350.2823,-122 350.2823,-86 421.7177,-86 421.7177,-122"/>
<text text-anchor="middle" x="386" y="-99.8" font-family="Times,serif" font-size="14.00" fill="#000000">FilterPipe</text>
</g>
<!-- FilterPipe&#45;&gt;FusePipesModule -->
<g id="edge4" class="edge">
<title>FilterPipe&#45;&gt;FusePipesModule</title>
<path fill="none" stroke="#000000" d="M386,-122.1061C386,-122.1061 386,-140.991 386,-140.991"/>
<polygon fill="#000000" stroke="#000000" points="382.5001,-140.9909 386,-150.991 389.5001,-140.991 382.5001,-140.9909"/>
</g>
<!-- CamelCaseToDashPipe -->
<g id="node5" class="node">
<title>CamelCaseToDashPipe</title>
<polygon fill="#ffffb3" stroke="#000000" points="332.4636,-122 183.5364,-122 183.5364,-86 332.4636,-86 332.4636,-122"/>
<text text-anchor="middle" x="258" y="-99.8" font-family="Times,serif" font-size="14.00" fill="#000000">CamelCaseToDashPipe</text>
</g>
<!-- CamelCaseToDashPipe&#45;&gt;FusePipesModule -->
<g id="edge5" class="edge">
<title>CamelCaseToDashPipe&#45;&gt;FusePipesModule</title>
<path fill="none" stroke="#000000" d="M332.5074,-104C337.994,-104 341.4366,-104 341.4366,-104 341.4366,-104 341.4366,-140.8939 341.4366,-140.8939"/>
<polygon fill="#000000" stroke="#000000" points="337.9366,-140.8938 341.4366,-150.8939 344.9366,-140.8939 337.9366,-140.8938"/>
</g>
<!-- HighlightFirstWord -->
<g id="node6" class="node">
<title>HighlightFirstWord</title>
<polygon fill="#ffffb3" stroke="#000000" points="165.7134,-122 38.2866,-122 38.2866,-86 165.7134,-86 165.7134,-122"/>
<text text-anchor="middle" x="102" y="-99.8" font-family="Times,serif" font-size="14.00" fill="#000000">HighlightFirstWord</text>
</g>
<!-- HighlightFirstWord&#45;&gt;FusePipesModule -->
<g id="edge6" class="edge">
<title>HighlightFirstWord&#45;&gt;FusePipesModule</title>
<path fill="none" stroke="#000000" d="M159.9816,-122.0225C159.9816,-139.3734 159.9816,-163 159.9816,-163 159.9816,-163 321.6593,-163 321.6593,-163"/>
<polygon fill="#000000" stroke="#000000" points="321.6593,-166.5001 331.6593,-163 321.6593,-159.5001 321.6593,-166.5001"/>
</g>
<!-- KeysPipe  -->
<g id="node8" class="node">
<title>KeysPipe </title>
<polygon fill="#fb8072" stroke="#000000" points="777.6538,-252 704.3462,-252 704.3462,-216 777.6538,-216 777.6538,-252"/>
<text text-anchor="middle" x="741" y="-229.8" font-family="Times,serif" font-size="14.00" fill="#000000">KeysPipe </text>
</g>
<!-- FusePipesModule&#45;&gt;KeysPipe  -->
<g id="edge7" class="edge">
<title>FusePipesModule&#45;&gt;KeysPipe </title>
<path fill="none" stroke="#000000" stroke-dasharray="5,2" d="M448.5078,-173C544.7428,-173 725.8911,-173 725.8911,-173 725.8911,-173 725.8911,-205.698 725.8911,-205.698"/>
<polygon fill="#000000" stroke="#000000" points="722.3912,-205.698 725.8911,-215.698 729.3912,-205.698 722.3912,-205.698"/>
</g>
<!-- GetByIdPipe  -->
<g id="node9" class="node">
<title>GetByIdPipe </title>
<polygon fill="#fb8072" stroke="#000000" points="686.0977,-252 593.9023,-252 593.9023,-216 686.0977,-216 686.0977,-252"/>
<text text-anchor="middle" x="640" y="-229.8" font-family="Times,serif" font-size="14.00" fill="#000000">GetByIdPipe </text>
</g>
<!-- FusePipesModule&#45;&gt;GetByIdPipe  -->
<g id="edge8" class="edge">
<title>FusePipesModule&#45;&gt;GetByIdPipe </title>
<path fill="none" stroke="#000000" stroke-dasharray="5,2" d="M448.1907,-180C517.1989,-180 622.9839,-180 622.9839,-180 622.9839,-180 622.9839,-205.7181 622.9839,-205.7181"/>
<polygon fill="#000000" stroke="#000000" points="619.484,-205.718 622.9839,-215.7181 626.484,-205.7181 619.484,-205.718"/>
</g>
<!-- HtmlToPlaintextPipe  -->
<g id="node10" class="node">
<title>HtmlToPlaintextPipe </title>
<polygon fill="#fb8072" stroke="#000000" points="575.4939,-252 436.5061,-252 436.5061,-216 575.4939,-216 575.4939,-252"/>
<text text-anchor="middle" x="506" y="-229.8" font-family="Times,serif" font-size="14.00" fill="#000000">HtmlToPlaintextPipe </text>
</g>
<!-- FusePipesModule&#45;&gt;HtmlToPlaintextPipe  -->
<g id="edge9" class="edge">
<title>FusePipesModule&#45;&gt;HtmlToPlaintextPipe </title>
<path fill="none" stroke="#000000" stroke-dasharray="5,2" d="M442.4578,-187.1061C442.4578,-187.1061 442.4578,-205.991 442.4578,-205.991"/>
<polygon fill="#000000" stroke="#000000" points="438.9578,-205.9909 442.4578,-215.991 445.9578,-205.991 438.9578,-205.9909"/>
</g>
<!-- FilterPipe  -->
<g id="node11" class="node">
<title>FilterPipe </title>
<polygon fill="#fb8072" stroke="#000000" points="418.2179,-252 343.7821,-252 343.7821,-216 418.2179,-216 418.2179,-252"/>
<text text-anchor="middle" x="381" y="-229.8" font-family="Times,serif" font-size="14.00" fill="#000000">FilterPipe </text>
</g>
<!-- FusePipesModule&#45;&gt;FilterPipe  -->
<g id="edge10" class="edge">
<title>FusePipesModule&#45;&gt;FilterPipe </title>
<path fill="none" stroke="#000000" stroke-dasharray="5,2" d="M381,-187.1061C381,-187.1061 381,-205.991 381,-205.991"/>
<polygon fill="#000000" stroke="#000000" points="377.5001,-205.9909 381,-215.991 384.5001,-205.991 377.5001,-205.9909"/>
</g>
<!-- CamelCaseToDashPipe  -->
<g id="node12" class="node">
<title>CamelCaseToDashPipe </title>
<polygon fill="#fb8072" stroke="#000000" points="325.4643,-252 172.5357,-252 172.5357,-216 325.4643,-216 325.4643,-252"/>
<text text-anchor="middle" x="249" y="-229.8" font-family="Times,serif" font-size="14.00" fill="#000000">CamelCaseToDashPipe </text>
</g>
<!-- FusePipesModule&#45;&gt;CamelCaseToDashPipe  -->
<g id="edge11" class="edge">
<title>FusePipesModule&#45;&gt;CamelCaseToDashPipe </title>
<path fill="none" stroke="#000000" stroke-dasharray="5,2" d="M337.7397,-187.1061C337.7397,-206.3391 337.7397,-234 337.7397,-234 337.7397,-234 335.4008,-234 335.4008,-234"/>
<polygon fill="#000000" stroke="#000000" points="335.4008,-230.5001 325.4008,-234 335.4007,-237.5001 335.4008,-230.5001"/>
</g>
<!-- HighlightFirstWord  -->
<g id="node13" class="node">
<title>HighlightFirstWord </title>
<polygon fill="#fb8072" stroke="#000000" points="154.2135,-252 23.7865,-252 23.7865,-216 154.2135,-216 154.2135,-252"/>
<text text-anchor="middle" x="89" y="-229.8" font-family="Times,serif" font-size="14.00" fill="#000000">HighlightFirstWord </text>
</g>
<!-- FusePipesModule&#45;&gt;HighlightFirstWord  -->
<g id="edge12" class="edge">
<title>FusePipesModule&#45;&gt;HighlightFirstWord </title>
<path fill="none" stroke="#000000" stroke-dasharray="5,2" d="M331.6381,-175C246.0082,-175 96.375,-175 96.375,-175 96.375,-175 96.375,-205.9775 96.375,-205.9775"/>
<polygon fill="#000000" stroke="#000000" points="92.8751,-205.9774 96.375,-215.9775 99.8751,-205.9775 92.8751,-205.9774"/>
</g>
</g>
</svg>
