<?xml version="1.0" encoding="UTF-8" standalone="no"?>
<!DOCTYPE svg PUBLIC "-//W3C//DTD SVG 1.1//EN"
 "http://www.w3.org/Graphics/SVG/1.1/DTD/svg11.dtd">
<!-- Generated by graphviz version 2.40.1 (20161225.0304)
 -->
<!-- Title: dependencies Pages: 1 -->
<svg width="504pt" height="211pt"
 viewBox="0.00 0.00 504.00 211.00" xmlns="http://www.w3.org/2000/svg" xmlns:xlink="http://www.w3.org/1999/xlink">
<g id="graph0" class="graph" transform="scale(1 1) rotate(0) translate(4 207)">
<title>dependencies</title>
<polygon fill="#ffffff" stroke="transparent" points="-4,4 -4,-207 500,-207 500,4 -4,4"/>
<text text-anchor="start" x="227.0091" y="-42.4" font-family="sans-serif" font-weight="bold" font-size="14.00" fill="#000000">Legend</text>
<polygon fill="#ffffb3" stroke="transparent" points="14,-10 14,-30 34,-30 34,-10 14,-10"/>
<text text-anchor="start" x="37.629" y="-15.4" font-family="sans-serif" font-size="14.00" fill="#000000"> &#160;Declarations</text>
<polygon fill="#8dd3c7" stroke="transparent" points="127,-10 127,-30 147,-30 147,-10 127,-10"/>
<text text-anchor="start" x="150.7251" y="-15.4" font-family="sans-serif" font-size="14.00" fill="#000000"> &#160;Module</text>
<polygon fill="#80b1d3" stroke="transparent" points="213,-10 213,-30 233,-30 233,-10 213,-10"/>
<text text-anchor="start" x="236.7812" y="-15.4" font-family="sans-serif" font-size="14.00" fill="#000000"> &#160;Bootstrap</text>
<polygon fill="#fdb462" stroke="transparent" points="310,-10 310,-30 330,-30 330,-10 310,-10"/>
<text text-anchor="start" x="333.6732" y="-15.4" font-family="sans-serif" font-size="14.00" fill="#000000"> &#160;Providers</text>
<polygon fill="#fb8072" stroke="transparent" points="406,-10 406,-30 426,-30 426,-10 406,-10"/>
<text text-anchor="start" x="429.7258" y="-15.4" font-family="sans-serif" font-size="14.00" fill="#000000"> &#160;Exports</text>
<g id="clust1" class="cluster">
<title>cluster_UIIconsModule</title>
<polygon fill="none" stroke="#000000" stroke-dasharray="1,5" points="102,-70 102,-195 394,-195 394,-70 102,-70"/>
</g>
<g id="clust2" class="cluster">
<title>cluster_UIIconsModule_declarations</title>
<polygon fill="none" stroke="#000000" points="232,-78 232,-130 386,-130 386,-78 232,-78"/>
</g>
<g id="clust4" class="cluster">
<title>cluster_UIIconsModule_imports</title>
<polygon fill="none" stroke="#000000" points="110,-78 110,-130 224,-130 224,-78 110,-78"/>
</g>
<!-- FuseIconsComponent -->
<g id="node1" class="node">
<title>FuseIconsComponent</title>
<polygon fill="#ffffb3" stroke="#000000" points="378.094,-122 239.906,-122 239.906,-86 378.094,-86 378.094,-122"/>
<text text-anchor="middle" x="309" y="-99.8" font-family="Times,serif" font-size="14.00" fill="#000000">FuseIconsComponent</text>
</g>
<!-- UIIconsModule -->
<g id="node2" class="node">
<title>UIIconsModule</title>
<polygon fill="#8dd3c7" stroke="#000000" points="290.1374,-187 287.1374,-191 266.1374,-191 263.1374,-187 185.8626,-187 185.8626,-151 290.1374,-151 290.1374,-187"/>
<text text-anchor="middle" x="238" y="-164.8" font-family="Times,serif" font-size="14.00" fill="#000000">UIIconsModule</text>
</g>
<!-- FuseIconsComponent&#45;&gt;UIIconsModule -->
<g id="edge1" class="edge">
<title>FuseIconsComponent&#45;&gt;UIIconsModule</title>
<path fill="none" stroke="#000000" d="M265.1357,-122.1061C265.1357,-122.1061 265.1357,-140.991 265.1357,-140.991"/>
<polygon fill="#000000" stroke="#000000" points="261.6358,-140.9909 265.1357,-150.991 268.6358,-140.991 261.6358,-140.9909"/>
</g>
<!-- SharedModule -->
<g id="node3" class="node">
<title>SharedModule</title>
<polygon fill="#8dd3c7" stroke="#000000" points="216.4231,-122 213.4231,-126 192.4231,-126 189.4231,-122 117.5769,-122 117.5769,-86 216.4231,-86 216.4231,-122"/>
<text text-anchor="middle" x="167" y="-99.8" font-family="Times,serif" font-size="14.00" fill="#000000">SharedModule</text>
</g>
<!-- SharedModule&#45;&gt;UIIconsModule -->
<g id="edge2" class="edge">
<title>SharedModule&#45;&gt;UIIconsModule</title>
<path fill="none" stroke="#000000" d="M200.9464,-122.1061C200.9464,-122.1061 200.9464,-140.991 200.9464,-140.991"/>
<polygon fill="#000000" stroke="#000000" points="197.4464,-140.9909 200.9464,-150.991 204.4464,-140.991 197.4464,-140.9909"/>
</g>
</g>
</svg>
