<?xml version="1.0" encoding="UTF-8" standalone="no"?>
<!DOCTYPE svg PUBLIC "-//W3C//DTD SVG 1.1//EN"
 "http://www.w3.org/Graphics/SVG/1.1/DTD/svg11.dtd">
<!-- Generated by graphviz version 2.40.1 (20161225.0304)
 -->
<!-- Title: dependencies Pages: 1 -->
<svg width="668pt" height="211pt"
 viewBox="0.00 0.00 668.00 211.00" xmlns="http://www.w3.org/2000/svg" xmlns:xlink="http://www.w3.org/1999/xlink">
<g id="graph0" class="graph" transform="scale(1 1) rotate(0) translate(4 207)">
<title>dependencies</title>
<polygon fill="#ffffff" stroke="transparent" points="-4,4 -4,-207 664,-207 664,4 -4,4"/>
<text text-anchor="start" x="309.0091" y="-42.4" font-family="sans-serif" font-weight="bold" font-size="14.00" fill="#000000">Legend</text>
<polygon fill="#ffffb3" stroke="transparent" points="96,-10 96,-30 116,-30 116,-10 96,-10"/>
<text text-anchor="start" x="119.629" y="-15.4" font-family="sans-serif" font-size="14.00" fill="#000000"> &#160;Declarations</text>
<polygon fill="#8dd3c7" stroke="transparent" points="209,-10 209,-30 229,-30 229,-10 209,-10"/>
<text text-anchor="start" x="232.7251" y="-15.4" font-family="sans-serif" font-size="14.00" fill="#000000"> &#160;Module</text>
<polygon fill="#80b1d3" stroke="transparent" points="295,-10 295,-30 315,-30 315,-10 295,-10"/>
<text text-anchor="start" x="318.7812" y="-15.4" font-family="sans-serif" font-size="14.00" fill="#000000"> &#160;Bootstrap</text>
<polygon fill="#fdb462" stroke="transparent" points="392,-10 392,-30 412,-30 412,-10 392,-10"/>
<text text-anchor="start" x="415.6732" y="-15.4" font-family="sans-serif" font-size="14.00" fill="#000000"> &#160;Providers</text>
<polygon fill="#fb8072" stroke="transparent" points="488,-10 488,-30 508,-30 508,-10 488,-10"/>
<text text-anchor="start" x="511.7258" y="-15.4" font-family="sans-serif" font-size="14.00" fill="#000000"> &#160;Exports</text>
<g id="clust1" class="cluster">
<title>cluster_ServicesModule</title>
<polygon fill="none" stroke="#000000" stroke-dasharray="1,5" points="8,-70 8,-195 652,-195 652,-70 8,-70"/>
</g>
<g id="clust2" class="cluster">
<title>cluster_ServicesModule_declarations</title>
<polygon fill="none" stroke="#000000" points="138,-78 138,-130 644,-130 644,-78 138,-78"/>
</g>
<g id="clust5" class="cluster">
<title>cluster_ServicesModule_imports</title>
<polygon fill="none" stroke="#000000" points="16,-78 16,-130 130,-130 130,-78 16,-78"/>
</g>
<!-- FuseConfigServiceDocsComponent -->
<g id="node1" class="node">
<title>FuseConfigServiceDocsComponent</title>
<polygon fill="#ffffb3" stroke="#000000" points="635.9058,-122 418.0942,-122 418.0942,-86 635.9058,-86 635.9058,-122"/>
<text text-anchor="middle" x="527" y="-99.8" font-family="Times,serif" font-size="14.00" fill="#000000">FuseConfigServiceDocsComponent</text>
</g>
<!-- ServicesModule -->
<g id="node3" class="node">
<title>ServicesModule</title>
<polygon fill="#8dd3c7" stroke="#000000" points="326.472,-187 323.472,-191 302.472,-191 299.472,-187 219.528,-187 219.528,-151 326.472,-151 326.472,-187"/>
<text text-anchor="middle" x="273" y="-164.8" font-family="Times,serif" font-size="14.00" fill="#000000">ServicesModule</text>
</g>
<!-- FuseConfigServiceDocsComponent&#45;&gt;ServicesModule -->
<g id="edge1" class="edge">
<title>FuseConfigServiceDocsComponent&#45;&gt;ServicesModule</title>
<path fill="none" stroke="#000000" d="M527,-122.1061C527,-141.3391 527,-169 527,-169 527,-169 336.5565,-169 336.5565,-169"/>
<polygon fill="#000000" stroke="#000000" points="336.5565,-165.5001 326.5565,-169 336.5565,-172.5001 336.5565,-165.5001"/>
</g>
<!-- FuseSplashScreenServiceDocsComponent -->
<g id="node2" class="node">
<title>FuseSplashScreenServiceDocsComponent</title>
<polygon fill="#ffffb3" stroke="#000000" points="399.937,-122 146.063,-122 146.063,-86 399.937,-86 399.937,-122"/>
<text text-anchor="middle" x="273" y="-99.8" font-family="Times,serif" font-size="14.00" fill="#000000">FuseSplashScreenServiceDocsComponent</text>
</g>
<!-- FuseSplashScreenServiceDocsComponent&#45;&gt;ServicesModule -->
<g id="edge2" class="edge">
<title>FuseSplashScreenServiceDocsComponent&#45;&gt;ServicesModule</title>
<path fill="none" stroke="#000000" d="M273,-122.1061C273,-122.1061 273,-140.991 273,-140.991"/>
<polygon fill="#000000" stroke="#000000" points="269.5001,-140.9909 273,-150.991 276.5001,-140.991 269.5001,-140.9909"/>
</g>
<!-- SharedModule -->
<g id="node4" class="node">
<title>SharedModule</title>
<polygon fill="#8dd3c7" stroke="#000000" points="122.4231,-122 119.4231,-126 98.4231,-126 95.4231,-122 23.5769,-122 23.5769,-86 122.4231,-86 122.4231,-122"/>
<text text-anchor="middle" x="73" y="-99.8" font-family="Times,serif" font-size="14.00" fill="#000000">SharedModule</text>
</g>
<!-- SharedModule&#45;&gt;ServicesModule -->
<g id="edge3" class="edge">
<title>SharedModule&#45;&gt;ServicesModule</title>
<path fill="none" stroke="#000000" d="M73,-122.1061C73,-141.3391 73,-169 73,-169 73,-169 209.4037,-169 209.4037,-169"/>
<polygon fill="#000000" stroke="#000000" points="209.4037,-172.5001 219.4037,-169 209.4036,-165.5001 209.4037,-172.5001"/>
</g>
</g>
</svg>
