<?xml version="1.0" encoding="UTF-8" standalone="no"?>
<!DOCTYPE svg PUBLIC "-//W3C//DTD SVG 1.1//EN"
 "http://www.w3.org/Graphics/SVG/1.1/DTD/svg11.dtd">
<!-- Generated by graphviz version 2.40.1 (20161225.0304)
 -->
<!-- Title: dependencies Pages: 1 -->
<svg width="2477pt" height="284pt"
 viewBox="0.00 0.00 2477.00 284.00" xmlns="http://www.w3.org/2000/svg" xmlns:xlink="http://www.w3.org/1999/xlink">
<g id="graph0" class="graph" transform="scale(1 1) rotate(0) translate(4 280)">
<title>dependencies</title>
<polygon fill="#ffffff" stroke="transparent" points="-4,4 -4,-280 2473,-280 2473,4 -4,4"/>
<text text-anchor="start" x="1213.5091" y="-42.4" font-family="sans-serif" font-weight="bold" font-size="14.00" fill="#000000">Legend</text>
<polygon fill="#ffffb3" stroke="transparent" points="1000.5,-10 1000.5,-30 1020.5,-30 1020.5,-10 1000.5,-10"/>
<text text-anchor="start" x="1024.129" y="-15.4" font-family="sans-serif" font-size="14.00" fill="#000000"> &#160;Declarations</text>
<polygon fill="#8dd3c7" stroke="transparent" points="1113.5,-10 1113.5,-30 1133.5,-30 1133.5,-10 1113.5,-10"/>
<text text-anchor="start" x="1137.2251" y="-15.4" font-family="sans-serif" font-size="14.00" fill="#000000"> &#160;Module</text>
<polygon fill="#80b1d3" stroke="transparent" points="1199.5,-10 1199.5,-30 1219.5,-30 1219.5,-10 1199.5,-10"/>
<text text-anchor="start" x="1223.2812" y="-15.4" font-family="sans-serif" font-size="14.00" fill="#000000"> &#160;Bootstrap</text>
<polygon fill="#fdb462" stroke="transparent" points="1296.5,-10 1296.5,-30 1316.5,-30 1316.5,-10 1296.5,-10"/>
<text text-anchor="start" x="1320.1732" y="-15.4" font-family="sans-serif" font-size="14.00" fill="#000000"> &#160;Providers</text>
<polygon fill="#fb8072" stroke="transparent" points="1392.5,-10 1392.5,-30 1412.5,-30 1412.5,-10 1392.5,-10"/>
<text text-anchor="start" x="1416.2258" y="-15.4" font-family="sans-serif" font-size="14.00" fill="#000000"> &#160;Exports</text>
<g id="clust1" class="cluster">
<title>cluster_SharedModule</title>
<polygon fill="none" stroke="#000000" stroke-dasharray="1,5" points="8,-70 8,-268 2461,-268 2461,-70 8,-70"/>
</g>
<g id="clust2" class="cluster">
<title>cluster_SharedModule_declarations</title>
<polygon fill="none" stroke="#000000" points="857,-78 857,-130 2453,-130 2453,-78 857,-78"/>
</g>
<g id="clust11" class="cluster">
<title>cluster_SharedModule_imports</title>
<polygon fill="none" stroke="#000000" points="727,-78 727,-130 849,-130 849,-78 727,-78"/>
</g>
<g id="clust12" class="cluster">
<title>cluster_SharedModule_exports</title>
<polygon fill="none" stroke="#000000" points="506,-208 506,-260 2046,-260 2046,-208 506,-208"/>
</g>
<g id="clust14" class="cluster">
<title>cluster_SharedModule_providers</title>
<polygon fill="none" stroke="#000000" points="16,-78 16,-130 719,-130 719,-78 16,-78"/>
</g>
<!-- FuseMdSidenavHelperDirective -->
<g id="node1" class="node">
<title>FuseMdSidenavHelperDirective</title>
<polygon fill="#ffffb3" stroke="#000000" points="2444.6587,-122 2247.3413,-122 2247.3413,-86 2444.6587,-86 2444.6587,-122"/>
<text text-anchor="middle" x="2346" y="-99.8" font-family="Times,serif" font-size="14.00" fill="#000000">FuseMdSidenavHelperDirective</text>
</g>
<!-- SharedModule -->
<g id="node9" class="node">
<title>SharedModule</title>
<polygon fill="#8dd3c7" stroke="#000000" points="1339.4231,-187 1336.4231,-191 1315.4231,-191 1312.4231,-187 1240.5769,-187 1240.5769,-151 1339.4231,-151 1339.4231,-187"/>
<text text-anchor="middle" x="1290" y="-164.8" font-family="Times,serif" font-size="14.00" fill="#000000">SharedModule</text>
</g>
<!-- FuseMdSidenavHelperDirective&#45;&gt;SharedModule -->
<g id="edge1" class="edge">
<title>FuseMdSidenavHelperDirective&#45;&gt;SharedModule</title>
<path fill="none" stroke="#000000" d="M2346,-122.308C2346,-142.1455 2346,-171 2346,-171 2346,-171 1349.5167,-171 1349.5167,-171"/>
<polygon fill="#000000" stroke="#000000" points="1349.5167,-167.5001 1339.5167,-171 1349.5167,-174.5001 1349.5167,-167.5001"/>
</g>
<!-- FuseMdSidenavTogglerDirective -->
<g id="node2" class="node">
<title>FuseMdSidenavTogglerDirective</title>
<polygon fill="#ffffb3" stroke="#000000" points="2229.8904,-122 2026.1096,-122 2026.1096,-86 2229.8904,-86 2229.8904,-122"/>
<text text-anchor="middle" x="2128" y="-99.8" font-family="Times,serif" font-size="14.00" fill="#000000">FuseMdSidenavTogglerDirective</text>
</g>
<!-- FuseMdSidenavTogglerDirective&#45;&gt;SharedModule -->
<g id="edge2" class="edge">
<title>FuseMdSidenavTogglerDirective&#45;&gt;SharedModule</title>
<path fill="none" stroke="#000000" d="M2032.2702,-122.2222C2032.2702,-140.8285 2032.2702,-167 2032.2702,-167 2032.2702,-167 1349.2773,-167 1349.2773,-167"/>
<polygon fill="#000000" stroke="#000000" points="1349.2773,-163.5001 1339.2773,-167 1349.2772,-170.5001 1349.2773,-163.5001"/>
</g>
<!-- FuseConfirmDialogComponent -->
<g id="node3" class="node">
<title>FuseConfirmDialogComponent</title>
<polygon fill="#ffffb3" stroke="#000000" points="2008.8159,-122 1815.1841,-122 1815.1841,-86 2008.8159,-86 2008.8159,-122"/>
<text text-anchor="middle" x="1912" y="-99.8" font-family="Times,serif" font-size="14.00" fill="#000000">FuseConfirmDialogComponent</text>
</g>
<!-- FuseConfirmDialogComponent&#45;&gt;SharedModule -->
<g id="edge3" class="edge">
<title>FuseConfirmDialogComponent&#45;&gt;SharedModule</title>
<path fill="none" stroke="#000000" d="M1862.3358,-122.0225C1862.3358,-139.3734 1862.3358,-163 1862.3358,-163 1862.3358,-163 1349.2924,-163 1349.2924,-163"/>
<polygon fill="#000000" stroke="#000000" points="1349.2924,-159.5001 1339.2924,-163 1349.2923,-166.5001 1349.2924,-159.5001"/>
</g>
<!-- FuseCountdownComponent -->
<g id="node4" class="node">
<title>FuseCountdownComponent</title>
<polygon fill="#ffffb3" stroke="#000000" points="1797.608,-122 1624.392,-122 1624.392,-86 1797.608,-86 1797.608,-122"/>
<text text-anchor="middle" x="1711" y="-99.8" font-family="Times,serif" font-size="14.00" fill="#000000">FuseCountdownComponent</text>
</g>
<!-- FuseCountdownComponent&#45;&gt;SharedModule -->
<g id="edge4" class="edge">
<title>FuseCountdownComponent&#45;&gt;SharedModule</title>
<path fill="none" stroke="#000000" d="M1657.4455,-122.0091C1657.4455,-138.0494 1657.4455,-159 1657.4455,-159 1657.4455,-159 1349.5553,-159 1349.5553,-159"/>
<polygon fill="#000000" stroke="#000000" points="1349.5554,-155.5001 1339.5553,-159 1349.5553,-162.5001 1349.5554,-155.5001"/>
</g>
<!-- FuseHljsComponent -->
<g id="node5" class="node">
<title>FuseHljsComponent</title>
<polygon fill="#ffffb3" stroke="#000000" points="1606.6066,-122 1475.3934,-122 1475.3934,-86 1606.6066,-86 1606.6066,-122"/>
<text text-anchor="middle" x="1541" y="-99.8" font-family="Times,serif" font-size="14.00" fill="#000000">FuseHljsComponent</text>
</g>
<!-- FuseHljsComponent&#45;&gt;SharedModule -->
<g id="edge5" class="edge">
<title>FuseHljsComponent&#45;&gt;SharedModule</title>
<path fill="none" stroke="#000000" d="M1479.5008,-122.1243C1479.5008,-136.7832 1479.5008,-155 1479.5008,-155 1479.5008,-155 1349.2944,-155 1349.2944,-155"/>
<polygon fill="#000000" stroke="#000000" points="1349.2945,-151.5001 1339.2944,-155 1349.2944,-158.5001 1349.2945,-151.5001"/>
</g>
<!-- FuseIfOnDomDirective -->
<g id="node6" class="node">
<title>FuseIfOnDomDirective</title>
<polygon fill="#ffffb3" stroke="#000000" points="1457.4496,-122 1308.5504,-122 1308.5504,-86 1457.4496,-86 1457.4496,-122"/>
<text text-anchor="middle" x="1383" y="-99.8" font-family="Times,serif" font-size="14.00" fill="#000000">FuseIfOnDomDirective</text>
</g>
<!-- FuseIfOnDomDirective&#45;&gt;SharedModule -->
<g id="edge6" class="edge">
<title>FuseIfOnDomDirective&#45;&gt;SharedModule</title>
<path fill="none" stroke="#000000" d="M1323.8682,-122.1061C1323.8682,-122.1061 1323.8682,-140.991 1323.8682,-140.991"/>
<polygon fill="#000000" stroke="#000000" points="1320.3682,-140.9909 1323.8682,-150.991 1327.3682,-140.991 1320.3682,-140.9909"/>
</g>
<!-- FusePerfectScrollbarDirective -->
<g id="node7" class="node">
<title>FusePerfectScrollbarDirective</title>
<polygon fill="#ffffb3" stroke="#000000" points="1290.9776,-122 1105.0224,-122 1105.0224,-86 1290.9776,-86 1290.9776,-122"/>
<text text-anchor="middle" x="1198" y="-99.8" font-family="Times,serif" font-size="14.00" fill="#000000">FusePerfectScrollbarDirective</text>
</g>
<!-- FusePerfectScrollbarDirective&#45;&gt;SharedModule -->
<g id="edge7" class="edge">
<title>FusePerfectScrollbarDirective&#45;&gt;SharedModule</title>
<path fill="none" stroke="#000000" d="M1265.7637,-122.1061C1265.7637,-122.1061 1265.7637,-140.991 1265.7637,-140.991"/>
<polygon fill="#000000" stroke="#000000" points="1262.2638,-140.9909 1265.7637,-150.991 1269.2638,-140.991 1262.2638,-140.9909"/>
</g>
<!-- FuseMaterialColorPickerComponent -->
<g id="node8" class="node">
<title>FuseMaterialColorPickerComponent</title>
<polygon fill="#ffffb3" stroke="#000000" points="1087.3459,-122 864.6541,-122 864.6541,-86 1087.3459,-86 1087.3459,-122"/>
<text text-anchor="middle" x="976" y="-99.8" font-family="Times,serif" font-size="14.00" fill="#000000">FuseMaterialColorPickerComponent</text>
</g>
<!-- FuseMaterialColorPickerComponent&#45;&gt;SharedModule -->
<g id="edge8" class="edge">
<title>FuseMaterialColorPickerComponent&#45;&gt;SharedModule</title>
<path fill="none" stroke="#000000" d="M1007.9672,-122.1243C1007.9672,-136.7832 1007.9672,-155 1007.9672,-155 1007.9672,-155 1230.5509,-155 1230.5509,-155"/>
<polygon fill="#000000" stroke="#000000" points="1230.5509,-158.5001 1240.5509,-155 1230.5509,-151.5001 1230.5509,-158.5001"/>
</g>
<!-- MaterialModule  -->
<g id="node11" class="node">
<title>MaterialModule </title>
<polygon fill="#fb8072" stroke="#000000" points="2038.4716,-252 1927.5284,-252 1927.5284,-216 2038.4716,-216 2038.4716,-252"/>
<text text-anchor="middle" x="1983" y="-229.8" font-family="Times,serif" font-size="14.00" fill="#000000">MaterialModule </text>
</g>
<!-- SharedModule&#45;&gt;MaterialModule  -->
<g id="edge10" class="edge">
<title>SharedModule&#45;&gt;MaterialModule </title>
<path fill="none" stroke="#000000" stroke-dasharray="5,2" d="M1339.3216,-175C1495.3897,-175 1968.2113,-175 1968.2113,-175 1968.2113,-175 1968.2113,-205.9775 1968.2113,-205.9775"/>
<polygon fill="#000000" stroke="#000000" points="1964.7113,-205.9774 1968.2113,-215.9775 1971.7113,-205.9775 1964.7113,-205.9774"/>
</g>
<!-- FuseMdSidenavHelperDirective  -->
<g id="node12" class="node">
<title>FuseMdSidenavHelperDirective </title>
<polygon fill="#fb8072" stroke="#000000" points="1909.1589,-252 1708.8411,-252 1708.8411,-216 1909.1589,-216 1909.1589,-252"/>
<text text-anchor="middle" x="1809" y="-229.8" font-family="Times,serif" font-size="14.00" fill="#000000">FuseMdSidenavHelperDirective </text>
</g>
<!-- SharedModule&#45;&gt;FuseMdSidenavHelperDirective  -->
<g id="edge11" class="edge">
<title>SharedModule&#45;&gt;FuseMdSidenavHelperDirective </title>
<path fill="none" stroke="#000000" stroke-dasharray="5,2" d="M1339.5611,-179C1459.0315,-179 1753.1124,-179 1753.1124,-179 1753.1124,-179 1753.1124,-205.9909 1753.1124,-205.9909"/>
<polygon fill="#000000" stroke="#000000" points="1749.6124,-205.9909 1753.1124,-215.9909 1756.6124,-205.991 1749.6124,-205.9909"/>
</g>
<!-- FuseMdSidenavTogglerDirective  -->
<g id="node13" class="node">
<title>FuseMdSidenavTogglerDirective </title>
<polygon fill="#fb8072" stroke="#000000" points="1690.39,-252 1483.61,-252 1483.61,-216 1690.39,-216 1690.39,-252"/>
<text text-anchor="middle" x="1587" y="-229.8" font-family="Times,serif" font-size="14.00" fill="#000000">FuseMdSidenavTogglerDirective </text>
</g>
<!-- SharedModule&#45;&gt;FuseMdSidenavTogglerDirective  -->
<g id="edge12" class="edge">
<title>SharedModule&#45;&gt;FuseMdSidenavTogglerDirective </title>
<path fill="none" stroke="#000000" stroke-dasharray="5,2" d="M1339.4794,-183C1413.6506,-183 1545.0542,-183 1545.0542,-183 1545.0542,-183 1545.0542,-205.8757 1545.0542,-205.8757"/>
<polygon fill="#000000" stroke="#000000" points="1541.5542,-205.8757 1545.0542,-215.8757 1548.5542,-205.8757 1541.5542,-205.8757"/>
</g>
<!-- FuseCountdownComponent  -->
<g id="node14" class="node">
<title>FuseCountdownComponent </title>
<polygon fill="#fb8072" stroke="#000000" points="1465.1084,-252 1288.8916,-252 1288.8916,-216 1465.1084,-216 1465.1084,-252"/>
<text text-anchor="middle" x="1377" y="-229.8" font-family="Times,serif" font-size="14.00" fill="#000000">FuseCountdownComponent </text>
</g>
<!-- SharedModule&#45;&gt;FuseCountdownComponent  -->
<g id="edge13" class="edge">
<title>SharedModule&#45;&gt;FuseCountdownComponent </title>
<path fill="none" stroke="#000000" stroke-dasharray="5,2" d="M1313.9536,-187.1061C1313.9536,-187.1061 1313.9536,-205.991 1313.9536,-205.991"/>
<polygon fill="#000000" stroke="#000000" points="1310.4536,-205.9909 1313.9536,-215.991 1317.4536,-205.991 1310.4536,-205.9909"/>
</g>
<!-- FuseHljsComponent  -->
<g id="node15" class="node">
<title>FuseHljsComponent </title>
<polygon fill="#fb8072" stroke="#000000" points="1270.1072,-252 1135.8928,-252 1135.8928,-216 1270.1072,-216 1270.1072,-252"/>
<text text-anchor="middle" x="1203" y="-229.8" font-family="Times,serif" font-size="14.00" fill="#000000">FuseHljsComponent </text>
</g>
<!-- SharedModule&#45;&gt;FuseHljsComponent  -->
<g id="edge14" class="edge">
<title>SharedModule&#45;&gt;FuseHljsComponent </title>
<path fill="none" stroke="#000000" stroke-dasharray="5,2" d="M1255.5461,-187.1061C1255.5461,-187.1061 1255.5461,-205.991 1255.5461,-205.991"/>
<polygon fill="#000000" stroke="#000000" points="1252.0462,-205.9909 1255.5461,-215.991 1259.0462,-205.991 1252.0462,-205.9909"/>
</g>
<!-- FusePerfectScrollbarDirective  -->
<g id="node16" class="node">
<title>FusePerfectScrollbarDirective </title>
<polygon fill="#fb8072" stroke="#000000" points="1117.477,-252 928.523,-252 928.523,-216 1117.477,-216 1117.477,-252"/>
<text text-anchor="middle" x="1023" y="-229.8" font-family="Times,serif" font-size="14.00" fill="#000000">FusePerfectScrollbarDirective </text>
</g>
<!-- SharedModule&#45;&gt;FusePerfectScrollbarDirective  -->
<g id="edge15" class="edge">
<title>SharedModule&#45;&gt;FusePerfectScrollbarDirective </title>
<path fill="none" stroke="#000000" stroke-dasharray="5,2" d="M1240.7171,-183C1187.8451,-183 1111.375,-183 1111.375,-183 1111.375,-183 1111.375,-205.8757 1111.375,-205.8757"/>
<polygon fill="#000000" stroke="#000000" points="1107.8751,-205.8757 1111.375,-215.8757 1114.8751,-205.8757 1107.8751,-205.8757"/>
</g>
<!-- FuseIfOnDomDirective  -->
<g id="node17" class="node">
<title>FuseIfOnDomDirective </title>
<polygon fill="#fb8072" stroke="#000000" points="910.4503,-252 757.5497,-252 757.5497,-216 910.4503,-216 910.4503,-252"/>
<text text-anchor="middle" x="834" y="-229.8" font-family="Times,serif" font-size="14.00" fill="#000000">FuseIfOnDomDirective </text>
</g>
<!-- SharedModule&#45;&gt;FuseIfOnDomDirective  -->
<g id="edge16" class="edge">
<title>SharedModule&#45;&gt;FuseIfOnDomDirective </title>
<path fill="none" stroke="#000000" stroke-dasharray="5,2" d="M1240.6335,-179C1133.1279,-179 887.401,-179 887.401,-179 887.401,-179 887.401,-205.9909 887.401,-205.9909"/>
<polygon fill="#000000" stroke="#000000" points="883.901,-205.9909 887.401,-215.9909 890.901,-205.991 883.901,-205.9909"/>
</g>
<!-- FuseMaterialColorPickerComponent  -->
<g id="node18" class="node">
<title>FuseMaterialColorPickerComponent </title>
<polygon fill="#fb8072" stroke="#000000" points="740.3461,-252 513.6539,-252 513.6539,-216 740.3461,-216 740.3461,-252"/>
<text text-anchor="middle" x="627" y="-229.8" font-family="Times,serif" font-size="14.00" fill="#000000">FuseMaterialColorPickerComponent </text>
</g>
<!-- SharedModule&#45;&gt;FuseMaterialColorPickerComponent  -->
<g id="edge17" class="edge">
<title>SharedModule&#45;&gt;FuseMaterialColorPickerComponent </title>
<path fill="none" stroke="#000000" stroke-dasharray="5,2" d="M1240.6365,-175C1102.583,-175 722.5648,-175 722.5648,-175 722.5648,-175 722.5648,-205.9775 722.5648,-205.9775"/>
<polygon fill="#000000" stroke="#000000" points="719.0649,-205.9774 722.5648,-215.9775 726.0649,-205.9775 719.0649,-205.9774"/>
</g>
<!-- MaterialModule -->
<g id="node10" class="node">
<title>MaterialModule</title>
<polygon fill="#8dd3c7" stroke="#000000" points="841.4706,-122 838.4706,-126 817.4706,-126 814.4706,-122 734.5294,-122 734.5294,-86 841.4706,-86 841.4706,-122"/>
<text text-anchor="middle" x="788" y="-99.8" font-family="Times,serif" font-size="14.00" fill="#000000">MaterialModule</text>
</g>
<!-- MaterialModule&#45;&gt;SharedModule -->
<g id="edge9" class="edge">
<title>MaterialModule&#45;&gt;SharedModule</title>
<path fill="none" stroke="#000000" d="M799.6303,-122.0091C799.6303,-138.0494 799.6303,-159 799.6303,-159 799.6303,-159 1230.7363,-159 1230.7363,-159"/>
<polygon fill="#000000" stroke="#000000" points="1230.7363,-162.5001 1240.7363,-159 1230.7362,-155.5001 1230.7363,-162.5001"/>
</g>
<!-- FuseMatchMedia -->
<g id="node19" class="node">
<title>FuseMatchMedia</title>
<ellipse fill="#fdb462" stroke="#000000" cx="632" cy="-104" rx="78.7298" ry="18"/>
<text text-anchor="middle" x="632" y="-99.8" font-family="Times,serif" font-size="14.00" fill="#000000">FuseMatchMedia</text>
</g>
<!-- FuseMatchMedia&#45;&gt;SharedModule -->
<g id="edge18" class="edge">
<title>FuseMatchMedia&#45;&gt;SharedModule</title>
<path fill="none" stroke="#000000" d="M632,-122.0225C632,-139.3734 632,-163 632,-163 632,-163 1230.5431,-163 1230.5431,-163"/>
<polygon fill="#000000" stroke="#000000" points="1230.5431,-166.5001 1240.5431,-163 1230.543,-159.5001 1230.5431,-166.5001"/>
</g>
<!-- FuseNavbarVerticalService -->
<g id="node20" class="node">
<title>FuseNavbarVerticalService</title>
<ellipse fill="#fdb462" stroke="#000000" cx="418" cy="-104" rx="117.9901" ry="18"/>
<text text-anchor="middle" x="418" y="-99.8" font-family="Times,serif" font-size="14.00" fill="#000000">FuseNavbarVerticalService</text>
</g>
<!-- FuseNavbarVerticalService&#45;&gt;SharedModule -->
<g id="edge19" class="edge">
<title>FuseNavbarVerticalService&#45;&gt;SharedModule</title>
<path fill="none" stroke="#000000" d="M524.7859,-111.725C524.7859,-128.5479 524.7859,-167 524.7859,-167 524.7859,-167 1230.6754,-167 1230.6754,-167"/>
<polygon fill="#000000" stroke="#000000" points="1230.6755,-170.5001 1240.6754,-167 1230.6754,-163.5001 1230.6755,-170.5001"/>
</g>
<!-- FuseMdSidenavHelperService -->
<g id="node21" class="node">
<title>FuseMdSidenavHelperService</title>
<ellipse fill="#fdb462" stroke="#000000" cx="153" cy="-104" rx="129.0521" ry="18"/>
<text text-anchor="middle" x="153" y="-99.8" font-family="Times,serif" font-size="14.00" fill="#000000">FuseMdSidenavHelperService</text>
</g>
<!-- FuseMdSidenavHelperService&#45;&gt;SharedModule -->
<g id="edge20" class="edge">
<title>FuseMdSidenavHelperService&#45;&gt;SharedModule</title>
<path fill="none" stroke="#000000" d="M153,-122.308C153,-142.1455 153,-171 153,-171 153,-171 1230.7796,-171 1230.7796,-171"/>
<polygon fill="#000000" stroke="#000000" points="1230.7796,-174.5001 1240.7796,-171 1230.7796,-167.5001 1230.7796,-174.5001"/>
</g>
</g>
</svg>
