<?xml version="1.0" encoding="UTF-8" standalone="no"?>
<!DOCTYPE svg PUBLIC "-//W3C//DTD SVG 1.1//EN"
 "http://www.w3.org/Graphics/SVG/1.1/DTD/svg11.dtd">
<!-- Generated by graphviz version 2.40.1 (20161225.0304)
 -->
<!-- Title: dependencies Pages: 1 -->
<svg width="1956pt" height="211pt"
 viewBox="0.00 0.00 1956.00 211.00" xmlns="http://www.w3.org/2000/svg" xmlns:xlink="http://www.w3.org/1999/xlink">
<g id="graph0" class="graph" transform="scale(1 1) rotate(0) translate(4 207)">
<title>dependencies</title>
<polygon fill="#ffffff" stroke="transparent" points="-4,4 -4,-207 1952,-207 1952,4 -4,4"/>
<text text-anchor="start" x="953.0091" y="-42.4" font-family="sans-serif" font-weight="bold" font-size="14.00" fill="#000000">Legend</text>
<polygon fill="#ffffb3" stroke="transparent" points="740,-10 740,-30 760,-30 760,-10 740,-10"/>
<text text-anchor="start" x="763.629" y="-15.4" font-family="sans-serif" font-size="14.00" fill="#000000"> &#160;Declarations</text>
<polygon fill="#8dd3c7" stroke="transparent" points="853,-10 853,-30 873,-30 873,-10 853,-10"/>
<text text-anchor="start" x="876.7251" y="-15.4" font-family="sans-serif" font-size="14.00" fill="#000000"> &#160;Module</text>
<polygon fill="#80b1d3" stroke="transparent" points="939,-10 939,-30 959,-30 959,-10 939,-10"/>
<text text-anchor="start" x="962.7812" y="-15.4" font-family="sans-serif" font-size="14.00" fill="#000000"> &#160;Bootstrap</text>
<polygon fill="#fdb462" stroke="transparent" points="1036,-10 1036,-30 1056,-30 1056,-10 1036,-10"/>
<text text-anchor="start" x="1059.6732" y="-15.4" font-family="sans-serif" font-size="14.00" fill="#000000"> &#160;Providers</text>
<polygon fill="#fb8072" stroke="transparent" points="1132,-10 1132,-30 1152,-30 1152,-10 1132,-10"/>
<text text-anchor="start" x="1155.7258" y="-15.4" font-family="sans-serif" font-size="14.00" fill="#000000"> &#160;Exports</text>
<g id="clust1" class="cluster">
<title>cluster_FuseChatModule</title>
<polygon fill="none" stroke="#000000" stroke-dasharray="1,5" points="8,-70 8,-195 1940,-195 1940,-70 8,-70"/>
</g>
<g id="clust2" class="cluster">
<title>cluster_FuseChatModule_declarations</title>
<polygon fill="none" stroke="#000000" points="278,-78 278,-130 1932,-130 1932,-78 278,-78"/>
</g>
<g id="clust11" class="cluster">
<title>cluster_FuseChatModule_imports</title>
<polygon fill="none" stroke="#000000" points="156,-78 156,-130 270,-130 270,-78 156,-78"/>
</g>
<g id="clust14" class="cluster">
<title>cluster_FuseChatModule_providers</title>
<polygon fill="none" stroke="#000000" points="16,-78 16,-130 148,-130 148,-78 16,-78"/>
</g>
<!-- FuseChatComponent -->
<g id="node1" class="node">
<title>FuseChatComponent</title>
<polygon fill="#ffffb3" stroke="#000000" points="1924.2162,-122 1789.7838,-122 1789.7838,-86 1924.2162,-86 1924.2162,-122"/>
<text text-anchor="middle" x="1857" y="-99.8" font-family="Times,serif" font-size="14.00" fill="#000000">FuseChatComponent</text>
</g>
<!-- FuseChatModule -->
<g id="node9" class="node">
<title>FuseChatModule</title>
<polygon fill="#8dd3c7" stroke="#000000" points="1024.4342,-187 1021.4342,-191 1000.4342,-191 997.4342,-187 911.5658,-187 911.5658,-151 1024.4342,-151 1024.4342,-187"/>
<text text-anchor="middle" x="968" y="-164.8" font-family="Times,serif" font-size="14.00" fill="#000000">FuseChatModule</text>
</g>
<!-- FuseChatComponent&#45;&gt;FuseChatModule -->
<g id="edge1" class="edge">
<title>FuseChatComponent&#45;&gt;FuseChatModule</title>
<path fill="none" stroke="#000000" d="M1857,-122.0109C1857,-144.4852 1857,-180 1857,-180 1857,-180 1034.2854,-180 1034.2854,-180"/>
<polygon fill="#000000" stroke="#000000" points="1034.2854,-176.5001 1024.2854,-180 1034.2853,-183.5001 1034.2854,-176.5001"/>
</g>
<!-- FuseChatViewComponent -->
<g id="node2" class="node">
<title>FuseChatViewComponent</title>
<polygon fill="#ffffb3" stroke="#000000" points="1772.0351,-122 1607.9649,-122 1607.9649,-86 1772.0351,-86 1772.0351,-122"/>
<text text-anchor="middle" x="1690" y="-99.8" font-family="Times,serif" font-size="14.00" fill="#000000">FuseChatViewComponent</text>
</g>
<!-- FuseChatViewComponent&#45;&gt;FuseChatModule -->
<g id="edge2" class="edge">
<title>FuseChatViewComponent&#45;&gt;FuseChatModule</title>
<path fill="none" stroke="#000000" d="M1690,-122.1289C1690,-142.5724 1690,-173 1690,-173 1690,-173 1034.3534,-173 1034.3534,-173"/>
<polygon fill="#000000" stroke="#000000" points="1034.3534,-169.5001 1024.3534,-173 1034.3534,-176.5001 1034.3534,-169.5001"/>
</g>
<!-- FuseChatStartComponent -->
<g id="node3" class="node">
<title>FuseChatStartComponent</title>
<polygon fill="#ffffb3" stroke="#000000" points="1589.1554,-122 1428.8446,-122 1428.8446,-86 1589.1554,-86 1589.1554,-122"/>
<text text-anchor="middle" x="1509" y="-99.8" font-family="Times,serif" font-size="14.00" fill="#000000">FuseChatStartComponent</text>
</g>
<!-- FuseChatStartComponent&#45;&gt;FuseChatModule -->
<g id="edge3" class="edge">
<title>FuseChatStartComponent&#45;&gt;FuseChatModule</title>
<path fill="none" stroke="#000000" d="M1509,-122.2667C1509,-140.5552 1509,-166 1509,-166 1509,-166 1034.3655,-166 1034.3655,-166"/>
<polygon fill="#000000" stroke="#000000" points="1034.3655,-162.5001 1024.3655,-166 1034.3654,-169.5001 1034.3655,-162.5001"/>
</g>
<!-- FuseChatChatsSidenavComponent -->
<g id="node4" class="node">
<title>FuseChatChatsSidenavComponent</title>
<polygon fill="#ffffb3" stroke="#000000" points="1410.7049,-122 1199.2951,-122 1199.2951,-86 1410.7049,-86 1410.7049,-122"/>
<text text-anchor="middle" x="1305" y="-99.8" font-family="Times,serif" font-size="14.00" fill="#000000">FuseChatChatsSidenavComponent</text>
</g>
<!-- FuseChatChatsSidenavComponent&#45;&gt;FuseChatModule -->
<g id="edge4" class="edge">
<title>FuseChatChatsSidenavComponent&#45;&gt;FuseChatModule</title>
<path fill="none" stroke="#000000" d="M1305,-122.0091C1305,-138.0494 1305,-159 1305,-159 1305,-159 1034.4062,-159 1034.4062,-159"/>
<polygon fill="#000000" stroke="#000000" points="1034.4063,-155.5001 1024.4062,-159 1034.4062,-162.5001 1034.4063,-155.5001"/>
</g>
<!-- FuseChatUserSidenavComponent -->
<g id="node5" class="node">
<title>FuseChatUserSidenavComponent</title>
<polygon fill="#ffffb3" stroke="#000000" points="1181.745,-122 976.255,-122 976.255,-86 1181.745,-86 1181.745,-122"/>
<text text-anchor="middle" x="1079" y="-99.8" font-family="Times,serif" font-size="14.00" fill="#000000">FuseChatUserSidenavComponent</text>
</g>
<!-- FuseChatUserSidenavComponent&#45;&gt;FuseChatModule -->
<g id="edge5" class="edge">
<title>FuseChatUserSidenavComponent&#45;&gt;FuseChatModule</title>
<path fill="none" stroke="#000000" d="M1000.1722,-122.1061C1000.1722,-122.1061 1000.1722,-140.991 1000.1722,-140.991"/>
<polygon fill="#000000" stroke="#000000" points="996.6722,-140.9909 1000.1722,-150.991 1003.6722,-140.991 996.6722,-140.9909"/>
</g>
<!-- FuseChatLeftSidenavComponent -->
<g id="node6" class="node">
<title>FuseChatLeftSidenavComponent</title>
<polygon fill="#ffffb3" stroke="#000000" points="958.1371,-122 755.8629,-122 755.8629,-86 958.1371,-86 958.1371,-122"/>
<text text-anchor="middle" x="857" y="-99.8" font-family="Times,serif" font-size="14.00" fill="#000000">FuseChatLeftSidenavComponent</text>
</g>
<!-- FuseChatLeftSidenavComponent&#45;&gt;FuseChatModule -->
<g id="edge6" class="edge">
<title>FuseChatLeftSidenavComponent&#45;&gt;FuseChatModule</title>
<path fill="none" stroke="#000000" d="M935.0509,-122.1061C935.0509,-122.1061 935.0509,-140.991 935.0509,-140.991"/>
<polygon fill="#000000" stroke="#000000" points="931.5509,-140.9909 935.0509,-150.991 938.5509,-140.991 931.5509,-140.9909"/>
</g>
<!-- FuseChatRightSidenavComponent -->
<g id="node7" class="node">
<title>FuseChatRightSidenavComponent</title>
<polygon fill="#ffffb3" stroke="#000000" points="737.4367,-122 526.5633,-122 526.5633,-86 737.4367,-86 737.4367,-122"/>
<text text-anchor="middle" x="632" y="-99.8" font-family="Times,serif" font-size="14.00" fill="#000000">FuseChatRightSidenavComponent</text>
</g>
<!-- FuseChatRightSidenavComponent&#45;&gt;FuseChatModule -->
<g id="edge7" class="edge">
<title>FuseChatRightSidenavComponent&#45;&gt;FuseChatModule</title>
<path fill="none" stroke="#000000" d="M632,-122.0091C632,-138.0494 632,-159 632,-159 632,-159 901.7612,-159 901.7612,-159"/>
<polygon fill="#000000" stroke="#000000" points="901.7612,-162.5001 911.7612,-159 901.7611,-155.5001 901.7612,-162.5001"/>
</g>
<!-- FuseChatContactSidenavComponent -->
<g id="node8" class="node">
<title>FuseChatContactSidenavComponent</title>
<polygon fill="#ffffb3" stroke="#000000" points="508.3654,-122 285.6346,-122 285.6346,-86 508.3654,-86 508.3654,-122"/>
<text text-anchor="middle" x="397" y="-99.8" font-family="Times,serif" font-size="14.00" fill="#000000">FuseChatContactSidenavComponent</text>
</g>
<!-- FuseChatContactSidenavComponent&#45;&gt;FuseChatModule -->
<g id="edge8" class="edge">
<title>FuseChatContactSidenavComponent&#45;&gt;FuseChatModule</title>
<path fill="none" stroke="#000000" d="M397,-122.2667C397,-140.5552 397,-166 397,-166 397,-166 901.6876,-166 901.6876,-166"/>
<polygon fill="#000000" stroke="#000000" points="901.6877,-169.5001 911.6876,-166 901.6876,-162.5001 901.6877,-169.5001"/>
</g>
<!-- SharedModule -->
<g id="node10" class="node">
<title>SharedModule</title>
<polygon fill="#8dd3c7" stroke="#000000" points="262.4231,-122 259.4231,-126 238.4231,-126 235.4231,-122 163.5769,-122 163.5769,-86 262.4231,-86 262.4231,-122"/>
<text text-anchor="middle" x="213" y="-99.8" font-family="Times,serif" font-size="14.00" fill="#000000">SharedModule</text>
</g>
<!-- SharedModule&#45;&gt;FuseChatModule -->
<g id="edge9" class="edge">
<title>SharedModule&#45;&gt;FuseChatModule</title>
<path fill="none" stroke="#000000" d="M213,-122.1289C213,-142.5724 213,-173 213,-173 213,-173 901.5611,-173 901.5611,-173"/>
<polygon fill="#000000" stroke="#000000" points="901.5611,-176.5001 911.5611,-173 901.561,-169.5001 901.5611,-176.5001"/>
</g>
<!-- ChatService -->
<g id="node11" class="node">
<title>ChatService</title>
<ellipse fill="#fdb462" stroke="#000000" cx="82" cy="-104" rx="58.4628" ry="18"/>
<text text-anchor="middle" x="82" y="-99.8" font-family="Times,serif" font-size="14.00" fill="#000000">ChatService</text>
</g>
<!-- ChatService&#45;&gt;FuseChatModule -->
<g id="edge10" class="edge">
<title>ChatService&#45;&gt;FuseChatModule</title>
<path fill="none" stroke="#000000" d="M82,-122.0109C82,-144.4852 82,-180 82,-180 82,-180 901.5672,-180 901.5672,-180"/>
<polygon fill="#000000" stroke="#000000" points="901.5672,-183.5001 911.5672,-180 901.5671,-176.5001 901.5672,-183.5001"/>
</g>
</g>
</svg>
