<?xml version="1.0" encoding="UTF-8" standalone="no"?>
<!DOCTYPE svg PUBLIC "-//W3C//DTD SVG 1.1//EN"
 "http://www.w3.org/Graphics/SVG/1.1/DTD/svg11.dtd">
<!-- Generated by graphviz version 2.40.1 (20161225.0304)
 -->
<!-- Title: dependencies Pages: 1 -->
<svg width="1354pt" height="211pt"
 viewBox="0.00 0.00 1354.00 211.00" xmlns="http://www.w3.org/2000/svg" xmlns:xlink="http://www.w3.org/1999/xlink">
<g id="graph0" class="graph" transform="scale(1 1) rotate(0) translate(4 207)">
<title>dependencies</title>
<polygon fill="#ffffff" stroke="transparent" points="-4,4 -4,-207 1350,-207 1350,4 -4,4"/>
<text text-anchor="start" x="652.0091" y="-42.4" font-family="sans-serif" font-weight="bold" font-size="14.00" fill="#000000">Legend</text>
<polygon fill="#ffffb3" stroke="transparent" points="439,-10 439,-30 459,-30 459,-10 439,-10"/>
<text text-anchor="start" x="462.629" y="-15.4" font-family="sans-serif" font-size="14.00" fill="#000000"> &#160;Declarations</text>
<polygon fill="#8dd3c7" stroke="transparent" points="552,-10 552,-30 572,-30 572,-10 552,-10"/>
<text text-anchor="start" x="575.7251" y="-15.4" font-family="sans-serif" font-size="14.00" fill="#000000"> &#160;Module</text>
<polygon fill="#80b1d3" stroke="transparent" points="638,-10 638,-30 658,-30 658,-10 638,-10"/>
<text text-anchor="start" x="661.7812" y="-15.4" font-family="sans-serif" font-size="14.00" fill="#000000"> &#160;Bootstrap</text>
<polygon fill="#fdb462" stroke="transparent" points="735,-10 735,-30 755,-30 755,-10 735,-10"/>
<text text-anchor="start" x="758.6732" y="-15.4" font-family="sans-serif" font-size="14.00" fill="#000000"> &#160;Providers</text>
<polygon fill="#fb8072" stroke="transparent" points="831,-10 831,-30 851,-30 851,-10 831,-10"/>
<text text-anchor="start" x="854.7258" y="-15.4" font-family="sans-serif" font-size="14.00" fill="#000000"> &#160;Exports</text>
<g id="clust1" class="cluster">
<title>cluster_FuseFileManagerModule</title>
<polygon fill="none" stroke="#000000" stroke-dasharray="1,5" points="8,-70 8,-195 1338,-195 1338,-70 8,-70"/>
</g>
<g id="clust2" class="cluster">
<title>cluster_FuseFileManagerModule_declarations</title>
<polygon fill="none" stroke="#000000" points="340,-78 340,-130 1330,-130 1330,-78 340,-78"/>
</g>
<g id="clust7" class="cluster">
<title>cluster_FuseFileManagerModule_imports</title>
<polygon fill="none" stroke="#000000" points="218,-78 218,-130 332,-130 332,-78 218,-78"/>
</g>
<g id="clust10" class="cluster">
<title>cluster_FuseFileManagerModule_providers</title>
<polygon fill="none" stroke="#000000" points="16,-78 16,-130 210,-130 210,-78 16,-78"/>
</g>
<!-- FuseFileManagerComponent -->
<g id="node1" class="node">
<title>FuseFileManagerComponent</title>
<polygon fill="#ffffb3" stroke="#000000" points="1321.8019,-122 1142.1981,-122 1142.1981,-86 1321.8019,-86 1321.8019,-122"/>
<text text-anchor="middle" x="1232" y="-99.8" font-family="Times,serif" font-size="14.00" fill="#000000">FuseFileManagerComponent</text>
</g>
<!-- FuseFileManagerModule -->
<g id="node5" class="node">
<title>FuseFileManagerModule</title>
<polygon fill="#8dd3c7" stroke="#000000" points="696.5197,-187 693.5197,-191 672.5197,-191 669.5197,-187 539.4803,-187 539.4803,-151 696.5197,-151 696.5197,-187"/>
<text text-anchor="middle" x="618" y="-164.8" font-family="Times,serif" font-size="14.00" fill="#000000">FuseFileManagerModule</text>
</g>
<!-- FuseFileManagerComponent&#45;&gt;FuseFileManagerModule -->
<g id="edge1" class="edge">
<title>FuseFileManagerComponent&#45;&gt;FuseFileManagerModule</title>
<path fill="none" stroke="#000000" d="M1232,-122.2843C1232,-143.3211 1232,-175 1232,-175 1232,-175 706.6997,-175 706.6997,-175"/>
<polygon fill="#000000" stroke="#000000" points="706.6998,-171.5001 696.6997,-175 706.6997,-178.5001 706.6998,-171.5001"/>
</g>
<!-- FuseFileManagerFileListComponent -->
<g id="node2" class="node">
<title>FuseFileManagerFileListComponent</title>
<polygon fill="#ffffb3" stroke="#000000" points="1124.3584,-122 901.6416,-122 901.6416,-86 1124.3584,-86 1124.3584,-122"/>
<text text-anchor="middle" x="1013" y="-99.8" font-family="Times,serif" font-size="14.00" fill="#000000">FuseFileManagerFileListComponent</text>
</g>
<!-- FuseFileManagerFileListComponent&#45;&gt;FuseFileManagerModule -->
<g id="edge2" class="edge">
<title>FuseFileManagerFileListComponent&#45;&gt;FuseFileManagerModule</title>
<path fill="none" stroke="#000000" d="M1013,-122.0225C1013,-139.3734 1013,-163 1013,-163 1013,-163 706.9848,-163 706.9848,-163"/>
<polygon fill="#000000" stroke="#000000" points="706.9848,-159.5001 696.9848,-163 706.9848,-166.5001 706.9848,-159.5001"/>
</g>
<!-- FuseFileManagerMainSidenavComponent -->
<g id="node3" class="node">
<title>FuseFileManagerMainSidenavComponent</title>
<polygon fill="#ffffb3" stroke="#000000" points="883.9538,-122 630.0462,-122 630.0462,-86 883.9538,-86 883.9538,-122"/>
<text text-anchor="middle" x="757" y="-99.8" font-family="Times,serif" font-size="14.00" fill="#000000">FuseFileManagerMainSidenavComponent</text>
</g>
<!-- FuseFileManagerMainSidenavComponent&#45;&gt;FuseFileManagerModule -->
<g id="edge3" class="edge">
<title>FuseFileManagerMainSidenavComponent&#45;&gt;FuseFileManagerModule</title>
<path fill="none" stroke="#000000" d="M663.3913,-122.1061C663.3913,-122.1061 663.3913,-140.991 663.3913,-140.991"/>
<polygon fill="#000000" stroke="#000000" points="659.8914,-140.9909 663.3913,-150.991 666.8914,-140.991 659.8914,-140.9909"/>
</g>
<!-- FuseFileManagerDetailsSidenavComponent -->
<g id="node4" class="node">
<title>FuseFileManagerDetailsSidenavComponent</title>
<polygon fill="#ffffb3" stroke="#000000" points="612.0562,-122 347.9438,-122 347.9438,-86 612.0562,-86 612.0562,-122"/>
<text text-anchor="middle" x="480" y="-99.8" font-family="Times,serif" font-size="14.00" fill="#000000">FuseFileManagerDetailsSidenavComponent</text>
</g>
<!-- FuseFileManagerDetailsSidenavComponent&#45;&gt;FuseFileManagerModule -->
<g id="edge4" class="edge">
<title>FuseFileManagerDetailsSidenavComponent&#45;&gt;FuseFileManagerModule</title>
<path fill="none" stroke="#000000" d="M575.6343,-122.1061C575.6343,-122.1061 575.6343,-140.991 575.6343,-140.991"/>
<polygon fill="#000000" stroke="#000000" points="572.1344,-140.9909 575.6343,-150.991 579.1344,-140.991 572.1344,-140.9909"/>
</g>
<!-- SharedModule -->
<g id="node6" class="node">
<title>SharedModule</title>
<polygon fill="#8dd3c7" stroke="#000000" points="324.4231,-122 321.4231,-126 300.4231,-126 297.4231,-122 225.5769,-122 225.5769,-86 324.4231,-86 324.4231,-122"/>
<text text-anchor="middle" x="275" y="-99.8" font-family="Times,serif" font-size="14.00" fill="#000000">SharedModule</text>
</g>
<!-- SharedModule&#45;&gt;FuseFileManagerModule -->
<g id="edge5" class="edge">
<title>SharedModule&#45;&gt;FuseFileManagerModule</title>
<path fill="none" stroke="#000000" d="M275,-122.0225C275,-139.3734 275,-163 275,-163 275,-163 529.3089,-163 529.3089,-163"/>
<polygon fill="#000000" stroke="#000000" points="529.3089,-166.5001 539.3089,-163 529.3088,-159.5001 529.3089,-166.5001"/>
</g>
<!-- FileManagerService -->
<g id="node7" class="node">
<title>FileManagerService</title>
<ellipse fill="#fdb462" stroke="#000000" cx="113" cy="-104" rx="89.1607" ry="18"/>
<text text-anchor="middle" x="113" y="-99.8" font-family="Times,serif" font-size="14.00" fill="#000000">FileManagerService</text>
</g>
<!-- FileManagerService&#45;&gt;FuseFileManagerModule -->
<g id="edge6" class="edge">
<title>FileManagerService&#45;&gt;FuseFileManagerModule</title>
<path fill="none" stroke="#000000" d="M113,-122.2843C113,-143.3211 113,-175 113,-175 113,-175 529.371,-175 529.371,-175"/>
<polygon fill="#000000" stroke="#000000" points="529.371,-178.5001 539.371,-175 529.3709,-171.5001 529.371,-178.5001"/>
</g>
</g>
</svg>
