<?xml version="1.0" encoding="UTF-8" standalone="no"?>
<!DOCTYPE svg PUBLIC "-//W3C//DTD SVG 1.1//EN"
 "http://www.w3.org/Graphics/SVG/1.1/DTD/svg11.dtd">
<!-- Generated by graphviz version 2.40.1 (20161225.0304)
 -->
<!-- Title: dependencies Pages: 1 -->
<svg width="534pt" height="211pt"
 viewBox="0.00 0.00 534.00 211.00" xmlns="http://www.w3.org/2000/svg" xmlns:xlink="http://www.w3.org/1999/xlink">
<g id="graph0" class="graph" transform="scale(1 1) rotate(0) translate(4 207)">
<title>dependencies</title>
<polygon fill="#ffffff" stroke="transparent" points="-4,4 -4,-207 530,-207 530,4 -4,4"/>
<text text-anchor="start" x="242.0091" y="-42.4" font-family="sans-serif" font-weight="bold" font-size="14.00" fill="#000000">Legend</text>
<polygon fill="#ffffb3" stroke="transparent" points="29,-10 29,-30 49,-30 49,-10 29,-10"/>
<text text-anchor="start" x="52.629" y="-15.4" font-family="sans-serif" font-size="14.00" fill="#000000"> &#160;Declarations</text>
<polygon fill="#8dd3c7" stroke="transparent" points="142,-10 142,-30 162,-30 162,-10 142,-10"/>
<text text-anchor="start" x="165.7251" y="-15.4" font-family="sans-serif" font-size="14.00" fill="#000000"> &#160;Module</text>
<polygon fill="#80b1d3" stroke="transparent" points="228,-10 228,-30 248,-30 248,-10 228,-10"/>
<text text-anchor="start" x="251.7812" y="-15.4" font-family="sans-serif" font-size="14.00" fill="#000000"> &#160;Bootstrap</text>
<polygon fill="#fdb462" stroke="transparent" points="325,-10 325,-30 345,-30 345,-10 325,-10"/>
<text text-anchor="start" x="348.6732" y="-15.4" font-family="sans-serif" font-size="14.00" fill="#000000"> &#160;Providers</text>
<polygon fill="#fb8072" stroke="transparent" points="421,-10 421,-30 441,-30 441,-10 421,-10"/>
<text text-anchor="start" x="444.7258" y="-15.4" font-family="sans-serif" font-size="14.00" fill="#000000"> &#160;Exports</text>
<g id="clust1" class="cluster">
<title>cluster_InvoiceModernModule</title>
<polygon fill="none" stroke="#000000" stroke-dasharray="1,5" points="8,-70 8,-195 518,-195 518,-70 8,-70"/>
</g>
<g id="clust2" class="cluster">
<title>cluster_InvoiceModernModule_declarations</title>
<polygon fill="none" stroke="#000000" points="300,-78 300,-130 510,-130 510,-78 300,-78"/>
</g>
<g id="clust4" class="cluster">
<title>cluster_InvoiceModernModule_imports</title>
<polygon fill="none" stroke="#000000" points="178,-78 178,-130 292,-130 292,-78 178,-78"/>
</g>
<g id="clust7" class="cluster">
<title>cluster_InvoiceModernModule_providers</title>
<polygon fill="none" stroke="#000000" points="16,-78 16,-130 170,-130 170,-78 16,-78"/>
</g>
<!-- FuseInvoiceModernComponent -->
<g id="node1" class="node">
<title>FuseInvoiceModernComponent</title>
<polygon fill="#ffffb3" stroke="#000000" points="502.0744,-122 307.9256,-122 307.9256,-86 502.0744,-86 502.0744,-122"/>
<text text-anchor="middle" x="405" y="-99.8" font-family="Times,serif" font-size="14.00" fill="#000000">FuseInvoiceModernComponent</text>
</g>
<!-- InvoiceModernModule -->
<g id="node2" class="node">
<title>InvoiceModernModule</title>
<polygon fill="#8dd3c7" stroke="#000000" points="307.8501,-187 304.8501,-191 283.8501,-191 280.8501,-187 162.1499,-187 162.1499,-151 307.8501,-151 307.8501,-187"/>
<text text-anchor="middle" x="235" y="-164.8" font-family="Times,serif" font-size="14.00" fill="#000000">InvoiceModernModule</text>
</g>
<!-- FuseInvoiceModernComponent&#45;&gt;InvoiceModernModule -->
<g id="edge1" class="edge">
<title>FuseInvoiceModernComponent&#45;&gt;InvoiceModernModule</title>
<path fill="none" stroke="#000000" d="M307.7257,-104C300.5626,-104 296.068,-104 296.068,-104 296.068,-104 296.068,-140.8939 296.068,-140.8939"/>
<polygon fill="#000000" stroke="#000000" points="292.5681,-140.8938 296.068,-150.8939 299.5681,-140.8939 292.5681,-140.8938"/>
</g>
<!-- SharedModule -->
<g id="node3" class="node">
<title>SharedModule</title>
<polygon fill="#8dd3c7" stroke="#000000" points="284.4231,-122 281.4231,-126 260.4231,-126 257.4231,-122 185.5769,-122 185.5769,-86 284.4231,-86 284.4231,-122"/>
<text text-anchor="middle" x="235" y="-99.8" font-family="Times,serif" font-size="14.00" fill="#000000">SharedModule</text>
</g>
<!-- SharedModule&#45;&gt;InvoiceModernModule -->
<g id="edge2" class="edge">
<title>SharedModule&#45;&gt;InvoiceModernModule</title>
<path fill="none" stroke="#000000" d="M235,-122.1061C235,-122.1061 235,-140.991 235,-140.991"/>
<polygon fill="#000000" stroke="#000000" points="231.5001,-140.9909 235,-150.991 238.5001,-140.991 231.5001,-140.9909"/>
</g>
<!-- InvoiceService -->
<g id="node4" class="node">
<title>InvoiceService</title>
<ellipse fill="#fdb462" stroke="#000000" cx="93" cy="-104" rx="68.8984" ry="18"/>
<text text-anchor="middle" x="93" y="-99.8" font-family="Times,serif" font-size="14.00" fill="#000000">InvoiceService</text>
</g>
<!-- InvoiceService&#45;&gt;InvoiceModernModule -->
<g id="edge3" class="edge">
<title>InvoiceService&#45;&gt;InvoiceModernModule</title>
<path fill="none" stroke="#000000" d="M161.9902,-104C169.1849,-104 173.932,-104 173.932,-104 173.932,-104 173.932,-140.8939 173.932,-140.8939"/>
<polygon fill="#000000" stroke="#000000" points="170.432,-140.8938 173.932,-150.8939 177.432,-140.8939 170.432,-140.8938"/>
</g>
</g>
</svg>
