<?xml version="1.0" encoding="UTF-8" standalone="no"?>
<!DOCTYPE svg PUBLIC "-//W3C//DTD SVG 1.1//EN"
 "http://www.w3.org/Graphics/SVG/1.1/DTD/svg11.dtd">
<!-- Generated by graphviz version 2.40.1 (20161225.0304)
 -->
<!-- Title: dependencies Pages: 1 -->
<svg width="937pt" height="211pt"
 viewBox="0.00 0.00 937.00 211.00" xmlns="http://www.w3.org/2000/svg" xmlns:xlink="http://www.w3.org/1999/xlink">
<g id="graph0" class="graph" transform="scale(1 1) rotate(0) translate(4 207)">
<title>dependencies</title>
<polygon fill="#ffffff" stroke="transparent" points="-4,4 -4,-207 933,-207 933,4 -4,4"/>
<text text-anchor="start" x="443.5091" y="-42.4" font-family="sans-serif" font-weight="bold" font-size="14.00" fill="#000000">Legend</text>
<polygon fill="#ffffb3" stroke="transparent" points="230.5,-10 230.5,-30 250.5,-30 250.5,-10 230.5,-10"/>
<text text-anchor="start" x="254.129" y="-15.4" font-family="sans-serif" font-size="14.00" fill="#000000"> &#160;Declarations</text>
<polygon fill="#8dd3c7" stroke="transparent" points="343.5,-10 343.5,-30 363.5,-30 363.5,-10 343.5,-10"/>
<text text-anchor="start" x="367.2251" y="-15.4" font-family="sans-serif" font-size="14.00" fill="#000000"> &#160;Module</text>
<polygon fill="#80b1d3" stroke="transparent" points="429.5,-10 429.5,-30 449.5,-30 449.5,-10 429.5,-10"/>
<text text-anchor="start" x="453.2812" y="-15.4" font-family="sans-serif" font-size="14.00" fill="#000000"> &#160;Bootstrap</text>
<polygon fill="#fdb462" stroke="transparent" points="526.5,-10 526.5,-30 546.5,-30 546.5,-10 526.5,-10"/>
<text text-anchor="start" x="550.1732" y="-15.4" font-family="sans-serif" font-size="14.00" fill="#000000"> &#160;Providers</text>
<polygon fill="#fb8072" stroke="transparent" points="622.5,-10 622.5,-30 642.5,-30 642.5,-10 622.5,-10"/>
<text text-anchor="start" x="646.2258" y="-15.4" font-family="sans-serif" font-size="14.00" fill="#000000"> &#160;Exports</text>
<g id="clust1" class="cluster">
<title>cluster_UIHelperClassesModule</title>
<polygon fill="none" stroke="#000000" stroke-dasharray="1,5" points="8,-70 8,-195 921,-195 921,-70 8,-70"/>
</g>
<g id="clust2" class="cluster">
<title>cluster_UIHelperClassesModule_declarations</title>
<polygon fill="none" stroke="#000000" points="138,-78 138,-130 913,-130 913,-78 138,-78"/>
</g>
<g id="clust6" class="cluster">
<title>cluster_UIHelperClassesModule_imports</title>
<polygon fill="none" stroke="#000000" points="16,-78 16,-130 130,-130 130,-78 16,-78"/>
</g>
<!-- FuseHelperClassesComponent -->
<g id="node1" class="node">
<title>FuseHelperClassesComponent</title>
<polygon fill="#ffffb3" stroke="#000000" points="904.8515,-122 717.1485,-122 717.1485,-86 904.8515,-86 904.8515,-122"/>
<text text-anchor="middle" x="811" y="-99.8" font-family="Times,serif" font-size="14.00" fill="#000000">FuseHelperClassesComponent</text>
</g>
<!-- UIHelperClassesModule -->
<g id="node4" class="node">
<title>UIHelperClassesModule</title>
<polygon fill="#8dd3c7" stroke="#000000" points="496.3947,-187 493.3947,-191 472.3947,-191 469.3947,-187 341.6053,-187 341.6053,-151 496.3947,-151 496.3947,-187"/>
<text text-anchor="middle" x="419" y="-164.8" font-family="Times,serif" font-size="14.00" fill="#000000">UIHelperClassesModule</text>
</g>
<!-- FuseHelperClassesComponent&#45;&gt;UIHelperClassesModule -->
<g id="edge1" class="edge">
<title>FuseHelperClassesComponent&#45;&gt;UIHelperClassesModule</title>
<path fill="none" stroke="#000000" d="M811,-122.1061C811,-141.3391 811,-169 811,-169 811,-169 506.4466,-169 506.4466,-169"/>
<polygon fill="#000000" stroke="#000000" points="506.4466,-165.5001 496.4466,-169 506.4466,-172.5001 506.4466,-165.5001"/>
</g>
<!-- FuseHelperClassesPaddingMarginComponent -->
<g id="node2" class="node">
<title>FuseHelperClassesPaddingMarginComponent</title>
<polygon fill="#ffffb3" stroke="#000000" points="699.4496,-122 424.5504,-122 424.5504,-86 699.4496,-86 699.4496,-122"/>
<text text-anchor="middle" x="562" y="-99.8" font-family="Times,serif" font-size="14.00" fill="#000000">FuseHelperClassesPaddingMarginComponent</text>
</g>
<!-- FuseHelperClassesPaddingMarginComponent&#45;&gt;UIHelperClassesModule -->
<g id="edge2" class="edge">
<title>FuseHelperClassesPaddingMarginComponent&#45;&gt;UIHelperClassesModule</title>
<path fill="none" stroke="#000000" d="M460.3612,-122.1061C460.3612,-122.1061 460.3612,-140.991 460.3612,-140.991"/>
<polygon fill="#000000" stroke="#000000" points="456.8612,-140.9909 460.3612,-150.991 463.8612,-140.991 456.8612,-140.9909"/>
</g>
<!-- FuseHelperClassesWidthHeightComponent -->
<g id="node3" class="node">
<title>FuseHelperClassesWidthHeightComponent</title>
<polygon fill="#ffffb3" stroke="#000000" points="406.4496,-122 145.5504,-122 145.5504,-86 406.4496,-86 406.4496,-122"/>
<text text-anchor="middle" x="276" y="-99.8" font-family="Times,serif" font-size="14.00" fill="#000000">FuseHelperClassesWidthHeightComponent</text>
</g>
<!-- FuseHelperClassesWidthHeightComponent&#45;&gt;UIHelperClassesModule -->
<g id="edge3" class="edge">
<title>FuseHelperClassesWidthHeightComponent&#45;&gt;UIHelperClassesModule</title>
<path fill="none" stroke="#000000" d="M374.1389,-122.1061C374.1389,-122.1061 374.1389,-140.991 374.1389,-140.991"/>
<polygon fill="#000000" stroke="#000000" points="370.6389,-140.9909 374.1389,-150.991 377.6389,-140.991 370.6389,-140.9909"/>
</g>
<!-- SharedModule -->
<g id="node5" class="node">
<title>SharedModule</title>
<polygon fill="#8dd3c7" stroke="#000000" points="122.4231,-122 119.4231,-126 98.4231,-126 95.4231,-122 23.5769,-122 23.5769,-86 122.4231,-86 122.4231,-122"/>
<text text-anchor="middle" x="73" y="-99.8" font-family="Times,serif" font-size="14.00" fill="#000000">SharedModule</text>
</g>
<!-- SharedModule&#45;&gt;UIHelperClassesModule -->
<g id="edge4" class="edge">
<title>SharedModule&#45;&gt;UIHelperClassesModule</title>
<path fill="none" stroke="#000000" d="M73,-122.1061C73,-141.3391 73,-169 73,-169 73,-169 331.7815,-169 331.7815,-169"/>
<polygon fill="#000000" stroke="#000000" points="331.7815,-172.5001 341.7815,-169 331.7815,-165.5001 331.7815,-172.5001"/>
</g>
</g>
</svg>
