<?xml version="1.0" encoding="UTF-8" standalone="no"?>
<!DOCTYPE svg PUBLIC "-//W3C//DTD SVG 1.1//EN"
 "http://www.w3.org/Graphics/SVG/1.1/DTD/svg11.dtd">
<!-- Generated by graphviz version 2.40.1 (20161225.0304)
 -->
<!-- Title: dependencies Pages: 1 -->
<svg width="1135pt" height="211pt"
 viewBox="0.00 0.00 1135.00 211.00" xmlns="http://www.w3.org/2000/svg" xmlns:xlink="http://www.w3.org/1999/xlink">
<g id="graph0" class="graph" transform="scale(1 1) rotate(0) translate(4 207)">
<title>dependencies</title>
<polygon fill="#ffffff" stroke="transparent" points="-4,4 -4,-207 1131,-207 1131,4 -4,4"/>
<text text-anchor="start" x="542.5091" y="-42.4" font-family="sans-serif" font-weight="bold" font-size="14.00" fill="#000000">Legend</text>
<polygon fill="#ffffb3" stroke="transparent" points="329.5,-10 329.5,-30 349.5,-30 349.5,-10 329.5,-10"/>
<text text-anchor="start" x="353.129" y="-15.4" font-family="sans-serif" font-size="14.00" fill="#000000"> &#160;Declarations</text>
<polygon fill="#8dd3c7" stroke="transparent" points="442.5,-10 442.5,-30 462.5,-30 462.5,-10 442.5,-10"/>
<text text-anchor="start" x="466.2251" y="-15.4" font-family="sans-serif" font-size="14.00" fill="#000000"> &#160;Module</text>
<polygon fill="#80b1d3" stroke="transparent" points="528.5,-10 528.5,-30 548.5,-30 548.5,-10 528.5,-10"/>
<text text-anchor="start" x="552.2812" y="-15.4" font-family="sans-serif" font-size="14.00" fill="#000000"> &#160;Bootstrap</text>
<polygon fill="#fdb462" stroke="transparent" points="625.5,-10 625.5,-30 645.5,-30 645.5,-10 625.5,-10"/>
<text text-anchor="start" x="649.1732" y="-15.4" font-family="sans-serif" font-size="14.00" fill="#000000"> &#160;Providers</text>
<polygon fill="#fb8072" stroke="transparent" points="721.5,-10 721.5,-30 741.5,-30 741.5,-10 721.5,-10"/>
<text text-anchor="start" x="745.2258" y="-15.4" font-family="sans-serif" font-size="14.00" fill="#000000"> &#160;Exports</text>
<g id="clust1" class="cluster">
<title>cluster_ProfileModule</title>
<polygon fill="none" stroke="#000000" stroke-dasharray="1,5" points="8,-70 8,-195 1119,-195 1119,-70 8,-70"/>
</g>
<g id="clust2" class="cluster">
<title>cluster_ProfileModule_declarations</title>
<polygon fill="none" stroke="#000000" points="294,-78 294,-130 1111,-130 1111,-78 294,-78"/>
</g>
<g id="clust7" class="cluster">
<title>cluster_ProfileModule_imports</title>
<polygon fill="none" stroke="#000000" points="172,-78 172,-130 286,-130 286,-78 172,-78"/>
</g>
<g id="clust10" class="cluster">
<title>cluster_ProfileModule_providers</title>
<polygon fill="none" stroke="#000000" points="16,-78 16,-130 164,-130 164,-78 16,-78"/>
</g>
<!-- FuseProfileComponent -->
<g id="node1" class="node">
<title>FuseProfileComponent</title>
<polygon fill="#ffffb3" stroke="#000000" points="1102.8739,-122 957.1261,-122 957.1261,-86 1102.8739,-86 1102.8739,-122"/>
<text text-anchor="middle" x="1030" y="-99.8" font-family="Times,serif" font-size="14.00" fill="#000000">FuseProfileComponent</text>
</g>
<!-- ProfileModule -->
<g id="node5" class="node">
<title>ProfileModule</title>
<polygon fill="#8dd3c7" stroke="#000000" points="572.65,-187 569.65,-191 548.65,-191 545.65,-187 475.35,-187 475.35,-151 572.65,-151 572.65,-187"/>
<text text-anchor="middle" x="524" y="-164.8" font-family="Times,serif" font-size="14.00" fill="#000000">ProfileModule</text>
</g>
<!-- FuseProfileComponent&#45;&gt;ProfileModule -->
<g id="edge1" class="edge">
<title>FuseProfileComponent&#45;&gt;ProfileModule</title>
<path fill="none" stroke="#000000" d="M1030,-122.2843C1030,-143.3211 1030,-175 1030,-175 1030,-175 582.9772,-175 582.9772,-175"/>
<polygon fill="#000000" stroke="#000000" points="582.9772,-171.5001 572.9772,-175 582.9771,-178.5001 582.9772,-171.5001"/>
</g>
<!-- FuseProfileTimelineComponent -->
<g id="node2" class="node">
<title>FuseProfileTimelineComponent</title>
<polygon fill="#ffffb3" stroke="#000000" points="939.4184,-122 742.5816,-122 742.5816,-86 939.4184,-86 939.4184,-122"/>
<text text-anchor="middle" x="841" y="-99.8" font-family="Times,serif" font-size="14.00" fill="#000000">FuseProfileTimelineComponent</text>
</g>
<!-- FuseProfileTimelineComponent&#45;&gt;ProfileModule -->
<g id="edge2" class="edge">
<title>FuseProfileTimelineComponent&#45;&gt;ProfileModule</title>
<path fill="none" stroke="#000000" d="M841,-122.0225C841,-139.3734 841,-163 841,-163 841,-163 582.8365,-163 582.8365,-163"/>
<polygon fill="#000000" stroke="#000000" points="582.8366,-159.5001 572.8365,-163 582.8365,-166.5001 582.8366,-159.5001"/>
</g>
<!-- FuseProfileAboutComponent -->
<g id="node3" class="node">
<title>FuseProfileAboutComponent</title>
<polygon fill="#ffffb3" stroke="#000000" points="724.371,-122 543.629,-122 543.629,-86 724.371,-86 724.371,-122"/>
<text text-anchor="middle" x="634" y="-99.8" font-family="Times,serif" font-size="14.00" fill="#000000">FuseProfileAboutComponent</text>
</g>
<!-- FuseProfileAboutComponent&#45;&gt;ProfileModule -->
<g id="edge3" class="edge">
<title>FuseProfileAboutComponent&#45;&gt;ProfileModule</title>
<path fill="none" stroke="#000000" d="M558.1946,-122.1061C558.1946,-122.1061 558.1946,-140.991 558.1946,-140.991"/>
<polygon fill="#000000" stroke="#000000" points="554.6947,-140.9909 558.1946,-150.991 561.6947,-140.991 554.6947,-140.9909"/>
</g>
<!-- FuseProfilePhotosVideosComponent -->
<g id="node4" class="node">
<title>FuseProfilePhotosVideosComponent</title>
<polygon fill="#ffffb3" stroke="#000000" points="525.6483,-122 302.3517,-122 302.3517,-86 525.6483,-86 525.6483,-122"/>
<text text-anchor="middle" x="414" y="-99.8" font-family="Times,serif" font-size="14.00" fill="#000000">FuseProfilePhotosVideosComponent</text>
</g>
<!-- FuseProfilePhotosVideosComponent&#45;&gt;ProfileModule -->
<g id="edge4" class="edge">
<title>FuseProfilePhotosVideosComponent&#45;&gt;ProfileModule</title>
<path fill="none" stroke="#000000" d="M500.4997,-122.1061C500.4997,-122.1061 500.4997,-140.991 500.4997,-140.991"/>
<polygon fill="#000000" stroke="#000000" points="496.9997,-140.9909 500.4997,-150.991 503.9997,-140.991 496.9997,-140.9909"/>
</g>
<!-- SharedModule -->
<g id="node6" class="node">
<title>SharedModule</title>
<polygon fill="#8dd3c7" stroke="#000000" points="278.4231,-122 275.4231,-126 254.4231,-126 251.4231,-122 179.5769,-122 179.5769,-86 278.4231,-86 278.4231,-122"/>
<text text-anchor="middle" x="229" y="-99.8" font-family="Times,serif" font-size="14.00" fill="#000000">SharedModule</text>
</g>
<!-- SharedModule&#45;&gt;ProfileModule -->
<g id="edge5" class="edge">
<title>SharedModule&#45;&gt;ProfileModule</title>
<path fill="none" stroke="#000000" d="M229,-122.0225C229,-139.3734 229,-163 229,-163 229,-163 465.2867,-163 465.2867,-163"/>
<polygon fill="#000000" stroke="#000000" points="465.2868,-166.5001 475.2867,-163 465.2867,-159.5001 465.2868,-166.5001"/>
</g>
<!-- ProfileService -->
<g id="node7" class="node">
<title>ProfileService</title>
<ellipse fill="#fdb462" stroke="#000000" cx="90" cy="-104" rx="66.0454" ry="18"/>
<text text-anchor="middle" x="90" y="-99.8" font-family="Times,serif" font-size="14.00" fill="#000000">ProfileService</text>
</g>
<!-- ProfileService&#45;&gt;ProfileModule -->
<g id="edge6" class="edge">
<title>ProfileService&#45;&gt;ProfileModule</title>
<path fill="none" stroke="#000000" d="M90,-122.2843C90,-143.3211 90,-175 90,-175 90,-175 465.0583,-175 465.0583,-175"/>
<polygon fill="#000000" stroke="#000000" points="465.0584,-178.5001 475.0583,-175 465.0583,-171.5001 465.0584,-178.5001"/>
</g>
</g>
</svg>
