<?xml version="1.0" encoding="UTF-8" standalone="no"?>
<!DOCTYPE svg PUBLIC "-//W3C//DTD SVG 1.1//EN"
 "http://www.w3.org/Graphics/SVG/1.1/DTD/svg11.dtd">
<!-- Generated by graphviz version 2.40.1 (20161225.0304)
 -->
<!-- Title: dependencies Pages: 1 -->
<svg width="504pt" height="284pt"
 viewBox="0.00 0.00 504.00 284.00" xmlns="http://www.w3.org/2000/svg" xmlns:xlink="http://www.w3.org/1999/xlink">
<g id="graph0" class="graph" transform="scale(1 1) rotate(0) translate(4 280)">
<title>dependencies</title>
<polygon fill="#ffffff" stroke="transparent" points="-4,4 -4,-280 500,-280 500,4 -4,4"/>
<text text-anchor="start" x="227.0091" y="-42.4" font-family="sans-serif" font-weight="bold" font-size="14.00" fill="#000000">Legend</text>
<polygon fill="#ffffb3" stroke="transparent" points="14,-10 14,-30 34,-30 34,-10 14,-10"/>
<text text-anchor="start" x="37.629" y="-15.4" font-family="sans-serif" font-size="14.00" fill="#000000"> &#160;Declarations</text>
<polygon fill="#8dd3c7" stroke="transparent" points="127,-10 127,-30 147,-30 147,-10 127,-10"/>
<text text-anchor="start" x="150.7251" y="-15.4" font-family="sans-serif" font-size="14.00" fill="#000000"> &#160;Module</text>
<polygon fill="#80b1d3" stroke="transparent" points="213,-10 213,-30 233,-30 233,-10 213,-10"/>
<text text-anchor="start" x="236.7812" y="-15.4" font-family="sans-serif" font-size="14.00" fill="#000000"> &#160;Bootstrap</text>
<polygon fill="#fdb462" stroke="transparent" points="310,-10 310,-30 330,-30 330,-10 310,-10"/>
<text text-anchor="start" x="333.6732" y="-15.4" font-family="sans-serif" font-size="14.00" fill="#000000"> &#160;Providers</text>
<polygon fill="#fb8072" stroke="transparent" points="406,-10 406,-30 426,-30 426,-10 406,-10"/>
<text text-anchor="start" x="429.7258" y="-15.4" font-family="sans-serif" font-size="14.00" fill="#000000"> &#160;Exports</text>
<g id="clust1" class="cluster">
<title>cluster_FuseShortcutsModule</title>
<polygon fill="none" stroke="#000000" stroke-dasharray="1,5" points="91,-70 91,-268 405,-268 405,-70 91,-70"/>
</g>
<g id="clust2" class="cluster">
<title>cluster_FuseShortcutsModule_declarations</title>
<polygon fill="none" stroke="#000000" points="221,-78 221,-130 397,-130 397,-78 221,-78"/>
</g>
<g id="clust4" class="cluster">
<title>cluster_FuseShortcutsModule_imports</title>
<polygon fill="none" stroke="#000000" points="99,-78 99,-130 213,-130 213,-78 99,-78"/>
</g>
<g id="clust5" class="cluster">
<title>cluster_FuseShortcutsModule_exports</title>
<polygon fill="none" stroke="#000000" points="158,-208 158,-260 338,-260 338,-208 158,-208"/>
</g>
<!-- FuseShortcutsComponent -->
<g id="node1" class="node">
<title>FuseShortcutsComponent</title>
<polygon fill="#ffffb3" stroke="#000000" points="389.1582,-122 228.8418,-122 228.8418,-86 389.1582,-86 389.1582,-122"/>
<text text-anchor="middle" x="309" y="-99.8" font-family="Times,serif" font-size="14.00" fill="#000000">FuseShortcutsComponent</text>
</g>
<!-- FuseShortcutsModule -->
<g id="node2" class="node">
<title>FuseShortcutsModule</title>
<polygon fill="#8dd3c7" stroke="#000000" points="317.3753,-187 314.3753,-191 293.3753,-191 290.3753,-187 178.6247,-187 178.6247,-151 317.3753,-151 317.3753,-187"/>
<text text-anchor="middle" x="248" y="-164.8" font-family="Times,serif" font-size="14.00" fill="#000000">FuseShortcutsModule</text>
</g>
<!-- FuseShortcutsComponent&#45;&gt;FuseShortcutsModule -->
<g id="edge1" class="edge">
<title>FuseShortcutsComponent&#45;&gt;FuseShortcutsModule</title>
<path fill="none" stroke="#000000" d="M273.0544,-122.1061C273.0544,-122.1061 273.0544,-140.991 273.0544,-140.991"/>
<polygon fill="#000000" stroke="#000000" points="269.5544,-140.9909 273.0544,-150.991 276.5544,-140.991 269.5544,-140.9909"/>
</g>
<!-- FuseShortcutsComponent  -->
<g id="node4" class="node">
<title>FuseShortcutsComponent </title>
<polygon fill="#fb8072" stroke="#000000" points="330.1579,-252 165.8421,-252 165.8421,-216 330.1579,-216 330.1579,-252"/>
<text text-anchor="middle" x="248" y="-229.8" font-family="Times,serif" font-size="14.00" fill="#000000">FuseShortcutsComponent </text>
</g>
<!-- FuseShortcutsModule&#45;&gt;FuseShortcutsComponent  -->
<g id="edge3" class="edge">
<title>FuseShortcutsModule&#45;&gt;FuseShortcutsComponent </title>
<path fill="none" stroke="#000000" stroke-dasharray="5,2" d="M248,-187.1061C248,-187.1061 248,-205.991 248,-205.991"/>
<polygon fill="#000000" stroke="#000000" points="244.5001,-205.9909 248,-215.991 251.5001,-205.991 244.5001,-205.9909"/>
</g>
<!-- SharedModule -->
<g id="node3" class="node">
<title>SharedModule</title>
<polygon fill="#8dd3c7" stroke="#000000" points="205.4231,-122 202.4231,-126 181.4231,-126 178.4231,-122 106.5769,-122 106.5769,-86 205.4231,-86 205.4231,-122"/>
<text text-anchor="middle" x="156" y="-99.8" font-family="Times,serif" font-size="14.00" fill="#000000">SharedModule</text>
</g>
<!-- SharedModule&#45;&gt;FuseShortcutsModule -->
<g id="edge2" class="edge">
<title>SharedModule&#45;&gt;FuseShortcutsModule</title>
<path fill="none" stroke="#000000" d="M191.8868,-122.1061C191.8868,-122.1061 191.8868,-140.991 191.8868,-140.991"/>
<polygon fill="#000000" stroke="#000000" points="188.3868,-140.9909 191.8868,-150.991 195.3868,-140.991 188.3868,-140.9909"/>
</g>
</g>
</svg>
