<?xml version="1.0" encoding="UTF-8" standalone="no"?>
<!DOCTYPE svg PUBLIC "-//W3C//DTD SVG 1.1//EN"
 "http://www.w3.org/Graphics/SVG/1.1/DTD/svg11.dtd">
<!-- Generated by graphviz version 2.40.1 (20161225.0304)
 -->
<!-- Title: dependencies Pages: 1 -->
<svg width="788pt" height="211pt"
 viewBox="0.00 0.00 788.00 211.00" xmlns="http://www.w3.org/2000/svg" xmlns:xlink="http://www.w3.org/1999/xlink">
<g id="graph0" class="graph" transform="scale(1 1) rotate(0) translate(4 207)">
<title>dependencies</title>
<polygon fill="#ffffff" stroke="transparent" points="-4,4 -4,-207 784,-207 784,4 -4,4"/>
<text text-anchor="start" x="369.0091" y="-42.4" font-family="sans-serif" font-weight="bold" font-size="14.00" fill="#000000">Legend</text>
<polygon fill="#ffffb3" stroke="transparent" points="156,-10 156,-30 176,-30 176,-10 156,-10"/>
<text text-anchor="start" x="179.629" y="-15.4" font-family="sans-serif" font-size="14.00" fill="#000000"> &#160;Declarations</text>
<polygon fill="#8dd3c7" stroke="transparent" points="269,-10 269,-30 289,-30 289,-10 269,-10"/>
<text text-anchor="start" x="292.7251" y="-15.4" font-family="sans-serif" font-size="14.00" fill="#000000"> &#160;Module</text>
<polygon fill="#80b1d3" stroke="transparent" points="355,-10 355,-30 375,-30 375,-10 355,-10"/>
<text text-anchor="start" x="378.7812" y="-15.4" font-family="sans-serif" font-size="14.00" fill="#000000"> &#160;Bootstrap</text>
<polygon fill="#fdb462" stroke="transparent" points="452,-10 452,-30 472,-30 472,-10 452,-10"/>
<text text-anchor="start" x="475.6732" y="-15.4" font-family="sans-serif" font-size="14.00" fill="#000000"> &#160;Providers</text>
<polygon fill="#fb8072" stroke="transparent" points="548,-10 548,-30 568,-30 568,-10 548,-10"/>
<text text-anchor="start" x="571.7258" y="-15.4" font-family="sans-serif" font-size="14.00" fill="#000000"> &#160;Exports</text>
<g id="clust1" class="cluster">
<title>cluster_FuseCalendarModule</title>
<polygon fill="none" stroke="#000000" stroke-dasharray="1,5" points="8,-70 8,-195 772,-195 772,-70 8,-70"/>
</g>
<g id="clust2" class="cluster">
<title>cluster_FuseCalendarModule_declarations</title>
<polygon fill="none" stroke="#000000" points="312,-78 312,-130 764,-130 764,-78 312,-78"/>
</g>
<g id="clust5" class="cluster">
<title>cluster_FuseCalendarModule_imports</title>
<polygon fill="none" stroke="#000000" points="190,-78 190,-130 304,-130 304,-78 190,-78"/>
</g>
<g id="clust8" class="cluster">
<title>cluster_FuseCalendarModule_providers</title>
<polygon fill="none" stroke="#000000" points="16,-78 16,-130 182,-130 182,-78 16,-78"/>
</g>
<!-- FuseCalendarComponent -->
<g id="node1" class="node">
<title>FuseCalendarComponent</title>
<polygon fill="#ffffb3" stroke="#000000" points="756.3061,-122 597.6939,-122 597.6939,-86 756.3061,-86 756.3061,-122"/>
<text text-anchor="middle" x="677" y="-99.8" font-family="Times,serif" font-size="14.00" fill="#000000">FuseCalendarComponent</text>
</g>
<!-- FuseCalendarModule -->
<g id="node3" class="node">
<title>FuseCalendarModule</title>
<polygon fill="#8dd3c7" stroke="#000000" points="416.024,-187 413.024,-191 392.024,-191 389.024,-187 279.976,-187 279.976,-151 416.024,-151 416.024,-187"/>
<text text-anchor="middle" x="348" y="-164.8" font-family="Times,serif" font-size="14.00" fill="#000000">FuseCalendarModule</text>
</g>
<!-- FuseCalendarComponent&#45;&gt;FuseCalendarModule -->
<g id="edge1" class="edge">
<title>FuseCalendarComponent&#45;&gt;FuseCalendarModule</title>
<path fill="none" stroke="#000000" d="M677,-122.1061C677,-141.3391 677,-169 677,-169 677,-169 426.169,-169 426.169,-169"/>
<polygon fill="#000000" stroke="#000000" points="426.169,-165.5001 416.169,-169 426.169,-172.5001 426.169,-165.5001"/>
</g>
<!-- FuseCalendarEventFormDialogComponent -->
<g id="node2" class="node">
<title>FuseCalendarEventFormDialogComponent</title>
<polygon fill="#ffffb3" stroke="#000000" points="579.9001,-122 320.0999,-122 320.0999,-86 579.9001,-86 579.9001,-122"/>
<text text-anchor="middle" x="450" y="-99.8" font-family="Times,serif" font-size="14.00" fill="#000000">FuseCalendarEventFormDialogComponent</text>
</g>
<!-- FuseCalendarEventFormDialogComponent&#45;&gt;FuseCalendarModule -->
<g id="edge2" class="edge">
<title>FuseCalendarEventFormDialogComponent&#45;&gt;FuseCalendarModule</title>
<path fill="none" stroke="#000000" d="M368.2809,-122.1061C368.2809,-122.1061 368.2809,-140.991 368.2809,-140.991"/>
<polygon fill="#000000" stroke="#000000" points="364.7809,-140.9909 368.2809,-150.991 371.7809,-140.991 364.7809,-140.9909"/>
</g>
<!-- SharedModule -->
<g id="node4" class="node">
<title>SharedModule</title>
<polygon fill="#8dd3c7" stroke="#000000" points="296.4231,-122 293.4231,-126 272.4231,-126 269.4231,-122 197.5769,-122 197.5769,-86 296.4231,-86 296.4231,-122"/>
<text text-anchor="middle" x="247" y="-99.8" font-family="Times,serif" font-size="14.00" fill="#000000">SharedModule</text>
</g>
<!-- SharedModule&#45;&gt;FuseCalendarModule -->
<g id="edge3" class="edge">
<title>SharedModule&#45;&gt;FuseCalendarModule</title>
<path fill="none" stroke="#000000" d="M287.9747,-122.1061C287.9747,-122.1061 287.9747,-140.991 287.9747,-140.991"/>
<polygon fill="#000000" stroke="#000000" points="284.4748,-140.9909 287.9747,-150.991 291.4748,-140.991 284.4748,-140.9909"/>
</g>
<!-- CalendarService -->
<g id="node5" class="node">
<title>CalendarService</title>
<ellipse fill="#fdb462" stroke="#000000" cx="99" cy="-104" rx="74.6956" ry="18"/>
<text text-anchor="middle" x="99" y="-99.8" font-family="Times,serif" font-size="14.00" fill="#000000">CalendarService</text>
</g>
<!-- CalendarService&#45;&gt;FuseCalendarModule -->
<g id="edge4" class="edge">
<title>CalendarService&#45;&gt;FuseCalendarModule</title>
<path fill="none" stroke="#000000" d="M99,-122.1061C99,-141.3391 99,-169 99,-169 99,-169 269.9597,-169 269.9597,-169"/>
<polygon fill="#000000" stroke="#000000" points="269.9597,-172.5001 279.9597,-169 269.9596,-165.5001 269.9597,-172.5001"/>
</g>
</g>
</svg>
