<?xml version="1.0" encoding="UTF-8" standalone="no"?>
<!DOCTYPE svg PUBLIC "-//W3C//DTD SVG 1.1//EN"
 "http://www.w3.org/Graphics/SVG/1.1/DTD/svg11.dtd">
<!-- Generated by graphviz version 2.40.1 (20161225.0304)
 -->
<!-- Title: dependencies Pages: 1 -->
<svg width="540pt" height="211pt"
 viewBox="0.00 0.00 540.00 211.00" xmlns="http://www.w3.org/2000/svg" xmlns:xlink="http://www.w3.org/1999/xlink">
<g id="graph0" class="graph" transform="scale(1 1) rotate(0) translate(4 207)">
<title>dependencies</title>
<polygon fill="#ffffff" stroke="transparent" points="-4,4 -4,-207 536,-207 536,4 -4,4"/>
<text text-anchor="start" x="245.0091" y="-42.4" font-family="sans-serif" font-weight="bold" font-size="14.00" fill="#000000">Legend</text>
<polygon fill="#ffffb3" stroke="transparent" points="32,-10 32,-30 52,-30 52,-10 32,-10"/>
<text text-anchor="start" x="55.629" y="-15.4" font-family="sans-serif" font-size="14.00" fill="#000000"> &#160;Declarations</text>
<polygon fill="#8dd3c7" stroke="transparent" points="145,-10 145,-30 165,-30 165,-10 145,-10"/>
<text text-anchor="start" x="168.7251" y="-15.4" font-family="sans-serif" font-size="14.00" fill="#000000"> &#160;Module</text>
<polygon fill="#80b1d3" stroke="transparent" points="231,-10 231,-30 251,-30 251,-10 231,-10"/>
<text text-anchor="start" x="254.7812" y="-15.4" font-family="sans-serif" font-size="14.00" fill="#000000"> &#160;Bootstrap</text>
<polygon fill="#fdb462" stroke="transparent" points="328,-10 328,-30 348,-30 348,-10 328,-10"/>
<text text-anchor="start" x="351.6732" y="-15.4" font-family="sans-serif" font-size="14.00" fill="#000000"> &#160;Providers</text>
<polygon fill="#fb8072" stroke="transparent" points="424,-10 424,-30 444,-30 444,-10 424,-10"/>
<text text-anchor="start" x="447.7258" y="-15.4" font-family="sans-serif" font-size="14.00" fill="#000000"> &#160;Exports</text>
<g id="clust1" class="cluster">
<title>cluster_InvoiceCompactModule</title>
<polygon fill="none" stroke="#000000" stroke-dasharray="1,5" points="8,-70 8,-195 524,-195 524,-70 8,-70"/>
</g>
<g id="clust2" class="cluster">
<title>cluster_InvoiceCompactModule_declarations</title>
<polygon fill="none" stroke="#000000" points="300,-78 300,-130 516,-130 516,-78 300,-78"/>
</g>
<g id="clust4" class="cluster">
<title>cluster_InvoiceCompactModule_imports</title>
<polygon fill="none" stroke="#000000" points="178,-78 178,-130 292,-130 292,-78 178,-78"/>
</g>
<g id="clust7" class="cluster">
<title>cluster_InvoiceCompactModule_providers</title>
<polygon fill="none" stroke="#000000" points="16,-78 16,-130 170,-130 170,-78 16,-78"/>
</g>
<!-- FuseInvoiceCompactComponent -->
<g id="node1" class="node">
<title>FuseInvoiceCompactComponent</title>
<polygon fill="#ffffb3" stroke="#000000" points="508.3018,-122 307.6982,-122 307.6982,-86 508.3018,-86 508.3018,-122"/>
<text text-anchor="middle" x="408" y="-99.8" font-family="Times,serif" font-size="14.00" fill="#000000">FuseInvoiceCompactComponent</text>
</g>
<!-- InvoiceCompactModule -->
<g id="node2" class="node">
<title>InvoiceCompactModule</title>
<polygon fill="#8dd3c7" stroke="#000000" points="311.0772,-187 308.0772,-191 287.0772,-191 284.0772,-187 158.9228,-187 158.9228,-151 311.0772,-151 311.0772,-187"/>
<text text-anchor="middle" x="235" y="-164.8" font-family="Times,serif" font-size="14.00" fill="#000000">InvoiceCompactModule</text>
</g>
<!-- FuseInvoiceCompactComponent&#45;&gt;InvoiceCompactModule -->
<g id="edge1" class="edge">
<title>FuseInvoiceCompactComponent&#45;&gt;InvoiceCompactModule</title>
<path fill="none" stroke="#000000" d="M307.5912,-104C300.474,-104 296.0302,-104 296.0302,-104 296.0302,-104 296.0302,-140.8939 296.0302,-140.8939"/>
<polygon fill="#000000" stroke="#000000" points="292.5302,-140.8938 296.0302,-150.8939 299.5302,-140.8939 292.5302,-140.8938"/>
</g>
<!-- SharedModule -->
<g id="node3" class="node">
<title>SharedModule</title>
<polygon fill="#8dd3c7" stroke="#000000" points="284.4231,-122 281.4231,-126 260.4231,-126 257.4231,-122 185.5769,-122 185.5769,-86 284.4231,-86 284.4231,-122"/>
<text text-anchor="middle" x="235" y="-99.8" font-family="Times,serif" font-size="14.00" fill="#000000">SharedModule</text>
</g>
<!-- SharedModule&#45;&gt;InvoiceCompactModule -->
<g id="edge2" class="edge">
<title>SharedModule&#45;&gt;InvoiceCompactModule</title>
<path fill="none" stroke="#000000" d="M235,-122.1061C235,-122.1061 235,-140.991 235,-140.991"/>
<polygon fill="#000000" stroke="#000000" points="231.5001,-140.9909 235,-150.991 238.5001,-140.991 231.5001,-140.9909"/>
</g>
<!-- InvoiceService -->
<g id="node4" class="node">
<title>InvoiceService</title>
<ellipse fill="#fdb462" stroke="#000000" cx="93" cy="-104" rx="68.8984" ry="18"/>
<text text-anchor="middle" x="93" y="-99.8" font-family="Times,serif" font-size="14.00" fill="#000000">InvoiceService</text>
</g>
<!-- InvoiceService&#45;&gt;InvoiceCompactModule -->
<g id="edge3" class="edge">
<title>InvoiceService&#45;&gt;InvoiceCompactModule</title>
<path fill="none" stroke="#000000" d="M162.2825,-104C169.2775,-104 173.8691,-104 173.8691,-104 173.8691,-104 173.8691,-140.8939 173.8691,-140.8939"/>
<polygon fill="#000000" stroke="#000000" points="170.3692,-140.8938 173.8691,-150.8939 177.3692,-140.8939 170.3692,-140.8938"/>
</g>
</g>
</svg>
