<?xml version="1.0" encoding="UTF-8" standalone="no"?>
<!DOCTYPE svg PUBLIC "-//W3C//DTD SVG 1.1//EN"
 "http://www.w3.org/Graphics/SVG/1.1/DTD/svg11.dtd">
<!-- Generated by graphviz version 2.40.1 (20161225.0304)
 -->
<!-- Title: dependencies Pages: 1 -->
<svg width="504pt" height="211pt"
 viewBox="0.00 0.00 504.00 211.00" xmlns="http://www.w3.org/2000/svg" xmlns:xlink="http://www.w3.org/1999/xlink">
<g id="graph0" class="graph" transform="scale(1 1) rotate(0) translate(4 207)">
<title>dependencies</title>
<polygon fill="#ffffff" stroke="transparent" points="-4,4 -4,-207 500,-207 500,4 -4,4"/>
<text text-anchor="start" x="227.0091" y="-42.4" font-family="sans-serif" font-weight="bold" font-size="14.00" fill="#000000">Legend</text>
<polygon fill="#ffffb3" stroke="transparent" points="14,-10 14,-30 34,-30 34,-10 14,-10"/>
<text text-anchor="start" x="37.629" y="-15.4" font-family="sans-serif" font-size="14.00" fill="#000000"> &#160;Declarations</text>
<polygon fill="#8dd3c7" stroke="transparent" points="127,-10 127,-30 147,-30 147,-10 127,-10"/>
<text text-anchor="start" x="150.7251" y="-15.4" font-family="sans-serif" font-size="14.00" fill="#000000"> &#160;Module</text>
<polygon fill="#80b1d3" stroke="transparent" points="213,-10 213,-30 233,-30 233,-10 213,-10"/>
<text text-anchor="start" x="236.7812" y="-15.4" font-family="sans-serif" font-size="14.00" fill="#000000"> &#160;Bootstrap</text>
<polygon fill="#fdb462" stroke="transparent" points="310,-10 310,-30 330,-30 330,-10 310,-10"/>
<text text-anchor="start" x="333.6732" y="-15.4" font-family="sans-serif" font-size="14.00" fill="#000000"> &#160;Providers</text>
<polygon fill="#fb8072" stroke="transparent" points="406,-10 406,-30 426,-30 426,-10 406,-10"/>
<text text-anchor="start" x="429.7258" y="-15.4" font-family="sans-serif" font-size="14.00" fill="#000000"> &#160;Exports</text>
<g id="clust1" class="cluster">
<title>cluster_MaintenanceModule</title>
<polygon fill="none" stroke="#000000" stroke-dasharray="1,5" points="81,-70 81,-195 415,-195 415,-70 81,-70"/>
</g>
<g id="clust2" class="cluster">
<title>cluster_MaintenanceModule_declarations</title>
<polygon fill="none" stroke="#000000" points="211,-78 211,-130 407,-130 407,-78 211,-78"/>
</g>
<g id="clust4" class="cluster">
<title>cluster_MaintenanceModule_imports</title>
<polygon fill="none" stroke="#000000" points="89,-78 89,-130 203,-130 203,-78 89,-78"/>
</g>
<!-- FuseMaintenanceComponent -->
<g id="node1" class="node">
<title>FuseMaintenanceComponent</title>
<polygon fill="#ffffb3" stroke="#000000" points="399.073,-122 218.927,-122 218.927,-86 399.073,-86 399.073,-122"/>
<text text-anchor="middle" x="309" y="-99.8" font-family="Times,serif" font-size="14.00" fill="#000000">FuseMaintenanceComponent</text>
</g>
<!-- MaintenanceModule -->
<g id="node2" class="node">
<title>MaintenanceModule</title>
<polygon fill="#8dd3c7" stroke="#000000" points="297.8487,-187 294.8487,-191 273.8487,-191 270.8487,-187 166.1513,-187 166.1513,-151 297.8487,-151 297.8487,-187"/>
<text text-anchor="middle" x="232" y="-164.8" font-family="Times,serif" font-size="14.00" fill="#000000">MaintenanceModule</text>
</g>
<!-- FuseMaintenanceComponent&#45;&gt;MaintenanceModule -->
<g id="edge1" class="edge">
<title>FuseMaintenanceComponent&#45;&gt;MaintenanceModule</title>
<path fill="none" stroke="#000000" d="M258.4439,-122.1061C258.4439,-122.1061 258.4439,-140.991 258.4439,-140.991"/>
<polygon fill="#000000" stroke="#000000" points="254.944,-140.9909 258.4439,-150.991 261.944,-140.991 254.944,-140.9909"/>
</g>
<!-- SharedModule -->
<g id="node3" class="node">
<title>SharedModule</title>
<polygon fill="#8dd3c7" stroke="#000000" points="195.4231,-122 192.4231,-126 171.4231,-126 168.4231,-122 96.5769,-122 96.5769,-86 195.4231,-86 195.4231,-122"/>
<text text-anchor="middle" x="146" y="-99.8" font-family="Times,serif" font-size="14.00" fill="#000000">SharedModule</text>
</g>
<!-- SharedModule&#45;&gt;MaintenanceModule -->
<g id="edge2" class="edge">
<title>SharedModule&#45;&gt;MaintenanceModule</title>
<path fill="none" stroke="#000000" d="M180.6434,-122.1061C180.6434,-122.1061 180.6434,-140.991 180.6434,-140.991"/>
<polygon fill="#000000" stroke="#000000" points="177.1435,-140.9909 180.6434,-150.991 184.1435,-140.991 177.1435,-140.9909"/>
</g>
</g>
</svg>
