<?xml version="1.0" encoding="UTF-8" standalone="no"?>
<!DOCTYPE svg PUBLIC "-//W3C//DTD SVG 1.1//EN"
 "http://www.w3.org/Graphics/SVG/1.1/DTD/svg11.dtd">
<!-- Generated by graphviz version 2.40.1 (20161225.0304)
 -->
<!-- Title: dependencies Pages: 1 -->
<svg width="1067pt" height="211pt"
 viewBox="0.00 0.00 1067.00 211.00" xmlns="http://www.w3.org/2000/svg" xmlns:xlink="http://www.w3.org/1999/xlink">
<g id="graph0" class="graph" transform="scale(1 1) rotate(0) translate(4 207)">
<title>dependencies</title>
<polygon fill="#ffffff" stroke="transparent" points="-4,4 -4,-207 1063,-207 1063,4 -4,4"/>
<text text-anchor="start" x="508.5091" y="-42.4" font-family="sans-serif" font-weight="bold" font-size="14.00" fill="#000000">Legend</text>
<polygon fill="#ffffb3" stroke="transparent" points="295.5,-10 295.5,-30 315.5,-30 315.5,-10 295.5,-10"/>
<text text-anchor="start" x="319.129" y="-15.4" font-family="sans-serif" font-size="14.00" fill="#000000"> &#160;Declarations</text>
<polygon fill="#8dd3c7" stroke="transparent" points="408.5,-10 408.5,-30 428.5,-30 428.5,-10 408.5,-10"/>
<text text-anchor="start" x="432.2251" y="-15.4" font-family="sans-serif" font-size="14.00" fill="#000000"> &#160;Module</text>
<polygon fill="#80b1d3" stroke="transparent" points="494.5,-10 494.5,-30 514.5,-30 514.5,-10 494.5,-10"/>
<text text-anchor="start" x="518.2812" y="-15.4" font-family="sans-serif" font-size="14.00" fill="#000000"> &#160;Bootstrap</text>
<polygon fill="#fdb462" stroke="transparent" points="591.5,-10 591.5,-30 611.5,-30 611.5,-10 591.5,-10"/>
<text text-anchor="start" x="615.1732" y="-15.4" font-family="sans-serif" font-size="14.00" fill="#000000"> &#160;Providers</text>
<polygon fill="#fb8072" stroke="transparent" points="687.5,-10 687.5,-30 707.5,-30 707.5,-10 687.5,-10"/>
<text text-anchor="start" x="711.2258" y="-15.4" font-family="sans-serif" font-size="14.00" fill="#000000"> &#160;Exports</text>
<g id="clust1" class="cluster">
<title>cluster_UIModule</title>
<polygon fill="none" stroke="#000000" stroke-dasharray="1,5" points="8,-70 8,-195 1051,-195 1051,-70 8,-70"/>
</g>
<g id="clust3" class="cluster">
<title>cluster_UIModule_imports</title>
<polygon fill="none" stroke="#000000" points="16,-78 16,-130 1043,-130 1043,-78 16,-78"/>
</g>
<!-- UIFormsModule -->
<g id="node1" class="node">
<title>UIFormsModule</title>
<polygon fill="#8dd3c7" stroke="#000000" points="1035.0954,-122 1032.0954,-126 1011.0954,-126 1008.0954,-122 924.9046,-122 924.9046,-86 1035.0954,-86 1035.0954,-122"/>
<text text-anchor="middle" x="980" y="-99.8" font-family="Times,serif" font-size="14.00" fill="#000000">UIFormsModule</text>
</g>
<!-- UIModule -->
<g id="node8" class="node">
<title>UIModule</title>
<polygon fill="#8dd3c7" stroke="#000000" points="583.3177,-187 580.3177,-191 559.3177,-191 556.3177,-187 508.6823,-187 508.6823,-151 583.3177,-151 583.3177,-187"/>
<text text-anchor="middle" x="546" y="-164.8" font-family="Times,serif" font-size="14.00" fill="#000000">UIModule</text>
</g>
<!-- UIFormsModule&#45;&gt;UIModule -->
<g id="edge1" class="edge">
<title>UIFormsModule&#45;&gt;UIModule</title>
<path fill="none" stroke="#000000" d="M980,-122.2921C980,-144.2057 980,-178 980,-178 980,-178 593.3782,-178 593.3782,-178"/>
<polygon fill="#000000" stroke="#000000" points="593.3783,-174.5001 583.3782,-178 593.3782,-181.5001 593.3783,-174.5001"/>
</g>
<!-- UIIconsModule -->
<g id="node2" class="node">
<title>UIIconsModule</title>
<polygon fill="#8dd3c7" stroke="#000000" points="907.1374,-122 904.1374,-126 883.1374,-126 880.1374,-122 802.8626,-122 802.8626,-86 907.1374,-86 907.1374,-122"/>
<text text-anchor="middle" x="855" y="-99.8" font-family="Times,serif" font-size="14.00" fill="#000000">UIIconsModule</text>
</g>
<!-- UIIconsModule&#45;&gt;UIModule -->
<g id="edge2" class="edge">
<title>UIIconsModule&#45;&gt;UIModule</title>
<path fill="none" stroke="#000000" d="M855,-122.1061C855,-141.3391 855,-169 855,-169 855,-169 593.2726,-169 593.2726,-169"/>
<polygon fill="#000000" stroke="#000000" points="593.2727,-165.5001 583.2726,-169 593.2726,-172.5001 593.2727,-165.5001"/>
</g>
<!-- UITypographyModule -->
<g id="node3" class="node">
<title>UITypographyModule</title>
<polygon fill="#8dd3c7" stroke="#000000" points="784.245,-122 781.245,-126 760.245,-126 757.245,-122 641.755,-122 641.755,-86 784.245,-86 784.245,-122"/>
<text text-anchor="middle" x="713" y="-99.8" font-family="Times,serif" font-size="14.00" fill="#000000">UITypographyModule</text>
</g>
<!-- UITypographyModule&#45;&gt;UIModule -->
<g id="edge3" class="edge">
<title>UITypographyModule&#45;&gt;UIModule</title>
<path fill="none" stroke="#000000" d="M713,-122.027C713,-138.3976 713,-160 713,-160 713,-160 593.4781,-160 593.4781,-160"/>
<polygon fill="#000000" stroke="#000000" points="593.4781,-156.5001 583.4781,-160 593.478,-163.5001 593.4781,-156.5001"/>
</g>
<!-- UIHelperClassesModule -->
<g id="node4" class="node">
<title>UIHelperClassesModule</title>
<polygon fill="#8dd3c7" stroke="#000000" points="623.3947,-122 620.3947,-126 599.3947,-126 596.3947,-122 468.6053,-122 468.6053,-86 623.3947,-86 623.3947,-122"/>
<text text-anchor="middle" x="546" y="-99.8" font-family="Times,serif" font-size="14.00" fill="#000000">UIHelperClassesModule</text>
</g>
<!-- UIHelperClassesModule&#45;&gt;UIModule -->
<g id="edge4" class="edge">
<title>UIHelperClassesModule&#45;&gt;UIModule</title>
<path fill="none" stroke="#000000" d="M546,-122.1061C546,-122.1061 546,-140.991 546,-140.991"/>
<polygon fill="#000000" stroke="#000000" points="542.5001,-140.9909 546,-150.991 549.5001,-140.991 542.5001,-140.9909"/>
</g>
<!-- UIPageLayoutsModule -->
<g id="node5" class="node">
<title>UIPageLayoutsModule</title>
<polygon fill="#8dd3c7" stroke="#000000" points="450.1317,-122 447.1317,-126 426.1317,-126 423.1317,-122 303.8683,-122 303.8683,-86 450.1317,-86 450.1317,-122"/>
<text text-anchor="middle" x="377" y="-99.8" font-family="Times,serif" font-size="14.00" fill="#000000">UIPageLayoutsModule</text>
</g>
<!-- UIPageLayoutsModule&#45;&gt;UIModule -->
<g id="edge5" class="edge">
<title>UIPageLayoutsModule&#45;&gt;UIModule</title>
<path fill="none" stroke="#000000" d="M377,-122.027C377,-138.3976 377,-160 377,-160 377,-160 498.4934,-160 498.4934,-160"/>
<polygon fill="#000000" stroke="#000000" points="498.4935,-163.5001 508.4934,-160 498.4934,-156.5001 498.4935,-163.5001"/>
</g>
<!-- UIColorsModule -->
<g id="node6" class="node">
<title>UIColorsModule</title>
<polygon fill="#8dd3c7" stroke="#000000" points="285.6499,-122 282.6499,-126 261.6499,-126 258.6499,-122 174.3501,-122 174.3501,-86 285.6499,-86 285.6499,-122"/>
<text text-anchor="middle" x="230" y="-99.8" font-family="Times,serif" font-size="14.00" fill="#000000">UIColorsModule</text>
</g>
<!-- UIColorsModule&#45;&gt;UIModule -->
<g id="edge6" class="edge">
<title>UIColorsModule&#45;&gt;UIModule</title>
<path fill="none" stroke="#000000" d="M230,-122.1061C230,-141.3391 230,-169 230,-169 230,-169 498.8216,-169 498.8216,-169"/>
<polygon fill="#000000" stroke="#000000" points="498.8216,-172.5001 508.8216,-169 498.8215,-165.5001 498.8216,-172.5001"/>
</g>
<!-- UIMyProfileModule -->
<g id="node7" class="node">
<title>UIMyProfileModule</title>
<polygon fill="#8dd3c7" stroke="#000000" points="155.8613,-122 152.8613,-126 131.8613,-126 128.8613,-122 24.1387,-122 24.1387,-86 155.8613,-86 155.8613,-122"/>
<text text-anchor="middle" x="90" y="-99.8" font-family="Times,serif" font-size="14.00" fill="#000000">UIMyProfileModule</text>
</g>
<!-- UIMyProfileModule&#45;&gt;UIModule -->
<g id="edge7" class="edge">
<title>UIMyProfileModule&#45;&gt;UIModule</title>
<path fill="none" stroke="#000000" d="M90,-122.2921C90,-144.2057 90,-178 90,-178 90,-178 498.6836,-178 498.6836,-178"/>
<polygon fill="#000000" stroke="#000000" points="498.6836,-181.5001 508.6836,-178 498.6836,-174.5001 498.6836,-181.5001"/>
</g>
</g>
</svg>
