<?xml version="1.0" encoding="UTF-8" standalone="no"?>
<!DOCTYPE svg PUBLIC "-//W3C//DTD SVG 1.1//EN"
 "http://www.w3.org/Graphics/SVG/1.1/DTD/svg11.dtd">
<!-- Generated by graphviz version 2.40.1 (20161225.0304)
 -->
<!-- Title: dependencies Pages: 1 -->
<svg width="504pt" height="211pt"
 viewBox="0.00 0.00 504.00 211.00" xmlns="http://www.w3.org/2000/svg" xmlns:xlink="http://www.w3.org/1999/xlink">
<g id="graph0" class="graph" transform="scale(1 1) rotate(0) translate(4 207)">
<title>dependencies</title>
<polygon fill="#ffffff" stroke="transparent" points="-4,4 -4,-207 500,-207 500,4 -4,4"/>
<text text-anchor="start" x="227.0091" y="-42.4" font-family="sans-serif" font-weight="bold" font-size="14.00" fill="#000000">Legend</text>
<polygon fill="#ffffb3" stroke="transparent" points="14,-10 14,-30 34,-30 34,-10 14,-10"/>
<text text-anchor="start" x="37.629" y="-15.4" font-family="sans-serif" font-size="14.00" fill="#000000"> &#160;Declarations</text>
<polygon fill="#8dd3c7" stroke="transparent" points="127,-10 127,-30 147,-30 147,-10 127,-10"/>
<text text-anchor="start" x="150.7251" y="-15.4" font-family="sans-serif" font-size="14.00" fill="#000000"> &#160;Module</text>
<polygon fill="#80b1d3" stroke="transparent" points="213,-10 213,-30 233,-30 233,-10 213,-10"/>
<text text-anchor="start" x="236.7812" y="-15.4" font-family="sans-serif" font-size="14.00" fill="#000000"> &#160;Bootstrap</text>
<polygon fill="#fdb462" stroke="transparent" points="310,-10 310,-30 330,-30 330,-10 310,-10"/>
<text text-anchor="start" x="333.6732" y="-15.4" font-family="sans-serif" font-size="14.00" fill="#000000"> &#160;Providers</text>
<polygon fill="#fb8072" stroke="transparent" points="406,-10 406,-30 426,-30 426,-10 406,-10"/>
<text text-anchor="start" x="429.7258" y="-15.4" font-family="sans-serif" font-size="14.00" fill="#000000"> &#160;Exports</text>
<g id="clust1" class="cluster">
<title>cluster_LockModule</title>
<polygon fill="none" stroke="#000000" stroke-dasharray="1,5" points="103,-70 103,-195 393,-195 393,-70 103,-70"/>
</g>
<g id="clust2" class="cluster">
<title>cluster_LockModule_declarations</title>
<polygon fill="none" stroke="#000000" points="233,-78 233,-130 385,-130 385,-78 233,-78"/>
</g>
<g id="clust4" class="cluster">
<title>cluster_LockModule_imports</title>
<polygon fill="none" stroke="#000000" points="111,-78 111,-130 225,-130 225,-78 111,-78"/>
</g>
<!-- FuseLockComponent -->
<g id="node1" class="node">
<title>FuseLockComponent</title>
<polygon fill="#ffffb3" stroke="#000000" points="377.0422,-122 240.9578,-122 240.9578,-86 377.0422,-86 377.0422,-122"/>
<text text-anchor="middle" x="309" y="-99.8" font-family="Times,serif" font-size="14.00" fill="#000000">FuseLockComponent</text>
</g>
<!-- LockModule -->
<g id="node2" class="node">
<title>LockModule</title>
<polygon fill="#8dd3c7" stroke="#000000" points="282.3176,-187 279.3176,-191 258.3176,-191 255.3176,-187 193.6824,-187 193.6824,-151 282.3176,-151 282.3176,-187"/>
<text text-anchor="middle" x="238" y="-164.8" font-family="Times,serif" font-size="14.00" fill="#000000">LockModule</text>
</g>
<!-- FuseLockComponent&#45;&gt;LockModule -->
<g id="edge1" class="edge">
<title>FuseLockComponent&#45;&gt;LockModule</title>
<path fill="none" stroke="#000000" d="M261.4439,-122.1061C261.4439,-122.1061 261.4439,-140.991 261.4439,-140.991"/>
<polygon fill="#000000" stroke="#000000" points="257.944,-140.9909 261.4439,-150.991 264.944,-140.991 257.944,-140.9909"/>
</g>
<!-- SharedModule -->
<g id="node3" class="node">
<title>SharedModule</title>
<polygon fill="#8dd3c7" stroke="#000000" points="217.4231,-122 214.4231,-126 193.4231,-126 190.4231,-122 118.5769,-122 118.5769,-86 217.4231,-86 217.4231,-122"/>
<text text-anchor="middle" x="168" y="-99.8" font-family="Times,serif" font-size="14.00" fill="#000000">SharedModule</text>
</g>
<!-- SharedModule&#45;&gt;LockModule -->
<g id="edge2" class="edge">
<title>SharedModule&#45;&gt;LockModule</title>
<path fill="none" stroke="#000000" d="M205.5263,-122.1061C205.5263,-122.1061 205.5263,-140.991 205.5263,-140.991"/>
<polygon fill="#000000" stroke="#000000" points="202.0264,-140.9909 205.5263,-150.991 209.0264,-140.991 202.0264,-140.9909"/>
</g>
</g>
</svg>
