<?xml version="1.0" encoding="UTF-8" standalone="no"?>
<!DOCTYPE svg PUBLIC "-//W3C//DTD SVG 1.1//EN"
 "http://www.w3.org/Graphics/SVG/1.1/DTD/svg11.dtd">
<!-- Generated by graphviz version 2.40.1 (20161225.0304)
 -->
<!-- Title: dependencies Pages: 1 -->
<svg width="504pt" height="211pt"
 viewBox="0.00 0.00 504.00 211.00" xmlns="http://www.w3.org/2000/svg" xmlns:xlink="http://www.w3.org/1999/xlink">
<g id="graph0" class="graph" transform="scale(1 1) rotate(0) translate(4 207)">
<title>dependencies</title>
<polygon fill="#ffffff" stroke="transparent" points="-4,4 -4,-207 500,-207 500,4 -4,4"/>
<text text-anchor="start" x="227.0091" y="-42.4" font-family="sans-serif" font-weight="bold" font-size="14.00" fill="#000000">Legend</text>
<polygon fill="#ffffb3" stroke="transparent" points="14,-10 14,-30 34,-30 34,-10 14,-10"/>
<text text-anchor="start" x="37.629" y="-15.4" font-family="sans-serif" font-size="14.00" fill="#000000"> &#160;Declarations</text>
<polygon fill="#8dd3c7" stroke="transparent" points="127,-10 127,-30 147,-30 147,-10 127,-10"/>
<text text-anchor="start" x="150.7251" y="-15.4" font-family="sans-serif" font-size="14.00" fill="#000000"> &#160;Module</text>
<polygon fill="#80b1d3" stroke="transparent" points="213,-10 213,-30 233,-30 233,-10 213,-10"/>
<text text-anchor="start" x="236.7812" y="-15.4" font-family="sans-serif" font-size="14.00" fill="#000000"> &#160;Bootstrap</text>
<polygon fill="#fdb462" stroke="transparent" points="310,-10 310,-30 330,-30 330,-10 310,-10"/>
<text text-anchor="start" x="333.6732" y="-15.4" font-family="sans-serif" font-size="14.00" fill="#000000"> &#160;Providers</text>
<polygon fill="#fb8072" stroke="transparent" points="406,-10 406,-30 426,-30 426,-10 406,-10"/>
<text text-anchor="start" x="429.7258" y="-15.4" font-family="sans-serif" font-size="14.00" fill="#000000"> &#160;Exports</text>
<g id="clust1" class="cluster">
<title>cluster_LoginModule</title>
<polygon fill="none" stroke="#000000" stroke-dasharray="1,5" points="100,-70 100,-195 396,-195 396,-70 100,-70"/>
</g>
<g id="clust2" class="cluster">
<title>cluster_LoginModule_declarations</title>
<polygon fill="none" stroke="#000000" points="230,-78 230,-130 388,-130 388,-78 230,-78"/>
</g>
<g id="clust4" class="cluster">
<title>cluster_LoginModule_imports</title>
<polygon fill="none" stroke="#000000" points="108,-78 108,-130 222,-130 222,-78 108,-78"/>
</g>
<!-- FuseLoginComponent -->
<g id="node1" class="node">
<title>FuseLoginComponent</title>
<polygon fill="#ffffb3" stroke="#000000" points="379.7176,-122 238.2824,-122 238.2824,-86 379.7176,-86 379.7176,-122"/>
<text text-anchor="middle" x="309" y="-99.8" font-family="Times,serif" font-size="14.00" fill="#000000">FuseLoginComponent</text>
</g>
<!-- LoginModule -->
<g id="node2" class="node">
<title>LoginModule</title>
<polygon fill="#8dd3c7" stroke="#000000" points="283.493,-187 280.493,-191 259.493,-191 256.493,-187 190.507,-187 190.507,-151 283.493,-151 283.493,-187"/>
<text text-anchor="middle" x="237" y="-164.8" font-family="Times,serif" font-size="14.00" fill="#000000">LoginModule</text>
</g>
<!-- FuseLoginComponent&#45;&gt;LoginModule -->
<g id="edge1" class="edge">
<title>FuseLoginComponent&#45;&gt;LoginModule</title>
<path fill="none" stroke="#000000" d="M260.9439,-122.1061C260.9439,-122.1061 260.9439,-140.991 260.9439,-140.991"/>
<polygon fill="#000000" stroke="#000000" points="257.444,-140.9909 260.9439,-150.991 264.444,-140.991 257.444,-140.9909"/>
</g>
<!-- SharedModule -->
<g id="node3" class="node">
<title>SharedModule</title>
<polygon fill="#8dd3c7" stroke="#000000" points="214.4231,-122 211.4231,-126 190.4231,-126 187.4231,-122 115.5769,-122 115.5769,-86 214.4231,-86 214.4231,-122"/>
<text text-anchor="middle" x="165" y="-99.8" font-family="Times,serif" font-size="14.00" fill="#000000">SharedModule</text>
</g>
<!-- SharedModule&#45;&gt;LoginModule -->
<g id="edge2" class="edge">
<title>SharedModule&#45;&gt;LoginModule</title>
<path fill="none" stroke="#000000" d="M202.3573,-122.1061C202.3573,-122.1061 202.3573,-140.991 202.3573,-140.991"/>
<polygon fill="#000000" stroke="#000000" points="198.8574,-140.9909 202.3573,-150.991 205.8574,-140.991 198.8574,-140.9909"/>
</g>
</g>
</svg>
