<?xml version="1.0" encoding="UTF-8" standalone="no"?>
<!DOCTYPE svg PUBLIC "-//W3C//DTD SVG 1.1//EN"
 "http://www.w3.org/Graphics/SVG/1.1/DTD/svg11.dtd">
<!-- Generated by graphviz version 2.40.1 (20161225.0304)
 -->
<!-- Title: dependencies Pages: 1 -->
<svg width="520pt" height="284pt"
 viewBox="0.00 0.00 520.00 284.00" xmlns="http://www.w3.org/2000/svg" xmlns:xlink="http://www.w3.org/1999/xlink">
<g id="graph0" class="graph" transform="scale(1 1) rotate(0) translate(4 280)">
<title>dependencies</title>
<polygon fill="#ffffff" stroke="transparent" points="-4,4 -4,-280 516,-280 516,4 -4,4"/>
<text text-anchor="start" x="235.0091" y="-42.4" font-family="sans-serif" font-weight="bold" font-size="14.00" fill="#000000">Legend</text>
<polygon fill="#ffffb3" stroke="transparent" points="22,-10 22,-30 42,-30 42,-10 22,-10"/>
<text text-anchor="start" x="45.629" y="-15.4" font-family="sans-serif" font-size="14.00" fill="#000000"> &#160;Declarations</text>
<polygon fill="#8dd3c7" stroke="transparent" points="135,-10 135,-30 155,-30 155,-10 135,-10"/>
<text text-anchor="start" x="158.7251" y="-15.4" font-family="sans-serif" font-size="14.00" fill="#000000"> &#160;Module</text>
<polygon fill="#80b1d3" stroke="transparent" points="221,-10 221,-30 241,-30 241,-10 221,-10"/>
<text text-anchor="start" x="244.7812" y="-15.4" font-family="sans-serif" font-size="14.00" fill="#000000"> &#160;Bootstrap</text>
<polygon fill="#fdb462" stroke="transparent" points="318,-10 318,-30 338,-30 338,-10 318,-10"/>
<text text-anchor="start" x="341.6732" y="-15.4" font-family="sans-serif" font-size="14.00" fill="#000000"> &#160;Providers</text>
<polygon fill="#fb8072" stroke="transparent" points="414,-10 414,-30 434,-30 434,-10 414,-10"/>
<text text-anchor="start" x="437.7258" y="-15.4" font-family="sans-serif" font-size="14.00" fill="#000000"> &#160;Exports</text>
<g id="clust1" class="cluster">
<title>cluster_FuseWidgetModule</title>
<polygon fill="none" stroke="#000000" stroke-dasharray="1,5" points="8,-70 8,-268 504,-268 504,-70 8,-70"/>
</g>
<g id="clust2" class="cluster">
<title>cluster_FuseWidgetModule_declarations</title>
<polygon fill="none" stroke="#000000" points="138,-78 138,-130 496,-130 496,-78 138,-78"/>
</g>
<g id="clust5" class="cluster">
<title>cluster_FuseWidgetModule_imports</title>
<polygon fill="none" stroke="#000000" points="16,-78 16,-130 130,-130 130,-78 16,-78"/>
</g>
<g id="clust6" class="cluster">
<title>cluster_FuseWidgetModule_exports</title>
<polygon fill="none" stroke="#000000" points="74,-208 74,-260 439,-260 439,-208 74,-208"/>
</g>
<!-- FuseWidgetComponent -->
<g id="node1" class="node">
<title>FuseWidgetComponent</title>
<polygon fill="#ffffb3" stroke="#000000" points="488.4846,-122 339.5154,-122 339.5154,-86 488.4846,-86 488.4846,-122"/>
<text text-anchor="middle" x="414" y="-99.8" font-family="Times,serif" font-size="14.00" fill="#000000">FuseWidgetComponent</text>
</g>
<!-- FuseWidgetModule -->
<g id="node3" class="node">
<title>FuseWidgetModule</title>
<polygon fill="#8dd3c7" stroke="#000000" points="297.7022,-187 294.7022,-191 273.7022,-191 270.7022,-187 170.2978,-187 170.2978,-151 297.7022,-151 297.7022,-187"/>
<text text-anchor="middle" x="234" y="-164.8" font-family="Times,serif" font-size="14.00" fill="#000000">FuseWidgetModule</text>
</g>
<!-- FuseWidgetComponent&#45;&gt;FuseWidgetModule -->
<g id="edge1" class="edge">
<title>FuseWidgetComponent&#45;&gt;FuseWidgetModule</title>
<path fill="none" stroke="#000000" d="M385.375,-122.1061C385.375,-141.3391 385.375,-169 385.375,-169 385.375,-169 307.7579,-169 307.7579,-169"/>
<polygon fill="#000000" stroke="#000000" points="307.7579,-165.5001 297.7579,-169 307.7579,-172.5001 307.7579,-165.5001"/>
</g>
<!-- FuseWidgetToggleDirective -->
<g id="node2" class="node">
<title>FuseWidgetToggleDirective</title>
<polygon fill="#ffffb3" stroke="#000000" points="321.8932,-122 146.1068,-122 146.1068,-86 321.8932,-86 321.8932,-122"/>
<text text-anchor="middle" x="234" y="-99.8" font-family="Times,serif" font-size="14.00" fill="#000000">FuseWidgetToggleDirective</text>
</g>
<!-- FuseWidgetToggleDirective&#45;&gt;FuseWidgetModule -->
<g id="edge2" class="edge">
<title>FuseWidgetToggleDirective&#45;&gt;FuseWidgetModule</title>
<path fill="none" stroke="#000000" d="M234,-122.1061C234,-122.1061 234,-140.991 234,-140.991"/>
<polygon fill="#000000" stroke="#000000" points="230.5001,-140.9909 234,-150.991 237.5001,-140.991 230.5001,-140.9909"/>
</g>
<!-- FuseWidgetComponent  -->
<g id="node5" class="node">
<title>FuseWidgetComponent </title>
<polygon fill="#fb8072" stroke="#000000" points="431.4854,-252 278.5146,-252 278.5146,-216 431.4854,-216 431.4854,-252"/>
<text text-anchor="middle" x="355" y="-229.8" font-family="Times,serif" font-size="14.00" fill="#000000">FuseWidgetComponent </text>
</g>
<!-- FuseWidgetModule&#45;&gt;FuseWidgetComponent  -->
<g id="edge4" class="edge">
<title>FuseWidgetModule&#45;&gt;FuseWidgetComponent </title>
<path fill="none" stroke="#000000" stroke-dasharray="5,2" d="M288.1794,-187.1061C288.1794,-187.1061 288.1794,-205.991 288.1794,-205.991"/>
<polygon fill="#000000" stroke="#000000" points="284.6794,-205.9909 288.1794,-215.991 291.6794,-205.991 284.6794,-205.9909"/>
</g>
<!-- FuseWidgetToggleDirective  -->
<g id="node6" class="node">
<title>FuseWidgetToggleDirective </title>
<polygon fill="#fb8072" stroke="#000000" points="260.3928,-252 81.6072,-252 81.6072,-216 260.3928,-216 260.3928,-252"/>
<text text-anchor="middle" x="171" y="-229.8" font-family="Times,serif" font-size="14.00" fill="#000000">FuseWidgetToggleDirective </text>
</g>
<!-- FuseWidgetModule&#45;&gt;FuseWidgetToggleDirective  -->
<g id="edge5" class="edge">
<title>FuseWidgetModule&#45;&gt;FuseWidgetToggleDirective </title>
<path fill="none" stroke="#000000" stroke-dasharray="5,2" d="M215.4227,-187.1061C215.4227,-187.1061 215.4227,-205.991 215.4227,-205.991"/>
<polygon fill="#000000" stroke="#000000" points="211.9228,-205.9909 215.4227,-215.991 218.9228,-205.991 211.9228,-205.9909"/>
</g>
<!-- SharedModule -->
<g id="node4" class="node">
<title>SharedModule</title>
<polygon fill="#8dd3c7" stroke="#000000" points="122.4231,-122 119.4231,-126 98.4231,-126 95.4231,-122 23.5769,-122 23.5769,-86 122.4231,-86 122.4231,-122"/>
<text text-anchor="middle" x="73" y="-99.8" font-family="Times,serif" font-size="14.00" fill="#000000">SharedModule</text>
</g>
<!-- SharedModule&#45;&gt;FuseWidgetModule -->
<g id="edge3" class="edge">
<title>SharedModule&#45;&gt;FuseWidgetModule</title>
<path fill="none" stroke="#000000" d="M101.8824,-122.1061C101.8824,-141.3391 101.8824,-169 101.8824,-169 101.8824,-169 160.2631,-169 160.2631,-169"/>
<polygon fill="#000000" stroke="#000000" points="160.2632,-172.5001 170.2631,-169 160.2631,-165.5001 160.2632,-172.5001"/>
</g>
</g>
</svg>
