<?xml version="1.0" encoding="UTF-8" standalone="no"?>
<!DOCTYPE svg PUBLIC "-//W3C//DTD SVG 1.1//EN"
 "http://www.w3.org/Graphics/SVG/1.1/DTD/svg11.dtd">
<!-- Generated by graphviz version 2.40.1 (20161225.0304)
 -->
<!-- Title: dependencies Pages: 1 -->
<svg width="504pt" height="211pt"
 viewBox="0.00 0.00 504.00 211.00" xmlns="http://www.w3.org/2000/svg" xmlns:xlink="http://www.w3.org/1999/xlink">
<g id="graph0" class="graph" transform="scale(1 1) rotate(0) translate(4 207)">
<title>dependencies</title>
<polygon fill="#ffffff" stroke="transparent" points="-4,4 -4,-207 500,-207 500,4 -4,4"/>
<text text-anchor="start" x="227.0091" y="-42.4" font-family="sans-serif" font-weight="bold" font-size="14.00" fill="#000000">Legend</text>
<polygon fill="#ffffb3" stroke="transparent" points="14,-10 14,-30 34,-30 34,-10 14,-10"/>
<text text-anchor="start" x="37.629" y="-15.4" font-family="sans-serif" font-size="14.00" fill="#000000"> &#160;Declarations</text>
<polygon fill="#8dd3c7" stroke="transparent" points="127,-10 127,-30 147,-30 147,-10 127,-10"/>
<text text-anchor="start" x="150.7251" y="-15.4" font-family="sans-serif" font-size="14.00" fill="#000000"> &#160;Module</text>
<polygon fill="#80b1d3" stroke="transparent" points="213,-10 213,-30 233,-30 233,-10 213,-10"/>
<text text-anchor="start" x="236.7812" y="-15.4" font-family="sans-serif" font-size="14.00" fill="#000000"> &#160;Bootstrap</text>
<polygon fill="#fdb462" stroke="transparent" points="310,-10 310,-30 330,-30 330,-10 310,-10"/>
<text text-anchor="start" x="333.6732" y="-15.4" font-family="sans-serif" font-size="14.00" fill="#000000"> &#160;Providers</text>
<polygon fill="#fb8072" stroke="transparent" points="406,-10 406,-30 426,-30 426,-10 406,-10"/>
<text text-anchor="start" x="429.7258" y="-15.4" font-family="sans-serif" font-size="14.00" fill="#000000"> &#160;Exports</text>
<g id="clust1" class="cluster">
<title>cluster_ComponentsThirdPartyModule</title>
<polygon fill="none" stroke="#000000" stroke-dasharray="1,5" points="78,-70 78,-195 418,-195 418,-70 78,-70"/>
</g>
<g id="clust2" class="cluster">
<title>cluster_ComponentsThirdPartyModule_declarations</title>
<polygon fill="none" stroke="#000000" points="208,-78 208,-130 410,-130 410,-78 208,-78"/>
</g>
<g id="clust4" class="cluster">
<title>cluster_ComponentsThirdPartyModule_imports</title>
<polygon fill="none" stroke="#000000" points="86,-78 86,-130 200,-130 200,-78 86,-78"/>
</g>
<!-- FuseNgxDatatableComponent -->
<g id="node1" class="node">
<title>FuseNgxDatatableComponent</title>
<polygon fill="#ffffb3" stroke="#000000" points="401.5182,-122 216.4818,-122 216.4818,-86 401.5182,-86 401.5182,-122"/>
<text text-anchor="middle" x="309" y="-99.8" font-family="Times,serif" font-size="14.00" fill="#000000">FuseNgxDatatableComponent</text>
</g>
<!-- ComponentsThirdPartyModule -->
<g id="node2" class="node">
<title>ComponentsThirdPartyModule</title>
<polygon fill="#8dd3c7" stroke="#000000" points="340.479,-187 337.479,-191 316.479,-191 313.479,-187 149.521,-187 149.521,-151 340.479,-151 340.479,-187"/>
<text text-anchor="middle" x="245" y="-164.8" font-family="Times,serif" font-size="14.00" fill="#000000">ComponentsThirdPartyModule</text>
</g>
<!-- FuseNgxDatatableComponent&#45;&gt;ComponentsThirdPartyModule -->
<g id="edge1" class="edge">
<title>FuseNgxDatatableComponent&#45;&gt;ComponentsThirdPartyModule</title>
<path fill="none" stroke="#000000" d="M278.3654,-122.1061C278.3654,-122.1061 278.3654,-140.991 278.3654,-140.991"/>
<polygon fill="#000000" stroke="#000000" points="274.8654,-140.9909 278.3654,-150.991 281.8654,-140.991 274.8654,-140.9909"/>
</g>
<!-- SharedModule -->
<g id="node3" class="node">
<title>SharedModule</title>
<polygon fill="#8dd3c7" stroke="#000000" points="192.4231,-122 189.4231,-126 168.4231,-126 165.4231,-122 93.5769,-122 93.5769,-86 192.4231,-86 192.4231,-122"/>
<text text-anchor="middle" x="143" y="-99.8" font-family="Times,serif" font-size="14.00" fill="#000000">SharedModule</text>
</g>
<!-- SharedModule&#45;&gt;ComponentsThirdPartyModule -->
<g id="edge2" class="edge">
<title>SharedModule&#45;&gt;ComponentsThirdPartyModule</title>
<path fill="none" stroke="#000000" d="M170.8608,-122.1061C170.8608,-122.1061 170.8608,-140.991 170.8608,-140.991"/>
<polygon fill="#000000" stroke="#000000" points="167.3609,-140.9909 170.8608,-150.991 174.3609,-140.991 167.3609,-140.9909"/>
</g>
</g>
</svg>
