<?xml version="1.0" encoding="UTF-8" standalone="no"?>
<!DOCTYPE svg PUBLIC "-//W3C//DTD SVG 1.1//EN"
 "http://www.w3.org/Graphics/SVG/1.1/DTD/svg11.dtd">
<!-- Generated by graphviz version 2.40.1 (20161225.0304)
 -->
<!-- Title: dependencies Pages: 1 -->
<svg width="504pt" height="211pt"
 viewBox="0.00 0.00 504.00 211.00" xmlns="http://www.w3.org/2000/svg" xmlns:xlink="http://www.w3.org/1999/xlink">
<g id="graph0" class="graph" transform="scale(1 1) rotate(0) translate(4 207)">
<title>dependencies</title>
<polygon fill="#ffffff" stroke="transparent" points="-4,4 -4,-207 500,-207 500,4 -4,4"/>
<text text-anchor="start" x="227.0091" y="-42.4" font-family="sans-serif" font-weight="bold" font-size="14.00" fill="#000000">Legend</text>
<polygon fill="#ffffb3" stroke="transparent" points="14,-10 14,-30 34,-30 34,-10 14,-10"/>
<text text-anchor="start" x="37.629" y="-15.4" font-family="sans-serif" font-size="14.00" fill="#000000"> &#160;Declarations</text>
<polygon fill="#8dd3c7" stroke="transparent" points="127,-10 127,-30 147,-30 147,-10 127,-10"/>
<text text-anchor="start" x="150.7251" y="-15.4" font-family="sans-serif" font-size="14.00" fill="#000000"> &#160;Module</text>
<polygon fill="#80b1d3" stroke="transparent" points="213,-10 213,-30 233,-30 233,-10 213,-10"/>
<text text-anchor="start" x="236.7812" y="-15.4" font-family="sans-serif" font-size="14.00" fill="#000000"> &#160;Bootstrap</text>
<polygon fill="#fdb462" stroke="transparent" points="310,-10 310,-30 330,-30 330,-10 310,-10"/>
<text text-anchor="start" x="333.6732" y="-15.4" font-family="sans-serif" font-size="14.00" fill="#000000"> &#160;Providers</text>
<polygon fill="#fb8072" stroke="transparent" points="406,-10 406,-30 426,-30 426,-10 406,-10"/>
<text text-anchor="start" x="429.7258" y="-15.4" font-family="sans-serif" font-size="14.00" fill="#000000"> &#160;Exports</text>
<g id="clust1" class="cluster">
<title>cluster_UIColorsModule</title>
<polygon fill="none" stroke="#000000" stroke-dasharray="1,5" points="29,-70 29,-195 467,-195 467,-70 29,-70"/>
</g>
<g id="clust2" class="cluster">
<title>cluster_UIColorsModule_declarations</title>
<polygon fill="none" stroke="#000000" points="297,-78 297,-130 459,-130 459,-78 297,-78"/>
</g>
<g id="clust4" class="cluster">
<title>cluster_UIColorsModule_imports</title>
<polygon fill="none" stroke="#000000" points="37,-78 37,-130 289,-130 289,-78 37,-78"/>
</g>
<!-- FuseColorsComponent -->
<g id="node1" class="node">
<title>FuseColorsComponent</title>
<polygon fill="#ffffb3" stroke="#000000" points="450.6066,-122 305.3934,-122 305.3934,-86 450.6066,-86 450.6066,-122"/>
<text text-anchor="middle" x="378" y="-99.8" font-family="Times,serif" font-size="14.00" fill="#000000">FuseColorsComponent</text>
</g>
<!-- UIColorsModule -->
<g id="node2" class="node">
<title>UIColorsModule</title>
<polygon fill="#8dd3c7" stroke="#000000" points="287.6499,-187 284.6499,-191 263.6499,-191 260.6499,-187 176.3501,-187 176.3501,-151 287.6499,-151 287.6499,-187"/>
<text text-anchor="middle" x="232" y="-164.8" font-family="Times,serif" font-size="14.00" fill="#000000">UIColorsModule</text>
</g>
<!-- FuseColorsComponent&#45;&gt;UIColorsModule -->
<g id="edge1" class="edge">
<title>FuseColorsComponent&#45;&gt;UIColorsModule</title>
<path fill="none" stroke="#000000" d="M378,-122.1061C378,-141.3391 378,-169 378,-169 378,-169 298.0299,-169 298.0299,-169"/>
<polygon fill="#000000" stroke="#000000" points="298.0299,-165.5001 288.0299,-169 298.0298,-172.5001 298.0299,-165.5001"/>
</g>
<!-- SharedModule -->
<g id="node3" class="node">
<title>SharedModule</title>
<polygon fill="#8dd3c7" stroke="#000000" points="281.4231,-122 278.4231,-126 257.4231,-126 254.4231,-122 182.5769,-122 182.5769,-86 281.4231,-86 281.4231,-122"/>
<text text-anchor="middle" x="232" y="-99.8" font-family="Times,serif" font-size="14.00" fill="#000000">SharedModule</text>
</g>
<!-- SharedModule&#45;&gt;UIColorsModule -->
<g id="edge2" class="edge">
<title>SharedModule&#45;&gt;UIColorsModule</title>
<path fill="none" stroke="#000000" d="M232,-122.1061C232,-122.1061 232,-140.991 232,-140.991"/>
<polygon fill="#000000" stroke="#000000" points="228.5001,-140.9909 232,-150.991 235.5001,-140.991 228.5001,-140.9909"/>
</g>
<!-- FuseDemoModule -->
<g id="node4" class="node">
<title>FuseDemoModule</title>
<polygon fill="#8dd3c7" stroke="#000000" points="165.2036,-122 162.2036,-126 141.2036,-126 138.2036,-122 44.7964,-122 44.7964,-86 165.2036,-86 165.2036,-122"/>
<text text-anchor="middle" x="105" y="-99.8" font-family="Times,serif" font-size="14.00" fill="#000000">FuseDemoModule</text>
</g>
<!-- FuseDemoModule&#45;&gt;UIColorsModule -->
<g id="edge3" class="edge">
<title>FuseDemoModule&#45;&gt;UIColorsModule</title>
<path fill="none" stroke="#000000" d="M105,-122.1061C105,-141.3391 105,-169 105,-169 105,-169 166.296,-169 166.296,-169"/>
<polygon fill="#000000" stroke="#000000" points="166.296,-172.5001 176.296,-169 166.2959,-165.5001 166.296,-172.5001"/>
</g>
</g>
</svg>
