<?xml version="1.0" encoding="UTF-8" standalone="no"?>
<!DOCTYPE svg PUBLIC "-//W3C//DTD SVG 1.1//EN"
 "http://www.w3.org/Graphics/SVG/1.1/DTD/svg11.dtd">
<!-- Generated by graphviz version 2.40.1 (20161225.0304)
 -->
<!-- Title: dependencies Pages: 1 -->
<svg width="3738pt" height="211pt"
 viewBox="0.00 0.00 3738.00 211.00" xmlns="http://www.w3.org/2000/svg" xmlns:xlink="http://www.w3.org/1999/xlink">
<g id="graph0" class="graph" transform="scale(1 1) rotate(0) translate(4 207)">
<title>dependencies</title>
<polygon fill="#ffffff" stroke="transparent" points="-4,4 -4,-207 3734,-207 3734,4 -4,4"/>
<text text-anchor="start" x="1844.0091" y="-42.4" font-family="sans-serif" font-weight="bold" font-size="14.00" fill="#000000">Legend</text>
<polygon fill="#ffffb3" stroke="transparent" points="1631,-10 1631,-30 1651,-30 1651,-10 1631,-10"/>
<text text-anchor="start" x="1654.629" y="-15.4" font-family="sans-serif" font-size="14.00" fill="#000000"> &#160;Declarations</text>
<polygon fill="#8dd3c7" stroke="transparent" points="1744,-10 1744,-30 1764,-30 1764,-10 1744,-10"/>
<text text-anchor="start" x="1767.7251" y="-15.4" font-family="sans-serif" font-size="14.00" fill="#000000"> &#160;Module</text>
<polygon fill="#80b1d3" stroke="transparent" points="1830,-10 1830,-30 1850,-30 1850,-10 1830,-10"/>
<text text-anchor="start" x="1853.7812" y="-15.4" font-family="sans-serif" font-size="14.00" fill="#000000"> &#160;Bootstrap</text>
<polygon fill="#fdb462" stroke="transparent" points="1927,-10 1927,-30 1947,-30 1947,-10 1927,-10"/>
<text text-anchor="start" x="1950.6732" y="-15.4" font-family="sans-serif" font-size="14.00" fill="#000000"> &#160;Providers</text>
<polygon fill="#fb8072" stroke="transparent" points="2023,-10 2023,-30 2043,-30 2043,-10 2023,-10"/>
<text text-anchor="start" x="2046.7258" y="-15.4" font-family="sans-serif" font-size="14.00" fill="#000000"> &#160;Exports</text>
<g id="clust1" class="cluster">
<title>cluster_FuseScrumboardModule</title>
<polygon fill="none" stroke="#000000" stroke-dasharray="1,5" points="8,-70 8,-195 3722,-195 3722,-70 8,-70"/>
</g>
<g id="clust2" class="cluster">
<title>cluster_FuseScrumboardModule_declarations</title>
<polygon fill="none" stroke="#000000" points="486,-78 486,-130 3714,-130 3714,-78 486,-78"/>
</g>
<g id="clust15" class="cluster">
<title>cluster_FuseScrumboardModule_imports</title>
<polygon fill="none" stroke="#000000" points="364,-78 364,-130 478,-130 478,-78 364,-78"/>
</g>
<g id="clust18" class="cluster">
<title>cluster_FuseScrumboardModule_providers</title>
<polygon fill="none" stroke="#000000" points="16,-78 16,-130 356,-130 356,-78 16,-78"/>
</g>
<!-- FuseScrumboardComponent -->
<g id="node1" class="node">
<title>FuseScrumboardComponent</title>
<polygon fill="#ffffb3" stroke="#000000" points="3706.1979,-122 3529.8021,-122 3529.8021,-86 3706.1979,-86 3706.1979,-122"/>
<text text-anchor="middle" x="3618" y="-99.8" font-family="Times,serif" font-size="14.00" fill="#000000">FuseScrumboardComponent</text>
</g>
<!-- FuseScrumboardModule -->
<g id="node13" class="node">
<title>FuseScrumboardModule</title>
<polygon fill="#8dd3c7" stroke="#000000" points="1874.4158,-187 1871.4158,-191 1850.4158,-191 1847.4158,-187 1719.5842,-187 1719.5842,-151 1874.4158,-151 1874.4158,-187"/>
<text text-anchor="middle" x="1797" y="-164.8" font-family="Times,serif" font-size="14.00" fill="#000000">FuseScrumboardModule</text>
</g>
<!-- FuseScrumboardComponent&#45;&gt;FuseScrumboardModule -->
<g id="edge1" class="edge">
<title>FuseScrumboardComponent&#45;&gt;FuseScrumboardModule</title>
<path fill="none" stroke="#000000" d="M3618,-122.3228C3618,-145.6602 3618,-183 3618,-183 3618,-183 1884.373,-183 1884.373,-183"/>
<polygon fill="#000000" stroke="#000000" points="1884.3731,-179.5001 1874.373,-183 1884.373,-186.5001 1884.3731,-179.5001"/>
</g>
<!-- FuseScrumboardBoardComponent -->
<g id="node2" class="node">
<title>FuseScrumboardBoardComponent</title>
<polygon fill="#ffffb3" stroke="#000000" points="3512.41,-122 3301.59,-122 3301.59,-86 3512.41,-86 3512.41,-122"/>
<text text-anchor="middle" x="3407" y="-99.8" font-family="Times,serif" font-size="14.00" fill="#000000">FuseScrumboardBoardComponent</text>
</g>
<!-- FuseScrumboardBoardComponent&#45;&gt;FuseScrumboardModule -->
<g id="edge2" class="edge">
<title>FuseScrumboardBoardComponent&#45;&gt;FuseScrumboardModule</title>
<path fill="none" stroke="#000000" d="M3407,-122.2921C3407,-144.2057 3407,-178 3407,-178 3407,-178 1884.3822,-178 1884.3822,-178"/>
<polygon fill="#000000" stroke="#000000" points="1884.3823,-174.5001 1874.3822,-178 1884.3822,-181.5001 1884.3823,-174.5001"/>
</g>
<!-- FuseScrumboardBoardListComponent -->
<g id="node3" class="node">
<title>FuseScrumboardBoardListComponent</title>
<polygon fill="#ffffb3" stroke="#000000" points="3284.1881,-122 3051.8119,-122 3051.8119,-86 3284.1881,-86 3284.1881,-122"/>
<text text-anchor="middle" x="3168" y="-99.8" font-family="Times,serif" font-size="14.00" fill="#000000">FuseScrumboardBoardListComponent</text>
</g>
<!-- FuseScrumboardBoardListComponent&#45;&gt;FuseScrumboardModule -->
<g id="edge3" class="edge">
<title>FuseScrumboardBoardListComponent&#45;&gt;FuseScrumboardModule</title>
<path fill="none" stroke="#000000" d="M3168,-122.0267C3168,-142.7672 3168,-174 3168,-174 3168,-174 1884.6391,-174 1884.6391,-174"/>
<polygon fill="#000000" stroke="#000000" points="1884.6391,-170.5001 1874.6391,-174 1884.6391,-177.5001 1884.6391,-170.5001"/>
</g>
<!-- FuseScrumboardBoardCardComponent -->
<g id="node4" class="node">
<title>FuseScrumboardBoardCardComponent</title>
<polygon fill="#ffffb3" stroke="#000000" points="3033.6217,-122 2796.3783,-122 2796.3783,-86 3033.6217,-86 3033.6217,-122"/>
<text text-anchor="middle" x="2915" y="-99.8" font-family="Times,serif" font-size="14.00" fill="#000000">FuseScrumboardBoardCardComponent</text>
</g>
<!-- FuseScrumboardBoardCardComponent&#45;&gt;FuseScrumboardModule -->
<g id="edge4" class="edge">
<title>FuseScrumboardBoardCardComponent&#45;&gt;FuseScrumboardModule</title>
<path fill="none" stroke="#000000" d="M2915,-122.1061C2915,-141.3391 2915,-169 2915,-169 2915,-169 1884.2858,-169 1884.2858,-169"/>
<polygon fill="#000000" stroke="#000000" points="1884.2858,-165.5001 1874.2858,-169 1884.2857,-172.5001 1884.2858,-165.5001"/>
</g>
<!-- FuseScrumboardBoardEditListNameComponent -->
<g id="node5" class="node">
<title>FuseScrumboardBoardEditListNameComponent</title>
<polygon fill="#ffffb3" stroke="#000000" points="2778.4482,-122 2489.5518,-122 2489.5518,-86 2778.4482,-86 2778.4482,-122"/>
<text text-anchor="middle" x="2634" y="-99.8" font-family="Times,serif" font-size="14.00" fill="#000000">FuseScrumboardBoardEditListNameComponent</text>
</g>
<!-- FuseScrumboardBoardEditListNameComponent&#45;&gt;FuseScrumboardModule -->
<g id="edge5" class="edge">
<title>FuseScrumboardBoardEditListNameComponent&#45;&gt;FuseScrumboardModule</title>
<path fill="none" stroke="#000000" d="M2634,-122.302C2634,-140.2699 2634,-165 2634,-165 2634,-165 1884.2427,-165 1884.2427,-165"/>
<polygon fill="#000000" stroke="#000000" points="1884.2427,-161.5001 1874.2427,-165 1884.2426,-168.5001 1884.2427,-161.5001"/>
</g>
<!-- FuseScrumboardBoardAddCardComponent -->
<g id="node6" class="node">
<title>FuseScrumboardBoardAddCardComponent</title>
<polygon fill="#ffffb3" stroke="#000000" points="2471.7281,-122 2210.2719,-122 2210.2719,-86 2471.7281,-86 2471.7281,-122"/>
<text text-anchor="middle" x="2341" y="-99.8" font-family="Times,serif" font-size="14.00" fill="#000000">FuseScrumboardBoardAddCardComponent</text>
</g>
<!-- FuseScrumboardBoardAddCardComponent&#45;&gt;FuseScrumboardModule -->
<g id="edge6" class="edge">
<title>FuseScrumboardBoardAddCardComponent&#45;&gt;FuseScrumboardModule</title>
<path fill="none" stroke="#000000" d="M2341,-122.027C2341,-138.3976 2341,-160 2341,-160 2341,-160 1884.3642,-160 1884.3642,-160"/>
<polygon fill="#000000" stroke="#000000" points="1884.3642,-156.5001 1874.3642,-160 1884.3642,-163.5001 1884.3642,-156.5001"/>
</g>
<!-- FuseScrumboardBoardAddListComponent -->
<g id="node7" class="node">
<title>FuseScrumboardBoardAddListComponent</title>
<polygon fill="#ffffb3" stroke="#000000" points="2192.2948,-122 1935.7052,-122 1935.7052,-86 2192.2948,-86 2192.2948,-122"/>
<text text-anchor="middle" x="2064" y="-99.8" font-family="Times,serif" font-size="14.00" fill="#000000">FuseScrumboardBoardAddListComponent</text>
</g>
<!-- FuseScrumboardBoardAddListComponent&#45;&gt;FuseScrumboardModule -->
<g id="edge7" class="edge">
<title>FuseScrumboardBoardAddListComponent&#45;&gt;FuseScrumboardModule</title>
<path fill="none" stroke="#000000" d="M2064,-122.1871C2064,-137.1824 2064,-156 2064,-156 2064,-156 1884.2275,-156 1884.2275,-156"/>
<polygon fill="#000000" stroke="#000000" points="1884.2275,-152.5001 1874.2275,-156 1884.2274,-159.5001 1884.2275,-152.5001"/>
</g>
<!-- FuseScrumboardCardDialogComponent -->
<g id="node8" class="node">
<title>FuseScrumboardCardDialogComponent</title>
<polygon fill="#ffffb3" stroke="#000000" points="1917.5125,-122 1676.4875,-122 1676.4875,-86 1917.5125,-86 1917.5125,-122"/>
<text text-anchor="middle" x="1797" y="-99.8" font-family="Times,serif" font-size="14.00" fill="#000000">FuseScrumboardCardDialogComponent</text>
</g>
<!-- FuseScrumboardCardDialogComponent&#45;&gt;FuseScrumboardModule -->
<g id="edge8" class="edge">
<title>FuseScrumboardCardDialogComponent&#45;&gt;FuseScrumboardModule</title>
<path fill="none" stroke="#000000" d="M1797,-122.1061C1797,-122.1061 1797,-140.991 1797,-140.991"/>
<polygon fill="#000000" stroke="#000000" points="1793.5001,-140.9909 1797,-150.991 1800.5001,-140.991 1793.5001,-140.9909"/>
</g>
<!-- FuseScrumboardLabelSelectorComponent -->
<g id="node9" class="node">
<title>FuseScrumboardLabelSelectorComponent</title>
<polygon fill="#ffffb3" stroke="#000000" points="1657.9384,-122 1404.0616,-122 1404.0616,-86 1657.9384,-86 1657.9384,-122"/>
<text text-anchor="middle" x="1531" y="-99.8" font-family="Times,serif" font-size="14.00" fill="#000000">FuseScrumboardLabelSelectorComponent</text>
</g>
<!-- FuseScrumboardLabelSelectorComponent&#45;&gt;FuseScrumboardModule -->
<g id="edge9" class="edge">
<title>FuseScrumboardLabelSelectorComponent&#45;&gt;FuseScrumboardModule</title>
<path fill="none" stroke="#000000" d="M1531,-122.1871C1531,-137.1824 1531,-156 1531,-156 1531,-156 1709.7045,-156 1709.7045,-156"/>
<polygon fill="#000000" stroke="#000000" points="1709.7045,-159.5001 1719.7045,-156 1709.7044,-152.5001 1709.7045,-159.5001"/>
</g>
<!-- FuseScrumboardEditBoardNameComponent -->
<g id="node10" class="node">
<title>FuseScrumboardEditBoardNameComponent</title>
<polygon fill="#ffffb3" stroke="#000000" points="1385.6699,-122 1118.3301,-122 1118.3301,-86 1385.6699,-86 1385.6699,-122"/>
<text text-anchor="middle" x="1252" y="-99.8" font-family="Times,serif" font-size="14.00" fill="#000000">FuseScrumboardEditBoardNameComponent</text>
</g>
<!-- FuseScrumboardEditBoardNameComponent&#45;&gt;FuseScrumboardModule -->
<g id="edge10" class="edge">
<title>FuseScrumboardEditBoardNameComponent&#45;&gt;FuseScrumboardModule</title>
<path fill="none" stroke="#000000" d="M1252,-122.027C1252,-138.3976 1252,-160 1252,-160 1252,-160 1709.7824,-160 1709.7824,-160"/>
<polygon fill="#000000" stroke="#000000" points="1709.7824,-163.5001 1719.7824,-160 1709.7823,-156.5001 1709.7824,-163.5001"/>
</g>
<!-- FuseScrumboardBoardSettingsSidenavComponent -->
<g id="node11" class="node">
<title>FuseScrumboardBoardSettingsSidenavComponent</title>
<polygon fill="#ffffb3" stroke="#000000" points="1100.1258,-122 799.8742,-122 799.8742,-86 1100.1258,-86 1100.1258,-122"/>
<text text-anchor="middle" x="950" y="-99.8" font-family="Times,serif" font-size="14.00" fill="#000000">FuseScrumboardBoardSettingsSidenavComponent</text>
</g>
<!-- FuseScrumboardBoardSettingsSidenavComponent&#45;&gt;FuseScrumboardModule -->
<g id="edge11" class="edge">
<title>FuseScrumboardBoardSettingsSidenavComponent&#45;&gt;FuseScrumboardModule</title>
<path fill="none" stroke="#000000" d="M950,-122.302C950,-140.2699 950,-165 950,-165 950,-165 1709.589,-165 1709.589,-165"/>
<polygon fill="#000000" stroke="#000000" points="1709.5891,-168.5001 1719.589,-165 1709.589,-161.5001 1709.5891,-168.5001"/>
</g>
<!-- FuseScrumboardBoardColorSelectorComponent -->
<g id="node12" class="node">
<title>FuseScrumboardBoardColorSelectorComponent</title>
<polygon fill="#ffffb3" stroke="#000000" points="782.1656,-122 493.8344,-122 493.8344,-86 782.1656,-86 782.1656,-122"/>
<text text-anchor="middle" x="638" y="-99.8" font-family="Times,serif" font-size="14.00" fill="#000000">FuseScrumboardBoardColorSelectorComponent</text>
</g>
<!-- FuseScrumboardBoardColorSelectorComponent&#45;&gt;FuseScrumboardModule -->
<g id="edge12" class="edge">
<title>FuseScrumboardBoardColorSelectorComponent&#45;&gt;FuseScrumboardModule</title>
<path fill="none" stroke="#000000" d="M638,-122.1061C638,-141.3391 638,-169 638,-169 638,-169 1709.6067,-169 1709.6067,-169"/>
<polygon fill="#000000" stroke="#000000" points="1709.6067,-172.5001 1719.6067,-169 1709.6067,-165.5001 1709.6067,-172.5001"/>
</g>
<!-- SharedModule -->
<g id="node14" class="node">
<title>SharedModule</title>
<polygon fill="#8dd3c7" stroke="#000000" points="470.4231,-122 467.4231,-126 446.4231,-126 443.4231,-122 371.5769,-122 371.5769,-86 470.4231,-86 470.4231,-122"/>
<text text-anchor="middle" x="421" y="-99.8" font-family="Times,serif" font-size="14.00" fill="#000000">SharedModule</text>
</g>
<!-- SharedModule&#45;&gt;FuseScrumboardModule -->
<g id="edge13" class="edge">
<title>SharedModule&#45;&gt;FuseScrumboardModule</title>
<path fill="none" stroke="#000000" d="M421,-122.0267C421,-142.7672 421,-174 421,-174 421,-174 1709.5755,-174 1709.5755,-174"/>
<polygon fill="#000000" stroke="#000000" points="1709.5755,-177.5001 1719.5755,-174 1709.5755,-170.5001 1709.5755,-177.5001"/>
</g>
<!-- ScrumboardService -->
<g id="node15" class="node">
<title>ScrumboardService</title>
<ellipse fill="#fdb462" stroke="#000000" cx="261" cy="-104" rx="87.3789" ry="18"/>
<text text-anchor="middle" x="261" y="-99.8" font-family="Times,serif" font-size="14.00" fill="#000000">ScrumboardService</text>
</g>
<!-- ScrumboardService&#45;&gt;FuseScrumboardModule -->
<g id="edge14" class="edge">
<title>ScrumboardService&#45;&gt;FuseScrumboardModule</title>
<path fill="none" stroke="#000000" d="M261,-122.2921C261,-144.2057 261,-178 261,-178 261,-178 1709.7769,-178 1709.7769,-178"/>
<polygon fill="#000000" stroke="#000000" points="1709.7769,-181.5001 1719.7769,-178 1709.7768,-174.5001 1709.7769,-181.5001"/>
</g>
<!-- BoardResolve -->
<g id="node16" class="node">
<title>BoardResolve</title>
<ellipse fill="#fdb462" stroke="#000000" cx="90" cy="-104" rx="65.991" ry="18"/>
<text text-anchor="middle" x="90" y="-99.8" font-family="Times,serif" font-size="14.00" fill="#000000">BoardResolve</text>
</g>
<!-- BoardResolve&#45;&gt;FuseScrumboardModule -->
<g id="edge15" class="edge">
<title>BoardResolve&#45;&gt;FuseScrumboardModule</title>
<path fill="none" stroke="#000000" d="M90,-122.3228C90,-145.6602 90,-183 90,-183 90,-183 1709.7787,-183 1709.7787,-183"/>
<polygon fill="#000000" stroke="#000000" points="1709.7788,-186.5001 1719.7787,-183 1709.7787,-179.5001 1709.7788,-186.5001"/>
</g>
</g>
</svg>
