<?xml version="1.0" encoding="UTF-8" standalone="no"?>
<!DOCTYPE svg PUBLIC "-//W3C//DTD SVG 1.1//EN"
 "http://www.w3.org/Graphics/SVG/1.1/DTD/svg11.dtd">
<!-- Generated by graphviz version 2.40.1 (20161225.0304)
 -->
<!-- Title: dependencies Pages: 1 -->
<svg width="880pt" height="211pt"
 viewBox="0.00 0.00 880.00 211.00" xmlns="http://www.w3.org/2000/svg" xmlns:xlink="http://www.w3.org/1999/xlink">
<g id="graph0" class="graph" transform="scale(1 1) rotate(0) translate(4 207)">
<title>dependencies</title>
<polygon fill="#ffffff" stroke="transparent" points="-4,4 -4,-207 876,-207 876,4 -4,4"/>
<text text-anchor="start" x="415.0091" y="-42.4" font-family="sans-serif" font-weight="bold" font-size="14.00" fill="#000000">Legend</text>
<polygon fill="#ffffb3" stroke="transparent" points="202,-10 202,-30 222,-30 222,-10 202,-10"/>
<text text-anchor="start" x="225.629" y="-15.4" font-family="sans-serif" font-size="14.00" fill="#000000"> &#160;Declarations</text>
<polygon fill="#8dd3c7" stroke="transparent" points="315,-10 315,-30 335,-30 335,-10 315,-10"/>
<text text-anchor="start" x="338.7251" y="-15.4" font-family="sans-serif" font-size="14.00" fill="#000000"> &#160;Module</text>
<polygon fill="#80b1d3" stroke="transparent" points="401,-10 401,-30 421,-30 421,-10 401,-10"/>
<text text-anchor="start" x="424.7812" y="-15.4" font-family="sans-serif" font-size="14.00" fill="#000000"> &#160;Bootstrap</text>
<polygon fill="#fdb462" stroke="transparent" points="498,-10 498,-30 518,-30 518,-10 498,-10"/>
<text text-anchor="start" x="521.6732" y="-15.4" font-family="sans-serif" font-size="14.00" fill="#000000"> &#160;Providers</text>
<polygon fill="#fb8072" stroke="transparent" points="594,-10 594,-30 614,-30 614,-10 594,-10"/>
<text text-anchor="start" x="617.7258" y="-15.4" font-family="sans-serif" font-size="14.00" fill="#000000"> &#160;Exports</text>
<g id="clust1" class="cluster">
<title>cluster_SearchModule</title>
<polygon fill="none" stroke="#000000" stroke-dasharray="1,5" points="8,-70 8,-195 864,-195 864,-70 8,-70"/>
</g>
<g id="clust2" class="cluster">
<title>cluster_SearchModule_declarations</title>
<polygon fill="none" stroke="#000000" points="294,-78 294,-130 856,-130 856,-78 294,-78"/>
</g>
<g id="clust6" class="cluster">
<title>cluster_SearchModule_imports</title>
<polygon fill="none" stroke="#000000" points="172,-78 172,-130 286,-130 286,-78 172,-78"/>
</g>
<g id="clust9" class="cluster">
<title>cluster_SearchModule_providers</title>
<polygon fill="none" stroke="#000000" points="16,-78 16,-130 164,-130 164,-78 16,-78"/>
</g>
<!-- FuseSearchComponent -->
<g id="node1" class="node">
<title>FuseSearchComponent</title>
<polygon fill="#ffffb3" stroke="#000000" points="847.8613,-122 702.1387,-122 702.1387,-86 847.8613,-86 847.8613,-122"/>
<text text-anchor="middle" x="775" y="-99.8" font-family="Times,serif" font-size="14.00" fill="#000000">FuseSearchComponent</text>
</g>
<!-- SearchModule -->
<g id="node4" class="node">
<title>SearchModule</title>
<polygon fill="#8dd3c7" stroke="#000000" points="439.6375,-187 436.6375,-191 415.6375,-191 412.6375,-187 342.3625,-187 342.3625,-151 439.6375,-151 439.6375,-187"/>
<text text-anchor="middle" x="391" y="-164.8" font-family="Times,serif" font-size="14.00" fill="#000000">SearchModule</text>
</g>
<!-- FuseSearchComponent&#45;&gt;SearchModule -->
<g id="edge1" class="edge">
<title>FuseSearchComponent&#45;&gt;SearchModule</title>
<path fill="none" stroke="#000000" d="M775,-122.2843C775,-143.3211 775,-175 775,-175 775,-175 450.0239,-175 450.0239,-175"/>
<polygon fill="#000000" stroke="#000000" points="450.0239,-171.5001 440.0239,-175 450.0239,-178.5001 450.0239,-171.5001"/>
</g>
<!-- FuseSearchClassicComponent -->
<g id="node2" class="node">
<title>FuseSearchClassicComponent</title>
<polygon fill="#ffffb3" stroke="#000000" points="684.2976,-122 497.7024,-122 497.7024,-86 684.2976,-86 684.2976,-122"/>
<text text-anchor="middle" x="591" y="-99.8" font-family="Times,serif" font-size="14.00" fill="#000000">FuseSearchClassicComponent</text>
</g>
<!-- FuseSearchClassicComponent&#45;&gt;SearchModule -->
<g id="edge2" class="edge">
<title>FuseSearchClassicComponent&#45;&gt;SearchModule</title>
<path fill="none" stroke="#000000" d="M591,-122.0225C591,-139.3734 591,-163 591,-163 591,-163 449.6698,-163 449.6698,-163"/>
<polygon fill="#000000" stroke="#000000" points="449.6698,-159.5001 439.6698,-163 449.6697,-166.5001 449.6698,-159.5001"/>
</g>
<!-- FuseSearchTableComponent -->
<g id="node3" class="node">
<title>FuseSearchTableComponent</title>
<polygon fill="#ffffb3" stroke="#000000" points="479.7338,-122 302.2662,-122 302.2662,-86 479.7338,-86 479.7338,-122"/>
<text text-anchor="middle" x="391" y="-99.8" font-family="Times,serif" font-size="14.00" fill="#000000">FuseSearchTableComponent</text>
</g>
<!-- FuseSearchTableComponent&#45;&gt;SearchModule -->
<g id="edge3" class="edge">
<title>FuseSearchTableComponent&#45;&gt;SearchModule</title>
<path fill="none" stroke="#000000" d="M391,-122.1061C391,-122.1061 391,-140.991 391,-140.991"/>
<polygon fill="#000000" stroke="#000000" points="387.5001,-140.9909 391,-150.991 394.5001,-140.991 387.5001,-140.9909"/>
</g>
<!-- SharedModule -->
<g id="node5" class="node">
<title>SharedModule</title>
<polygon fill="#8dd3c7" stroke="#000000" points="278.4231,-122 275.4231,-126 254.4231,-126 251.4231,-122 179.5769,-122 179.5769,-86 278.4231,-86 278.4231,-122"/>
<text text-anchor="middle" x="229" y="-99.8" font-family="Times,serif" font-size="14.00" fill="#000000">SharedModule</text>
</g>
<!-- SharedModule&#45;&gt;SearchModule -->
<g id="edge4" class="edge">
<title>SharedModule&#45;&gt;SearchModule</title>
<path fill="none" stroke="#000000" d="M229,-122.0225C229,-139.3734 229,-163 229,-163 229,-163 331.955,-163 331.955,-163"/>
<polygon fill="#000000" stroke="#000000" points="331.9551,-166.5001 341.955,-163 331.955,-159.5001 331.9551,-166.5001"/>
</g>
<!-- SearchService -->
<g id="node6" class="node">
<title>SearchService</title>
<ellipse fill="#fdb462" stroke="#000000" cx="90" cy="-104" rx="66.0281" ry="18"/>
<text text-anchor="middle" x="90" y="-99.8" font-family="Times,serif" font-size="14.00" fill="#000000">SearchService</text>
</g>
<!-- SearchService&#45;&gt;SearchModule -->
<g id="edge5" class="edge">
<title>SearchService&#45;&gt;SearchModule</title>
<path fill="none" stroke="#000000" d="M90,-122.2843C90,-143.3211 90,-175 90,-175 90,-175 332.3046,-175 332.3046,-175"/>
<polygon fill="#000000" stroke="#000000" points="332.3046,-178.5001 342.3046,-175 332.3046,-171.5001 332.3046,-178.5001"/>
</g>
</g>
</svg>
