<?xml version="1.0" encoding="UTF-8" standalone="no"?>
<!DOCTYPE svg PUBLIC "-//W3C//DTD SVG 1.1//EN"
 "http://www.w3.org/Graphics/SVG/1.1/DTD/svg11.dtd">
<!-- Generated by graphviz version 2.40.1 (20161225.0304)
 -->
<!-- Title: dependencies Pages: 1 -->
<svg width="1264pt" height="211pt"
 viewBox="0.00 0.00 1264.00 211.00" xmlns="http://www.w3.org/2000/svg" xmlns:xlink="http://www.w3.org/1999/xlink">
<g id="graph0" class="graph" transform="scale(1 1) rotate(0) translate(4 207)">
<title>dependencies</title>
<polygon fill="#ffffff" stroke="transparent" points="-4,4 -4,-207 1260,-207 1260,4 -4,4"/>
<text text-anchor="start" x="607.0091" y="-42.4" font-family="sans-serif" font-weight="bold" font-size="14.00" fill="#000000">Legend</text>
<polygon fill="#ffffb3" stroke="transparent" points="394,-10 394,-30 414,-30 414,-10 394,-10"/>
<text text-anchor="start" x="417.629" y="-15.4" font-family="sans-serif" font-size="14.00" fill="#000000"> &#160;Declarations</text>
<polygon fill="#8dd3c7" stroke="transparent" points="507,-10 507,-30 527,-30 527,-10 507,-10"/>
<text text-anchor="start" x="530.7251" y="-15.4" font-family="sans-serif" font-size="14.00" fill="#000000"> &#160;Module</text>
<polygon fill="#80b1d3" stroke="transparent" points="593,-10 593,-30 613,-30 613,-10 593,-10"/>
<text text-anchor="start" x="616.7812" y="-15.4" font-family="sans-serif" font-size="14.00" fill="#000000"> &#160;Bootstrap</text>
<polygon fill="#fdb462" stroke="transparent" points="690,-10 690,-30 710,-30 710,-10 690,-10"/>
<text text-anchor="start" x="713.6732" y="-15.4" font-family="sans-serif" font-size="14.00" fill="#000000"> &#160;Providers</text>
<polygon fill="#fb8072" stroke="transparent" points="786,-10 786,-30 806,-30 806,-10 786,-10"/>
<text text-anchor="start" x="809.7258" y="-15.4" font-family="sans-serif" font-size="14.00" fill="#000000"> &#160;Exports</text>
<g id="clust1" class="cluster">
<title>cluster_FuseTodoModule</title>
<polygon fill="none" stroke="#000000" stroke-dasharray="1,5" points="8,-70 8,-195 1248,-195 1248,-70 8,-70"/>
</g>
<g id="clust2" class="cluster">
<title>cluster_FuseTodoModule_declarations</title>
<polygon fill="none" stroke="#000000" points="282,-78 282,-130 1240,-130 1240,-78 282,-78"/>
</g>
<g id="clust8" class="cluster">
<title>cluster_FuseTodoModule_imports</title>
<polygon fill="none" stroke="#000000" points="160,-78 160,-130 274,-130 274,-78 160,-78"/>
</g>
<g id="clust11" class="cluster">
<title>cluster_FuseTodoModule_providers</title>
<polygon fill="none" stroke="#000000" points="16,-78 16,-130 152,-130 152,-78 16,-78"/>
</g>
<!-- FuseTodoComponent -->
<g id="node1" class="node">
<title>FuseTodoComponent</title>
<polygon fill="#ffffb3" stroke="#000000" points="1231.8272,-122 1094.1728,-122 1094.1728,-86 1231.8272,-86 1231.8272,-122"/>
<text text-anchor="middle" x="1163" y="-99.8" font-family="Times,serif" font-size="14.00" fill="#000000">FuseTodoComponent</text>
</g>
<!-- FuseTodoModule -->
<g id="node6" class="node">
<title>FuseTodoModule</title>
<polygon fill="#8dd3c7" stroke="#000000" points="621.5451,-187 618.5451,-191 597.5451,-191 594.5451,-187 506.4549,-187 506.4549,-151 621.5451,-151 621.5451,-187"/>
<text text-anchor="middle" x="564" y="-164.8" font-family="Times,serif" font-size="14.00" fill="#000000">FuseTodoModule</text>
</g>
<!-- FuseTodoComponent&#45;&gt;FuseTodoModule -->
<g id="edge1" class="edge">
<title>FuseTodoComponent&#45;&gt;FuseTodoModule</title>
<path fill="none" stroke="#000000" d="M1163,-122.2921C1163,-144.2057 1163,-178 1163,-178 1163,-178 631.7065,-178 631.7065,-178"/>
<polygon fill="#000000" stroke="#000000" points="631.7065,-174.5001 621.7065,-178 631.7065,-181.5001 631.7065,-174.5001"/>
</g>
<!-- FuseTodoMainSidenavComponent -->
<g id="node2" class="node">
<title>FuseTodoMainSidenavComponent</title>
<polygon fill="#ffffb3" stroke="#000000" points="1075.979,-122 864.021,-122 864.021,-86 1075.979,-86 1075.979,-122"/>
<text text-anchor="middle" x="970" y="-99.8" font-family="Times,serif" font-size="14.00" fill="#000000">FuseTodoMainSidenavComponent</text>
</g>
<!-- FuseTodoMainSidenavComponent&#45;&gt;FuseTodoModule -->
<g id="edge2" class="edge">
<title>FuseTodoMainSidenavComponent&#45;&gt;FuseTodoModule</title>
<path fill="none" stroke="#000000" d="M970,-122.1061C970,-141.3391 970,-169 970,-169 970,-169 631.7387,-169 631.7387,-169"/>
<polygon fill="#000000" stroke="#000000" points="631.7388,-165.5001 621.7387,-169 631.7387,-172.5001 631.7388,-165.5001"/>
</g>
<!-- FuseTodoListItemComponent -->
<g id="node3" class="node">
<title>FuseTodoListItemComponent</title>
<polygon fill="#ffffb3" stroke="#000000" points="846.2618,-122 661.7382,-122 661.7382,-86 846.2618,-86 846.2618,-122"/>
<text text-anchor="middle" x="754" y="-99.8" font-family="Times,serif" font-size="14.00" fill="#000000">FuseTodoListItemComponent</text>
</g>
<!-- FuseTodoListItemComponent&#45;&gt;FuseTodoModule -->
<g id="edge3" class="edge">
<title>FuseTodoListItemComponent&#45;&gt;FuseTodoModule</title>
<path fill="none" stroke="#000000" d="M754,-122.027C754,-138.3976 754,-160 754,-160 754,-160 631.7801,-160 631.7801,-160"/>
<polygon fill="#000000" stroke="#000000" points="631.7802,-156.5001 621.7801,-160 631.7801,-163.5001 631.7802,-156.5001"/>
</g>
<!-- FuseTodoListComponent -->
<g id="node4" class="node">
<title>FuseTodoListComponent</title>
<polygon fill="#ffffb3" stroke="#000000" points="643.6052,-122 484.3948,-122 484.3948,-86 643.6052,-86 643.6052,-122"/>
<text text-anchor="middle" x="564" y="-99.8" font-family="Times,serif" font-size="14.00" fill="#000000">FuseTodoListComponent</text>
</g>
<!-- FuseTodoListComponent&#45;&gt;FuseTodoModule -->
<g id="edge4" class="edge">
<title>FuseTodoListComponent&#45;&gt;FuseTodoModule</title>
<path fill="none" stroke="#000000" d="M564,-122.1061C564,-122.1061 564,-140.991 564,-140.991"/>
<polygon fill="#000000" stroke="#000000" points="560.5001,-140.9909 564,-150.991 567.5001,-140.991 560.5001,-140.9909"/>
</g>
<!-- FuseTodoDetailsComponent -->
<g id="node5" class="node">
<title>FuseTodoDetailsComponent</title>
<polygon fill="#ffffb3" stroke="#000000" points="466.479,-122 289.521,-122 289.521,-86 466.479,-86 466.479,-122"/>
<text text-anchor="middle" x="378" y="-99.8" font-family="Times,serif" font-size="14.00" fill="#000000">FuseTodoDetailsComponent</text>
</g>
<!-- FuseTodoDetailsComponent&#45;&gt;FuseTodoModule -->
<g id="edge5" class="edge">
<title>FuseTodoDetailsComponent&#45;&gt;FuseTodoModule</title>
<path fill="none" stroke="#000000" d="M378,-122.027C378,-138.3976 378,-160 378,-160 378,-160 496.4222,-160 496.4222,-160"/>
<polygon fill="#000000" stroke="#000000" points="496.4223,-163.5001 506.4222,-160 496.4222,-156.5001 496.4223,-163.5001"/>
</g>
<!-- SharedModule -->
<g id="node7" class="node">
<title>SharedModule</title>
<polygon fill="#8dd3c7" stroke="#000000" points="266.4231,-122 263.4231,-126 242.4231,-126 239.4231,-122 167.5769,-122 167.5769,-86 266.4231,-86 266.4231,-122"/>
<text text-anchor="middle" x="217" y="-99.8" font-family="Times,serif" font-size="14.00" fill="#000000">SharedModule</text>
</g>
<!-- SharedModule&#45;&gt;FuseTodoModule -->
<g id="edge6" class="edge">
<title>SharedModule&#45;&gt;FuseTodoModule</title>
<path fill="none" stroke="#000000" d="M217,-122.1061C217,-141.3391 217,-169 217,-169 217,-169 496.3105,-169 496.3105,-169"/>
<polygon fill="#000000" stroke="#000000" points="496.3105,-172.5001 506.3105,-169 496.3104,-165.5001 496.3105,-172.5001"/>
</g>
<!-- TodoService -->
<g id="node8" class="node">
<title>TodoService</title>
<ellipse fill="#fdb462" stroke="#000000" cx="84" cy="-104" rx="60.2537" ry="18"/>
<text text-anchor="middle" x="84" y="-99.8" font-family="Times,serif" font-size="14.00" fill="#000000">TodoService</text>
</g>
<!-- TodoService&#45;&gt;FuseTodoModule -->
<g id="edge7" class="edge">
<title>TodoService&#45;&gt;FuseTodoModule</title>
<path fill="none" stroke="#000000" d="M84,-122.2921C84,-144.2057 84,-178 84,-178 84,-178 496.1008,-178 496.1008,-178"/>
<polygon fill="#000000" stroke="#000000" points="496.1008,-181.5001 506.1008,-178 496.1007,-174.5001 496.1008,-181.5001"/>
</g>
</g>
</svg>
