<?xml version="1.0" encoding="UTF-8" standalone="no"?>
<!DOCTYPE svg PUBLIC "-//W3C//DTD SVG 1.1//EN"
 "http://www.w3.org/Graphics/SVG/1.1/DTD/svg11.dtd">
<!-- Generated by graphviz version 2.40.1 (20161225.0304)
 -->
<!-- Title: dependencies Pages: 1 -->
<svg width="1534pt" height="284pt"
 viewBox="0.00 0.00 1534.00 284.00" xmlns="http://www.w3.org/2000/svg" xmlns:xlink="http://www.w3.org/1999/xlink">
<g id="graph0" class="graph" transform="scale(1 1) rotate(0) translate(4 280)">
<title>dependencies</title>
<polygon fill="#ffffff" stroke="transparent" points="-4,4 -4,-280 1530,-280 1530,4 -4,4"/>
<text text-anchor="start" x="742.0091" y="-42.4" font-family="sans-serif" font-weight="bold" font-size="14.00" fill="#000000">Legend</text>
<polygon fill="#ffffb3" stroke="transparent" points="529,-10 529,-30 549,-30 549,-10 529,-10"/>
<text text-anchor="start" x="552.629" y="-15.4" font-family="sans-serif" font-size="14.00" fill="#000000"> &#160;Declarations</text>
<polygon fill="#8dd3c7" stroke="transparent" points="642,-10 642,-30 662,-30 662,-10 642,-10"/>
<text text-anchor="start" x="665.7251" y="-15.4" font-family="sans-serif" font-size="14.00" fill="#000000"> &#160;Module</text>
<polygon fill="#80b1d3" stroke="transparent" points="728,-10 728,-30 748,-30 748,-10 728,-10"/>
<text text-anchor="start" x="751.7812" y="-15.4" font-family="sans-serif" font-size="14.00" fill="#000000"> &#160;Bootstrap</text>
<polygon fill="#fdb462" stroke="transparent" points="825,-10 825,-30 845,-30 845,-10 825,-10"/>
<text text-anchor="start" x="848.6732" y="-15.4" font-family="sans-serif" font-size="14.00" fill="#000000"> &#160;Providers</text>
<polygon fill="#fb8072" stroke="transparent" points="921,-10 921,-30 941,-30 941,-10 921,-10"/>
<text text-anchor="start" x="944.7258" y="-15.4" font-family="sans-serif" font-size="14.00" fill="#000000"> &#160;Exports</text>
<g id="clust1" class="cluster">
<title>cluster_FuseNavigationModule</title>
<polygon fill="none" stroke="#000000" stroke-dasharray="1,5" points="8,-70 8,-268 1518,-268 1518,-70 8,-70"/>
</g>
<g id="clust2" class="cluster">
<title>cluster_FuseNavigationModule_declarations</title>
<polygon fill="none" stroke="#000000" points="138,-78 138,-130 1510,-130 1510,-78 138,-78"/>
</g>
<g id="clust9" class="cluster">
<title>cluster_FuseNavigationModule_imports</title>
<polygon fill="none" stroke="#000000" points="16,-78 16,-130 130,-130 130,-78 16,-78"/>
</g>
<g id="clust10" class="cluster">
<title>cluster_FuseNavigationModule_exports</title>
<polygon fill="none" stroke="#000000" points="656,-208 656,-260 846,-260 846,-208 656,-208"/>
</g>
<!-- FuseNavigationComponent -->
<g id="node1" class="node">
<title>FuseNavigationComponent</title>
<polygon fill="#ffffb3" stroke="#000000" points="1501.9818,-122 1332.0182,-122 1332.0182,-86 1501.9818,-86 1501.9818,-122"/>
<text text-anchor="middle" x="1417" y="-99.8" font-family="Times,serif" font-size="14.00" fill="#000000">FuseNavigationComponent</text>
</g>
<!-- FuseNavigationModule -->
<g id="node7" class="node">
<title>FuseNavigationModule</title>
<polygon fill="#8dd3c7" stroke="#000000" points="825.1993,-187 822.1993,-191 801.1993,-191 798.1993,-187 676.8007,-187 676.8007,-151 825.1993,-151 825.1993,-187"/>
<text text-anchor="middle" x="751" y="-164.8" font-family="Times,serif" font-size="14.00" fill="#000000">FuseNavigationModule</text>
</g>
<!-- FuseNavigationComponent&#45;&gt;FuseNavigationModule -->
<g id="edge1" class="edge">
<title>FuseNavigationComponent&#45;&gt;FuseNavigationModule</title>
<path fill="none" stroke="#000000" d="M1417,-122.2921C1417,-144.2057 1417,-178 1417,-178 1417,-178 835.1389,-178 835.1389,-178"/>
<polygon fill="#000000" stroke="#000000" points="835.1389,-174.5001 825.1389,-178 835.1389,-181.5001 835.1389,-174.5001"/>
</g>
<!-- FuseNavVerticalGroupComponent -->
<g id="node2" class="node">
<title>FuseNavVerticalGroupComponent</title>
<polygon fill="#ffffb3" stroke="#000000" points="1313.9454,-122 1102.0546,-122 1102.0546,-86 1313.9454,-86 1313.9454,-122"/>
<text text-anchor="middle" x="1208" y="-99.8" font-family="Times,serif" font-size="14.00" fill="#000000">FuseNavVerticalGroupComponent</text>
</g>
<!-- FuseNavVerticalGroupComponent&#45;&gt;FuseNavigationModule -->
<g id="edge2" class="edge">
<title>FuseNavVerticalGroupComponent&#45;&gt;FuseNavigationModule</title>
<path fill="none" stroke="#000000" d="M1208,-122.1061C1208,-141.3391 1208,-169 1208,-169 1208,-169 835.1873,-169 835.1873,-169"/>
<polygon fill="#000000" stroke="#000000" points="835.1873,-165.5001 825.1873,-169 835.1873,-172.5001 835.1873,-165.5001"/>
</g>
<!-- FuseNavVerticalItemComponent -->
<g id="node3" class="node">
<title>FuseNavVerticalItemComponent</title>
<polygon fill="#ffffb3" stroke="#000000" points="1083.8347,-122 882.1653,-122 882.1653,-86 1083.8347,-86 1083.8347,-122"/>
<text text-anchor="middle" x="983" y="-99.8" font-family="Times,serif" font-size="14.00" fill="#000000">FuseNavVerticalItemComponent</text>
</g>
<!-- FuseNavVerticalItemComponent&#45;&gt;FuseNavigationModule -->
<g id="edge3" class="edge">
<title>FuseNavVerticalItemComponent&#45;&gt;FuseNavigationModule</title>
<path fill="none" stroke="#000000" d="M983,-122.027C983,-138.3976 983,-160 983,-160 983,-160 835.3635,-160 835.3635,-160"/>
<polygon fill="#000000" stroke="#000000" points="835.3636,-156.5001 825.3635,-160 835.3635,-163.5001 835.3636,-156.5001"/>
</g>
<!-- FuseNavVerticalCollapseComponent -->
<g id="node4" class="node">
<title>FuseNavVerticalCollapseComponent</title>
<polygon fill="#ffffb3" stroke="#000000" points="863.6699,-122 638.3301,-122 638.3301,-86 863.6699,-86 863.6699,-122"/>
<text text-anchor="middle" x="751" y="-99.8" font-family="Times,serif" font-size="14.00" fill="#000000">FuseNavVerticalCollapseComponent</text>
</g>
<!-- FuseNavVerticalCollapseComponent&#45;&gt;FuseNavigationModule -->
<g id="edge4" class="edge">
<title>FuseNavVerticalCollapseComponent&#45;&gt;FuseNavigationModule</title>
<path fill="none" stroke="#000000" d="M751,-122.1061C751,-122.1061 751,-140.991 751,-140.991"/>
<polygon fill="#000000" stroke="#000000" points="747.5001,-140.9909 751,-150.991 754.5001,-140.991 747.5001,-140.9909"/>
</g>
<!-- FuseNavHorizontalItemComponent -->
<g id="node5" class="node">
<title>FuseNavHorizontalItemComponent</title>
<polygon fill="#ffffb3" stroke="#000000" points="620.1203,-122 403.8797,-122 403.8797,-86 620.1203,-86 620.1203,-122"/>
<text text-anchor="middle" x="512" y="-99.8" font-family="Times,serif" font-size="14.00" fill="#000000">FuseNavHorizontalItemComponent</text>
</g>
<!-- FuseNavHorizontalItemComponent&#45;&gt;FuseNavigationModule -->
<g id="edge5" class="edge">
<title>FuseNavHorizontalItemComponent&#45;&gt;FuseNavigationModule</title>
<path fill="none" stroke="#000000" d="M512,-122.027C512,-138.3976 512,-160 512,-160 512,-160 666.689,-160 666.689,-160"/>
<polygon fill="#000000" stroke="#000000" points="666.689,-163.5001 676.689,-160 666.689,-156.5001 666.689,-163.5001"/>
</g>
<!-- FuseNavHorizontalCollapseComponent -->
<g id="node6" class="node">
<title>FuseNavHorizontalCollapseComponent</title>
<polygon fill="#ffffb3" stroke="#000000" points="385.9552,-122 146.0448,-122 146.0448,-86 385.9552,-86 385.9552,-122"/>
<text text-anchor="middle" x="266" y="-99.8" font-family="Times,serif" font-size="14.00" fill="#000000">FuseNavHorizontalCollapseComponent</text>
</g>
<!-- FuseNavHorizontalCollapseComponent&#45;&gt;FuseNavigationModule -->
<g id="edge6" class="edge">
<title>FuseNavHorizontalCollapseComponent&#45;&gt;FuseNavigationModule</title>
<path fill="none" stroke="#000000" d="M266,-122.1061C266,-141.3391 266,-169 266,-169 266,-169 666.811,-169 666.811,-169"/>
<polygon fill="#000000" stroke="#000000" points="666.811,-172.5001 676.811,-169 666.811,-165.5001 666.811,-172.5001"/>
</g>
<!-- FuseNavigationComponent  -->
<g id="node9" class="node">
<title>FuseNavigationComponent </title>
<polygon fill="#fb8072" stroke="#000000" points="837.9825,-252 664.0175,-252 664.0175,-216 837.9825,-216 837.9825,-252"/>
<text text-anchor="middle" x="751" y="-229.8" font-family="Times,serif" font-size="14.00" fill="#000000">FuseNavigationComponent </text>
</g>
<!-- FuseNavigationModule&#45;&gt;FuseNavigationComponent  -->
<g id="edge8" class="edge">
<title>FuseNavigationModule&#45;&gt;FuseNavigationComponent </title>
<path fill="none" stroke="#000000" stroke-dasharray="5,2" d="M751,-187.1061C751,-187.1061 751,-205.991 751,-205.991"/>
<polygon fill="#000000" stroke="#000000" points="747.5001,-205.9909 751,-215.991 754.5001,-205.991 747.5001,-205.9909"/>
</g>
<!-- SharedModule -->
<g id="node8" class="node">
<title>SharedModule</title>
<polygon fill="#8dd3c7" stroke="#000000" points="122.4231,-122 119.4231,-126 98.4231,-126 95.4231,-122 23.5769,-122 23.5769,-86 122.4231,-86 122.4231,-122"/>
<text text-anchor="middle" x="73" y="-99.8" font-family="Times,serif" font-size="14.00" fill="#000000">SharedModule</text>
</g>
<!-- SharedModule&#45;&gt;FuseNavigationModule -->
<g id="edge7" class="edge">
<title>SharedModule&#45;&gt;FuseNavigationModule</title>
<path fill="none" stroke="#000000" d="M73,-122.2921C73,-144.2057 73,-178 73,-178 73,-178 666.8274,-178 666.8274,-178"/>
<polygon fill="#000000" stroke="#000000" points="666.8274,-181.5001 676.8274,-178 666.8273,-174.5001 666.8274,-181.5001"/>
</g>
</g>
</svg>
