<?xml version="1.0" encoding="UTF-8" standalone="no"?>
<!DOCTYPE svg PUBLIC "-//W3C//DTD SVG 1.1//EN"
 "http://www.w3.org/Graphics/SVG/1.1/DTD/svg11.dtd">
<!-- Generated by graphviz version 2.40.1 (20161225.0304)
 -->
<!-- Title: dependencies Pages: 1 -->
<svg width="570pt" height="284pt"
 viewBox="0.00 0.00 570.00 284.00" xmlns="http://www.w3.org/2000/svg" xmlns:xlink="http://www.w3.org/1999/xlink">
<g id="graph0" class="graph" transform="scale(1 1) rotate(0) translate(4 280)">
<title>dependencies</title>
<polygon fill="#ffffff" stroke="transparent" points="-4,4 -4,-280 566,-280 566,4 -4,4"/>
<text text-anchor="start" x="260.0091" y="-42.4" font-family="sans-serif" font-weight="bold" font-size="14.00" fill="#000000">Legend</text>
<polygon fill="#ffffb3" stroke="transparent" points="47,-10 47,-30 67,-30 67,-10 47,-10"/>
<text text-anchor="start" x="70.629" y="-15.4" font-family="sans-serif" font-size="14.00" fill="#000000"> &#160;Declarations</text>
<polygon fill="#8dd3c7" stroke="transparent" points="160,-10 160,-30 180,-30 180,-10 160,-10"/>
<text text-anchor="start" x="183.7251" y="-15.4" font-family="sans-serif" font-size="14.00" fill="#000000"> &#160;Module</text>
<polygon fill="#80b1d3" stroke="transparent" points="246,-10 246,-30 266,-30 266,-10 246,-10"/>
<text text-anchor="start" x="269.7812" y="-15.4" font-family="sans-serif" font-size="14.00" fill="#000000"> &#160;Bootstrap</text>
<polygon fill="#fdb462" stroke="transparent" points="343,-10 343,-30 363,-30 363,-10 343,-10"/>
<text text-anchor="start" x="366.6732" y="-15.4" font-family="sans-serif" font-size="14.00" fill="#000000"> &#160;Providers</text>
<polygon fill="#fb8072" stroke="transparent" points="439,-10 439,-30 459,-30 459,-10 439,-10"/>
<text text-anchor="start" x="462.7258" y="-15.4" font-family="sans-serif" font-size="14.00" fill="#000000"> &#160;Exports</text>
<g id="clust1" class="cluster">
<title>cluster_FuseDemoModule</title>
<polygon fill="none" stroke="#000000" stroke-dasharray="1,5" points="8,-70 8,-268 554,-268 554,-70 8,-70"/>
</g>
<g id="clust2" class="cluster">
<title>cluster_FuseDemoModule_declarations</title>
<polygon fill="none" stroke="#000000" points="138,-78 138,-130 546,-130 546,-78 138,-78"/>
</g>
<g id="clust5" class="cluster">
<title>cluster_FuseDemoModule_imports</title>
<polygon fill="none" stroke="#000000" points="16,-78 16,-130 130,-130 130,-78 16,-78"/>
</g>
<g id="clust6" class="cluster">
<title>cluster_FuseDemoModule_exports</title>
<polygon fill="none" stroke="#000000" points="74,-208 74,-260 488,-260 488,-208 74,-208"/>
</g>
<!-- FuseDemoContentComponent -->
<g id="node1" class="node">
<title>FuseDemoContentComponent</title>
<polygon fill="#ffffb3" stroke="#000000" points="538.3187,-122 351.6813,-122 351.6813,-86 538.3187,-86 538.3187,-122"/>
<text text-anchor="middle" x="445" y="-99.8" font-family="Times,serif" font-size="14.00" fill="#000000">FuseDemoContentComponent</text>
</g>
<!-- FuseDemoModule -->
<g id="node3" class="node">
<title>FuseDemoModule</title>
<polygon fill="#8dd3c7" stroke="#000000" points="300.2036,-187 297.2036,-191 276.2036,-191 273.2036,-187 179.7964,-187 179.7964,-151 300.2036,-151 300.2036,-187"/>
<text text-anchor="middle" x="240" y="-164.8" font-family="Times,serif" font-size="14.00" fill="#000000">FuseDemoModule</text>
</g>
<!-- FuseDemoContentComponent&#45;&gt;FuseDemoModule -->
<g id="edge1" class="edge">
<title>FuseDemoContentComponent&#45;&gt;FuseDemoModule</title>
<path fill="none" stroke="#000000" d="M415.875,-122.1061C415.875,-141.3391 415.875,-169 415.875,-169 415.875,-169 310.5262,-169 310.5262,-169"/>
<polygon fill="#000000" stroke="#000000" points="310.5262,-165.5001 300.5262,-169 310.5262,-172.5001 310.5262,-165.5001"/>
</g>
<!-- FuseDemoSidenavComponent -->
<g id="node2" class="node">
<title>FuseDemoSidenavComponent</title>
<polygon fill="#ffffb3" stroke="#000000" points="333.5884,-122 146.4116,-122 146.4116,-86 333.5884,-86 333.5884,-122"/>
<text text-anchor="middle" x="240" y="-99.8" font-family="Times,serif" font-size="14.00" fill="#000000">FuseDemoSidenavComponent</text>
</g>
<!-- FuseDemoSidenavComponent&#45;&gt;FuseDemoModule -->
<g id="edge2" class="edge">
<title>FuseDemoSidenavComponent&#45;&gt;FuseDemoModule</title>
<path fill="none" stroke="#000000" d="M240,-122.1061C240,-122.1061 240,-140.991 240,-140.991"/>
<polygon fill="#000000" stroke="#000000" points="236.5001,-140.9909 240,-150.991 243.5001,-140.991 236.5001,-140.9909"/>
</g>
<!-- FuseDemoContentComponent  -->
<g id="node5" class="node">
<title>FuseDemoContentComponent </title>
<polygon fill="#fb8072" stroke="#000000" points="479.8185,-252 290.1815,-252 290.1815,-216 479.8185,-216 479.8185,-252"/>
<text text-anchor="middle" x="385" y="-229.8" font-family="Times,serif" font-size="14.00" fill="#000000">FuseDemoContentComponent </text>
</g>
<!-- FuseDemoModule&#45;&gt;FuseDemoContentComponent  -->
<g id="edge4" class="edge">
<title>FuseDemoModule&#45;&gt;FuseDemoContentComponent </title>
<path fill="none" stroke="#000000" stroke-dasharray="5,2" d="M295.0963,-187.1061C295.0963,-187.1061 295.0963,-205.991 295.0963,-205.991"/>
<polygon fill="#000000" stroke="#000000" points="291.5963,-205.9909 295.0963,-215.991 298.5963,-205.991 291.5963,-205.9909"/>
</g>
<!-- FuseDemoSidenavComponent  -->
<g id="node6" class="node">
<title>FuseDemoSidenavComponent </title>
<polygon fill="#fb8072" stroke="#000000" points="272.0888,-252 81.9112,-252 81.9112,-216 272.0888,-216 272.0888,-252"/>
<text text-anchor="middle" x="177" y="-229.8" font-family="Times,serif" font-size="14.00" fill="#000000">FuseDemoSidenavComponent </text>
</g>
<!-- FuseDemoModule&#45;&gt;FuseDemoSidenavComponent  -->
<g id="edge5" class="edge">
<title>FuseDemoModule&#45;&gt;FuseDemoSidenavComponent </title>
<path fill="none" stroke="#000000" stroke-dasharray="5,2" d="M226.0963,-187.1061C226.0963,-187.1061 226.0963,-205.991 226.0963,-205.991"/>
<polygon fill="#000000" stroke="#000000" points="222.5963,-205.9909 226.0963,-215.991 229.5963,-205.991 222.5963,-205.9909"/>
</g>
<!-- SharedModule -->
<g id="node4" class="node">
<title>SharedModule</title>
<polygon fill="#8dd3c7" stroke="#000000" points="122.4231,-122 119.4231,-126 98.4231,-126 95.4231,-122 23.5769,-122 23.5769,-86 122.4231,-86 122.4231,-122"/>
<text text-anchor="middle" x="73" y="-99.8" font-family="Times,serif" font-size="14.00" fill="#000000">SharedModule</text>
</g>
<!-- SharedModule&#45;&gt;FuseDemoModule -->
<g id="edge3" class="edge">
<title>SharedModule&#45;&gt;FuseDemoModule</title>
<path fill="none" stroke="#000000" d="M101.9585,-122.1061C101.9585,-141.3391 101.9585,-169 101.9585,-169 101.9585,-169 169.8545,-169 169.8545,-169"/>
<polygon fill="#000000" stroke="#000000" points="169.8546,-172.5001 179.8545,-169 169.8545,-165.5001 169.8546,-172.5001"/>
</g>
</g>
</svg>
