<?xml version="1.0" encoding="UTF-8" standalone="no"?>
<!DOCTYPE svg PUBLIC "-//W3C//DTD SVG 1.1//EN"
 "http://www.w3.org/Graphics/SVG/1.1/DTD/svg11.dtd">
<!-- Generated by graphviz version 2.40.1 (20161225.0304)
 -->
<!-- Title: dependencies Pages: 1 -->
<svg width="504pt" height="211pt"
 viewBox="0.00 0.00 504.00 211.00" xmlns="http://www.w3.org/2000/svg" xmlns:xlink="http://www.w3.org/1999/xlink">
<g id="graph0" class="graph" transform="scale(1 1) rotate(0) translate(4 207)">
<title>dependencies</title>
<polygon fill="#ffffff" stroke="transparent" points="-4,4 -4,-207 500,-207 500,4 -4,4"/>
<text text-anchor="start" x="227.0091" y="-42.4" font-family="sans-serif" font-weight="bold" font-size="14.00" fill="#000000">Legend</text>
<polygon fill="#ffffb3" stroke="transparent" points="14,-10 14,-30 34,-30 34,-10 14,-10"/>
<text text-anchor="start" x="37.629" y="-15.4" font-family="sans-serif" font-size="14.00" fill="#000000"> &#160;Declarations</text>
<polygon fill="#8dd3c7" stroke="transparent" points="127,-10 127,-30 147,-30 147,-10 127,-10"/>
<text text-anchor="start" x="150.7251" y="-15.4" font-family="sans-serif" font-size="14.00" fill="#000000"> &#160;Module</text>
<polygon fill="#80b1d3" stroke="transparent" points="213,-10 213,-30 233,-30 233,-10 213,-10"/>
<text text-anchor="start" x="236.7812" y="-15.4" font-family="sans-serif" font-size="14.00" fill="#000000"> &#160;Bootstrap</text>
<polygon fill="#fdb462" stroke="transparent" points="310,-10 310,-30 330,-30 330,-10 310,-10"/>
<text text-anchor="start" x="333.6732" y="-15.4" font-family="sans-serif" font-size="14.00" fill="#000000"> &#160;Providers</text>
<polygon fill="#fb8072" stroke="transparent" points="406,-10 406,-30 426,-30 426,-10 406,-10"/>
<text text-anchor="start" x="429.7258" y="-15.4" font-family="sans-serif" font-size="14.00" fill="#000000"> &#160;Exports</text>
<g id="clust1" class="cluster">
<title>cluster_ResetPasswordModule</title>
<polygon fill="none" stroke="#000000" stroke-dasharray="1,5" points="75,-70 75,-195 421,-195 421,-70 75,-70"/>
</g>
<g id="clust2" class="cluster">
<title>cluster_ResetPasswordModule_declarations</title>
<polygon fill="none" stroke="#000000" points="205,-78 205,-130 413,-130 413,-78 205,-78"/>
</g>
<g id="clust4" class="cluster">
<title>cluster_ResetPasswordModule_imports</title>
<polygon fill="none" stroke="#000000" points="83,-78 83,-130 197,-130 197,-78 83,-78"/>
</g>
<!-- FuseResetPasswordComponent -->
<g id="node1" class="node">
<title>FuseResetPasswordComponent</title>
<polygon fill="#ffffb3" stroke="#000000" points="405.0294,-122 212.9706,-122 212.9706,-86 405.0294,-86 405.0294,-122"/>
<text text-anchor="middle" x="309" y="-99.8" font-family="Times,serif" font-size="14.00" fill="#000000">FuseResetPasswordComponent</text>
</g>
<!-- ResetPasswordModule -->
<g id="node2" class="node">
<title>ResetPasswordModule</title>
<polygon fill="#8dd3c7" stroke="#000000" points="304.3047,-187 301.3047,-191 280.3047,-191 277.3047,-187 159.6953,-187 159.6953,-151 304.3047,-151 304.3047,-187"/>
<text text-anchor="middle" x="232" y="-164.8" font-family="Times,serif" font-size="14.00" fill="#000000">ResetPasswordModule</text>
</g>
<!-- FuseResetPasswordComponent&#45;&gt;ResetPasswordModule -->
<g id="edge1" class="edge">
<title>FuseResetPasswordComponent&#45;&gt;ResetPasswordModule</title>
<path fill="none" stroke="#000000" d="M258.4439,-122.1061C258.4439,-122.1061 258.4439,-140.991 258.4439,-140.991"/>
<polygon fill="#000000" stroke="#000000" points="254.944,-140.9909 258.4439,-150.991 261.944,-140.991 254.944,-140.9909"/>
</g>
<!-- SharedModule -->
<g id="node3" class="node">
<title>SharedModule</title>
<polygon fill="#8dd3c7" stroke="#000000" points="189.4231,-122 186.4231,-126 165.4231,-126 162.4231,-122 90.5769,-122 90.5769,-86 189.4231,-86 189.4231,-122"/>
<text text-anchor="middle" x="140" y="-99.8" font-family="Times,serif" font-size="14.00" fill="#000000">SharedModule</text>
</g>
<!-- SharedModule&#45;&gt;ResetPasswordModule -->
<g id="edge2" class="edge">
<title>SharedModule&#45;&gt;ResetPasswordModule</title>
<path fill="none" stroke="#000000" d="M174.5295,-122.1061C174.5295,-122.1061 174.5295,-140.991 174.5295,-140.991"/>
<polygon fill="#000000" stroke="#000000" points="171.0295,-140.9909 174.5295,-150.991 178.0295,-140.991 171.0295,-140.9909"/>
</g>
</g>
</svg>
