<?xml version="1.0" encoding="UTF-8" standalone="no"?>
<!DOCTYPE svg PUBLIC "-//W3C//DTD SVG 1.1//EN"
 "http://www.w3.org/Graphics/SVG/1.1/DTD/svg11.dtd">
<!-- Generated by graphviz version 2.40.1 (20161225.0304)
 -->
<!-- Title: dependencies Pages: 1 -->
<svg width="504pt" height="211pt"
 viewBox="0.00 0.00 504.00 211.00" xmlns="http://www.w3.org/2000/svg" xmlns:xlink="http://www.w3.org/1999/xlink">
<g id="graph0" class="graph" transform="scale(1 1) rotate(0) translate(4 207)">
<title>dependencies</title>
<polygon fill="#ffffff" stroke="transparent" points="-4,4 -4,-207 500,-207 500,4 -4,4"/>
<text text-anchor="start" x="227.0091" y="-42.4" font-family="sans-serif" font-weight="bold" font-size="14.00" fill="#000000">Legend</text>
<polygon fill="#ffffb3" stroke="transparent" points="14,-10 14,-30 34,-30 34,-10 14,-10"/>
<text text-anchor="start" x="37.629" y="-15.4" font-family="sans-serif" font-size="14.00" fill="#000000"> &#160;Declarations</text>
<polygon fill="#8dd3c7" stroke="transparent" points="127,-10 127,-30 147,-30 147,-10 127,-10"/>
<text text-anchor="start" x="150.7251" y="-15.4" font-family="sans-serif" font-size="14.00" fill="#000000"> &#160;Module</text>
<polygon fill="#80b1d3" stroke="transparent" points="213,-10 213,-30 233,-30 233,-10 213,-10"/>
<text text-anchor="start" x="236.7812" y="-15.4" font-family="sans-serif" font-size="14.00" fill="#000000"> &#160;Bootstrap</text>
<polygon fill="#fdb462" stroke="transparent" points="310,-10 310,-30 330,-30 330,-10 310,-10"/>
<text text-anchor="start" x="333.6732" y="-15.4" font-family="sans-serif" font-size="14.00" fill="#000000"> &#160;Providers</text>
<polygon fill="#fb8072" stroke="transparent" points="406,-10 406,-30 426,-30 426,-10 406,-10"/>
<text text-anchor="start" x="429.7258" y="-15.4" font-family="sans-serif" font-size="14.00" fill="#000000"> &#160;Exports</text>
<g id="clust1" class="cluster">
<title>cluster_Error404Module</title>
<polygon fill="none" stroke="#000000" stroke-dasharray="1,5" points="92,-70 92,-195 404,-195 404,-70 92,-70"/>
</g>
<g id="clust2" class="cluster">
<title>cluster_Error404Module_declarations</title>
<polygon fill="none" stroke="#000000" points="222,-78 222,-130 396,-130 396,-78 222,-78"/>
</g>
<g id="clust4" class="cluster">
<title>cluster_Error404Module_imports</title>
<polygon fill="none" stroke="#000000" points="100,-78 100,-130 214,-130 214,-78 100,-78"/>
</g>
<!-- FuseError404Component -->
<g id="node1" class="node">
<title>FuseError404Component</title>
<polygon fill="#ffffb3" stroke="#000000" points="388.3089,-122 229.6911,-122 229.6911,-86 388.3089,-86 388.3089,-122"/>
<text text-anchor="middle" x="309" y="-99.8" font-family="Times,serif" font-size="14.00" fill="#000000">FuseError404Component</text>
</g>
<!-- Error404Module -->
<g id="node2" class="node">
<title>Error404Module</title>
<polygon fill="#8dd3c7" stroke="#000000" points="288.0842,-187 285.0842,-191 264.0842,-191 261.0842,-187 177.9158,-187 177.9158,-151 288.0842,-151 288.0842,-187"/>
<text text-anchor="middle" x="233" y="-164.8" font-family="Times,serif" font-size="14.00" fill="#000000">Error404Module</text>
</g>
<!-- FuseError404Component&#45;&gt;Error404Module -->
<g id="edge1" class="edge">
<title>FuseError404Component&#45;&gt;Error404Module</title>
<path fill="none" stroke="#000000" d="M258.9439,-122.1061C258.9439,-122.1061 258.9439,-140.991 258.9439,-140.991"/>
<polygon fill="#000000" stroke="#000000" points="255.444,-140.9909 258.9439,-150.991 262.444,-140.991 255.444,-140.9909"/>
</g>
<!-- SharedModule -->
<g id="node3" class="node">
<title>SharedModule</title>
<polygon fill="#8dd3c7" stroke="#000000" points="206.4231,-122 203.4231,-126 182.4231,-126 179.4231,-122 107.5769,-122 107.5769,-86 206.4231,-86 206.4231,-122"/>
<text text-anchor="middle" x="157" y="-99.8" font-family="Times,serif" font-size="14.00" fill="#000000">SharedModule</text>
</g>
<!-- SharedModule&#45;&gt;Error404Module -->
<g id="edge2" class="edge">
<title>SharedModule&#45;&gt;Error404Module</title>
<path fill="none" stroke="#000000" d="M192.0845,-122.1061C192.0845,-122.1061 192.0845,-140.991 192.0845,-140.991"/>
<polygon fill="#000000" stroke="#000000" points="188.5846,-140.9909 192.0845,-150.991 195.5846,-140.991 188.5846,-140.9909"/>
</g>
</g>
</svg>
