<?xml version="1.0" encoding="UTF-8" standalone="no"?>
<!DOCTYPE svg PUBLIC "-//W3C//DTD SVG 1.1//EN"
 "http://www.w3.org/Graphics/SVG/1.1/DTD/svg11.dtd">
<!-- Generated by graphviz version 2.40.1 (20161225.0304)
 -->
<!-- Title: dependencies Pages: 1 -->
<svg width="2381pt" height="284pt"
 viewBox="0.00 0.00 2381.00 284.00" xmlns="http://www.w3.org/2000/svg" xmlns:xlink="http://www.w3.org/1999/xlink">
<g id="graph0" class="graph" transform="scale(1 1) rotate(0) translate(4 280)">
<title>dependencies</title>
<polygon fill="#ffffff" stroke="transparent" points="-4,4 -4,-280 2377,-280 2377,4 -4,4"/>
<text text-anchor="start" x="1165.5091" y="-42.4" font-family="sans-serif" font-weight="bold" font-size="14.00" fill="#000000">Legend</text>
<polygon fill="#ffffb3" stroke="transparent" points="952.5,-10 952.5,-30 972.5,-30 972.5,-10 952.5,-10"/>
<text text-anchor="start" x="976.129" y="-15.4" font-family="sans-serif" font-size="14.00" fill="#000000"> &#160;Declarations</text>
<polygon fill="#8dd3c7" stroke="transparent" points="1065.5,-10 1065.5,-30 1085.5,-30 1085.5,-10 1065.5,-10"/>
<text text-anchor="start" x="1089.2251" y="-15.4" font-family="sans-serif" font-size="14.00" fill="#000000"> &#160;Module</text>
<polygon fill="#80b1d3" stroke="transparent" points="1151.5,-10 1151.5,-30 1171.5,-30 1171.5,-10 1151.5,-10"/>
<text text-anchor="start" x="1175.2812" y="-15.4" font-family="sans-serif" font-size="14.00" fill="#000000"> &#160;Bootstrap</text>
<polygon fill="#fdb462" stroke="transparent" points="1248.5,-10 1248.5,-30 1268.5,-30 1268.5,-10 1248.5,-10"/>
<text text-anchor="start" x="1272.1732" y="-15.4" font-family="sans-serif" font-size="14.00" fill="#000000"> &#160;Providers</text>
<polygon fill="#fb8072" stroke="transparent" points="1344.5,-10 1344.5,-30 1364.5,-30 1364.5,-10 1344.5,-10"/>
<text text-anchor="start" x="1368.2258" y="-15.4" font-family="sans-serif" font-size="14.00" fill="#000000"> &#160;Exports</text>
<g id="clust1" class="cluster">
<title>cluster_FuseMainModule</title>
<polygon fill="none" stroke="#000000" stroke-dasharray="1,5" points="8,-70 8,-268 2365,-268 2365,-70 8,-70"/>
</g>
<g id="clust2" class="cluster">
<title>cluster_FuseMainModule_declarations</title>
<polygon fill="none" stroke="#000000" points="624,-78 624,-130 2357,-130 2357,-78 624,-78"/>
</g>
<g id="clust12" class="cluster">
<title>cluster_FuseMainModule_imports</title>
<polygon fill="none" stroke="#000000" points="16,-78 16,-130 616,-130 616,-78 16,-78"/>
</g>
<g id="clust13" class="cluster">
<title>cluster_FuseMainModule_exports</title>
<polygon fill="none" stroke="#000000" points="1065,-208 1065,-260 1221,-260 1221,-208 1065,-208"/>
</g>
<!-- FuseContentComponent -->
<g id="node1" class="node">
<title>FuseContentComponent</title>
<polygon fill="#ffffb3" stroke="#000000" points="2349.1066,-122 2196.8934,-122 2196.8934,-86 2349.1066,-86 2349.1066,-122"/>
<text text-anchor="middle" x="2273" y="-99.8" font-family="Times,serif" font-size="14.00" fill="#000000">FuseContentComponent</text>
</g>
<!-- FuseMainModule -->
<g id="node10" class="node">
<title>FuseMainModule</title>
<polygon fill="#8dd3c7" stroke="#000000" points="1200.5423,-187 1197.5423,-191 1176.5423,-191 1173.5423,-187 1085.4577,-187 1085.4577,-151 1200.5423,-151 1200.5423,-187"/>
<text text-anchor="middle" x="1143" y="-164.8" font-family="Times,serif" font-size="14.00" fill="#000000">FuseMainModule</text>
</g>
<!-- FuseContentComponent&#45;&gt;FuseMainModule -->
<g id="edge1" class="edge">
<title>FuseContentComponent&#45;&gt;FuseMainModule</title>
<path fill="none" stroke="#000000" d="M2273,-122.0908C2273,-145.1328 2273,-182 2273,-182 2273,-182 1210.5904,-182 1210.5904,-182"/>
<polygon fill="#000000" stroke="#000000" points="1210.5904,-178.5001 1200.5904,-182 1210.5904,-185.5001 1210.5904,-178.5001"/>
</g>
<!-- FuseFooterComponent -->
<g id="node2" class="node">
<title>FuseFooterComponent</title>
<polygon fill="#ffffb3" stroke="#000000" points="2179.323,-122 2034.677,-122 2034.677,-86 2179.323,-86 2179.323,-122"/>
<text text-anchor="middle" x="2107" y="-99.8" font-family="Times,serif" font-size="14.00" fill="#000000">FuseFooterComponent</text>
</g>
<!-- FuseFooterComponent&#45;&gt;FuseMainModule -->
<g id="edge2" class="edge">
<title>FuseFooterComponent&#45;&gt;FuseMainModule</title>
<path fill="none" stroke="#000000" d="M2107,-122.0449C2107,-143.6623 2107,-177 2107,-177 2107,-177 1210.7731,-177 1210.7731,-177"/>
<polygon fill="#000000" stroke="#000000" points="1210.7732,-173.5001 1200.7731,-177 1210.7731,-180.5001 1210.7732,-173.5001"/>
</g>
<!-- FuseMainComponent -->
<g id="node3" class="node">
<title>FuseMainComponent</title>
<polygon fill="#ffffb3" stroke="#000000" points="2016.8244,-122 1879.1756,-122 1879.1756,-86 2016.8244,-86 2016.8244,-122"/>
<text text-anchor="middle" x="1948" y="-99.8" font-family="Times,serif" font-size="14.00" fill="#000000">FuseMainComponent</text>
</g>
<!-- FuseMainComponent&#45;&gt;FuseMainModule -->
<g id="edge3" class="edge">
<title>FuseMainComponent&#45;&gt;FuseMainModule</title>
<path fill="none" stroke="#000000" d="M1948,-122.2228C1948,-142.3652 1948,-172 1948,-172 1948,-172 1210.5706,-172 1210.5706,-172"/>
<polygon fill="#000000" stroke="#000000" points="1210.5706,-168.5001 1200.5706,-172 1210.5705,-175.5001 1210.5706,-168.5001"/>
</g>
<!-- FuseNavbarVerticalComponent -->
<g id="node4" class="node">
<title>FuseNavbarVerticalComponent</title>
<polygon fill="#ffffb3" stroke="#000000" points="1861.0534,-122 1666.9466,-122 1666.9466,-86 1861.0534,-86 1861.0534,-122"/>
<text text-anchor="middle" x="1764" y="-99.8" font-family="Times,serif" font-size="14.00" fill="#000000">FuseNavbarVerticalComponent</text>
</g>
<!-- FuseNavbarVerticalComponent&#45;&gt;FuseMainModule -->
<g id="edge4" class="edge">
<title>FuseNavbarVerticalComponent&#45;&gt;FuseMainModule</title>
<path fill="none" stroke="#000000" d="M1764,-122.2222C1764,-140.8285 1764,-167 1764,-167 1764,-167 1210.5865,-167 1210.5865,-167"/>
<polygon fill="#000000" stroke="#000000" points="1210.5866,-163.5001 1200.5865,-167 1210.5865,-170.5001 1210.5866,-163.5001"/>
</g>
<!-- FuseNavbarHorizontalComponent -->
<g id="node5" class="node">
<title>FuseNavbarHorizontalComponent</title>
<polygon fill="#ffffb3" stroke="#000000" points="1649.3389,-122 1440.6611,-122 1440.6611,-86 1649.3389,-86 1649.3389,-122"/>
<text text-anchor="middle" x="1545" y="-99.8" font-family="Times,serif" font-size="14.00" fill="#000000">FuseNavbarHorizontalComponent</text>
</g>
<!-- FuseNavbarHorizontalComponent&#45;&gt;FuseMainModule -->
<g id="edge5" class="edge">
<title>FuseNavbarHorizontalComponent&#45;&gt;FuseMainModule</title>
<path fill="none" stroke="#000000" d="M1545,-122.0336C1545,-139.0597 1545,-162 1545,-162 1545,-162 1210.5968,-162 1210.5968,-162"/>
<polygon fill="#000000" stroke="#000000" points="1210.5968,-158.5001 1200.5968,-162 1210.5968,-165.5001 1210.5968,-158.5001"/>
</g>
<!-- FuseToolbarComponent -->
<g id="node6" class="node">
<title>FuseToolbarComponent</title>
<polygon fill="#ffffb3" stroke="#000000" points="1423.0926,-122 1270.9074,-122 1270.9074,-86 1423.0926,-86 1423.0926,-122"/>
<text text-anchor="middle" x="1347" y="-99.8" font-family="Times,serif" font-size="14.00" fill="#000000">FuseToolbarComponent</text>
</g>
<!-- FuseToolbarComponent&#45;&gt;FuseMainModule -->
<g id="edge6" class="edge">
<title>FuseToolbarComponent&#45;&gt;FuseMainModule</title>
<path fill="none" stroke="#000000" d="M1347,-122.2396C1347,-137.5706 1347,-157 1347,-157 1347,-157 1210.6402,-157 1210.6402,-157"/>
<polygon fill="#000000" stroke="#000000" points="1210.6403,-153.5001 1200.6402,-157 1210.6402,-160.5001 1210.6403,-153.5001"/>
</g>
<!-- FuseNavbarVerticalToggleDirective -->
<g id="node7" class="node">
<title>FuseNavbarVerticalToggleDirective</title>
<polygon fill="#ffffb3" stroke="#000000" points="1253.4621,-122 1032.5379,-122 1032.5379,-86 1253.4621,-86 1253.4621,-122"/>
<text text-anchor="middle" x="1143" y="-99.8" font-family="Times,serif" font-size="14.00" fill="#000000">FuseNavbarVerticalToggleDirective</text>
</g>
<!-- FuseNavbarVerticalToggleDirective&#45;&gt;FuseMainModule -->
<g id="edge7" class="edge">
<title>FuseNavbarVerticalToggleDirective&#45;&gt;FuseMainModule</title>
<path fill="none" stroke="#000000" d="M1143,-122.1061C1143,-122.1061 1143,-140.991 1143,-140.991"/>
<polygon fill="#000000" stroke="#000000" points="1139.5001,-140.9909 1143,-150.991 1146.5001,-140.991 1139.5001,-140.9909"/>
</g>
<!-- FuseThemeOptionsComponent -->
<g id="node8" class="node">
<title>FuseThemeOptionsComponent</title>
<polygon fill="#ffffb3" stroke="#000000" points="1014.479,-122 823.521,-122 823.521,-86 1014.479,-86 1014.479,-122"/>
<text text-anchor="middle" x="919" y="-99.8" font-family="Times,serif" font-size="14.00" fill="#000000">FuseThemeOptionsComponent</text>
</g>
<!-- FuseThemeOptionsComponent&#45;&gt;FuseMainModule -->
<g id="edge8" class="edge">
<title>FuseThemeOptionsComponent&#45;&gt;FuseMainModule</title>
<path fill="none" stroke="#000000" d="M919,-122.2396C919,-137.5706 919,-157 919,-157 919,-157 1075.3144,-157 1075.3144,-157"/>
<polygon fill="#000000" stroke="#000000" points="1075.3145,-160.5001 1085.3144,-157 1075.3144,-153.5001 1075.3145,-160.5001"/>
</g>
<!-- FuseQuickPanelComponent -->
<g id="node9" class="node">
<title>FuseQuickPanelComponent</title>
<polygon fill="#ffffb3" stroke="#000000" points="805.5884,-122 632.4116,-122 632.4116,-86 805.5884,-86 805.5884,-122"/>
<text text-anchor="middle" x="719" y="-99.8" font-family="Times,serif" font-size="14.00" fill="#000000">FuseQuickPanelComponent</text>
</g>
<!-- FuseQuickPanelComponent&#45;&gt;FuseMainModule -->
<g id="edge9" class="edge">
<title>FuseQuickPanelComponent&#45;&gt;FuseMainModule</title>
<path fill="none" stroke="#000000" d="M719,-122.0336C719,-139.0597 719,-162 719,-162 719,-162 1075.3762,-162 1075.3762,-162"/>
<polygon fill="#000000" stroke="#000000" points="1075.3762,-165.5001 1085.3762,-162 1075.3762,-158.5001 1075.3762,-165.5001"/>
</g>
<!-- FuseMainComponent  -->
<g id="node15" class="node">
<title>FuseMainComponent </title>
<polygon fill="#fb8072" stroke="#000000" points="1213.3241,-252 1072.6759,-252 1072.6759,-216 1213.3241,-216 1213.3241,-252"/>
<text text-anchor="middle" x="1143" y="-229.8" font-family="Times,serif" font-size="14.00" fill="#000000">FuseMainComponent </text>
</g>
<!-- FuseMainModule&#45;&gt;FuseMainComponent  -->
<g id="edge14" class="edge">
<title>FuseMainModule&#45;&gt;FuseMainComponent </title>
<path fill="none" stroke="#000000" stroke-dasharray="5,2" d="M1143,-187.1061C1143,-187.1061 1143,-205.991 1143,-205.991"/>
<polygon fill="#000000" stroke="#000000" points="1139.5001,-205.9909 1143,-215.991 1146.5001,-205.991 1139.5001,-205.9909"/>
</g>
<!-- SharedModule -->
<g id="node11" class="node">
<title>SharedModule</title>
<polygon fill="#8dd3c7" stroke="#000000" points="608.4231,-122 605.4231,-126 584.4231,-126 581.4231,-122 509.5769,-122 509.5769,-86 608.4231,-86 608.4231,-122"/>
<text text-anchor="middle" x="559" y="-99.8" font-family="Times,serif" font-size="14.00" fill="#000000">SharedModule</text>
</g>
<!-- SharedModule&#45;&gt;FuseMainModule -->
<g id="edge10" class="edge">
<title>SharedModule&#45;&gt;FuseMainModule</title>
<path fill="none" stroke="#000000" d="M559,-122.2222C559,-140.8285 559,-167 559,-167 559,-167 1075.4056,-167 1075.4056,-167"/>
<polygon fill="#000000" stroke="#000000" points="1075.4056,-170.5001 1085.4056,-167 1075.4055,-163.5001 1075.4056,-170.5001"/>
</g>
<!-- FuseNavigationModule -->
<g id="node12" class="node">
<title>FuseNavigationModule</title>
<polygon fill="#8dd3c7" stroke="#000000" points="492.1993,-122 489.1993,-126 468.1993,-126 465.1993,-122 343.8007,-122 343.8007,-86 492.1993,-86 492.1993,-122"/>
<text text-anchor="middle" x="418" y="-99.8" font-family="Times,serif" font-size="14.00" fill="#000000">FuseNavigationModule</text>
</g>
<!-- FuseNavigationModule&#45;&gt;FuseMainModule -->
<g id="edge11" class="edge">
<title>FuseNavigationModule&#45;&gt;FuseMainModule</title>
<path fill="none" stroke="#000000" d="M418,-122.2228C418,-142.3652 418,-172 418,-172 418,-172 1075.2004,-172 1075.2004,-172"/>
<polygon fill="#000000" stroke="#000000" points="1075.2005,-175.5001 1085.2004,-172 1075.2004,-168.5001 1075.2005,-175.5001"/>
</g>
<!-- FuseShortcutsModule -->
<g id="node13" class="node">
<title>FuseShortcutsModule</title>
<polygon fill="#8dd3c7" stroke="#000000" points="325.3753,-122 322.3753,-126 301.3753,-126 298.3753,-122 186.6247,-122 186.6247,-86 325.3753,-86 325.3753,-122"/>
<text text-anchor="middle" x="256" y="-99.8" font-family="Times,serif" font-size="14.00" fill="#000000">FuseShortcutsModule</text>
</g>
<!-- FuseShortcutsModule&#45;&gt;FuseMainModule -->
<g id="edge12" class="edge">
<title>FuseShortcutsModule&#45;&gt;FuseMainModule</title>
<path fill="none" stroke="#000000" d="M256,-122.0449C256,-143.6623 256,-177 256,-177 256,-177 1075.1436,-177 1075.1436,-177"/>
<polygon fill="#000000" stroke="#000000" points="1075.1436,-180.5001 1085.1436,-177 1075.1436,-173.5001 1075.1436,-180.5001"/>
</g>
<!-- FuseSearchBarModule -->
<g id="node14" class="node">
<title>FuseSearchBarModule</title>
<polygon fill="#8dd3c7" stroke="#000000" points="168.2907,-122 165.2907,-126 144.2907,-126 141.2907,-122 23.7093,-122 23.7093,-86 168.2907,-86 168.2907,-122"/>
<text text-anchor="middle" x="96" y="-99.8" font-family="Times,serif" font-size="14.00" fill="#000000">FuseSearchBarModule</text>
</g>
<!-- FuseSearchBarModule&#45;&gt;FuseMainModule -->
<g id="edge13" class="edge">
<title>FuseSearchBarModule&#45;&gt;FuseMainModule</title>
<path fill="none" stroke="#000000" d="M96,-122.0908C96,-145.1328 96,-182 96,-182 96,-182 1075.2174,-182 1075.2174,-182"/>
<polygon fill="#000000" stroke="#000000" points="1075.2174,-185.5001 1085.2174,-182 1075.2173,-178.5001 1075.2174,-185.5001"/>
</g>
</g>
</svg>
