<?xml version="1.0" encoding="UTF-8" standalone="no"?>
<!DOCTYPE svg PUBLIC "-//W3C//DTD SVG 1.1//EN"
 "http://www.w3.org/Graphics/SVG/1.1/DTD/svg11.dtd">
<!-- Generated by graphviz version 2.40.1 (20161225.0304)
 -->
<!-- Title: dependencies Pages: 1 -->
<svg width="1436pt" height="211pt"
 viewBox="0.00 0.00 1436.00 211.00" xmlns="http://www.w3.org/2000/svg" xmlns:xlink="http://www.w3.org/1999/xlink">
<g id="graph0" class="graph" transform="scale(1 1) rotate(0) translate(4 207)">
<title>dependencies</title>
<polygon fill="#ffffff" stroke="transparent" points="-4,4 -4,-207 1432,-207 1432,4 -4,4"/>
<text text-anchor="start" x="693.0091" y="-42.4" font-family="sans-serif" font-weight="bold" font-size="14.00" fill="#000000">Legend</text>
<polygon fill="#ffffb3" stroke="transparent" points="480,-10 480,-30 500,-30 500,-10 480,-10"/>
<text text-anchor="start" x="503.629" y="-15.4" font-family="sans-serif" font-size="14.00" fill="#000000"> &#160;Declarations</text>
<polygon fill="#8dd3c7" stroke="transparent" points="593,-10 593,-30 613,-30 613,-10 593,-10"/>
<text text-anchor="start" x="616.7251" y="-15.4" font-family="sans-serif" font-size="14.00" fill="#000000"> &#160;Module</text>
<polygon fill="#80b1d3" stroke="transparent" points="679,-10 679,-30 699,-30 699,-10 679,-10"/>
<text text-anchor="start" x="702.7812" y="-15.4" font-family="sans-serif" font-size="14.00" fill="#000000"> &#160;Bootstrap</text>
<polygon fill="#fdb462" stroke="transparent" points="776,-10 776,-30 796,-30 796,-10 776,-10"/>
<text text-anchor="start" x="799.6732" y="-15.4" font-family="sans-serif" font-size="14.00" fill="#000000"> &#160;Providers</text>
<polygon fill="#fb8072" stroke="transparent" points="872,-10 872,-30 892,-30 892,-10 872,-10"/>
<text text-anchor="start" x="895.7258" y="-15.4" font-family="sans-serif" font-size="14.00" fill="#000000"> &#160;Exports</text>
<g id="clust1" class="cluster">
<title>cluster_UITypographyModule</title>
<polygon fill="none" stroke="#000000" stroke-dasharray="1,5" points="8,-70 8,-195 1420,-195 1420,-70 8,-70"/>
</g>
<g id="clust2" class="cluster">
<title>cluster_UITypographyModule_declarations</title>
<polygon fill="none" stroke="#000000" points="138,-78 138,-130 1412,-130 1412,-78 138,-78"/>
</g>
<g id="clust8" class="cluster">
<title>cluster_UITypographyModule_imports</title>
<polygon fill="none" stroke="#000000" points="16,-78 16,-130 130,-130 130,-78 16,-78"/>
</g>
<!-- FuseTypographyComponent -->
<g id="node1" class="node">
<title>FuseTypographyComponent</title>
<polygon fill="#ffffb3" stroke="#000000" points="1404.2021,-122 1227.7979,-122 1227.7979,-86 1404.2021,-86 1404.2021,-122"/>
<text text-anchor="middle" x="1316" y="-99.8" font-family="Times,serif" font-size="14.00" fill="#000000">FuseTypographyComponent</text>
</g>
<!-- UITypographyModule -->
<g id="node6" class="node">
<title>UITypographyModule</title>
<polygon fill="#8dd3c7" stroke="#000000" points="741.245,-187 738.245,-191 717.245,-191 714.245,-187 598.755,-187 598.755,-151 741.245,-151 741.245,-187"/>
<text text-anchor="middle" x="670" y="-164.8" font-family="Times,serif" font-size="14.00" fill="#000000">UITypographyModule</text>
</g>
<!-- FuseTypographyComponent&#45;&gt;UITypographyModule -->
<g id="edge1" class="edge">
<title>FuseTypographyComponent&#45;&gt;UITypographyModule</title>
<path fill="none" stroke="#000000" d="M1316,-122.2843C1316,-143.3211 1316,-175 1316,-175 1316,-175 751.2911,-175 751.2911,-175"/>
<polygon fill="#000000" stroke="#000000" points="751.2911,-171.5001 741.2911,-175 751.2911,-178.5001 751.2911,-171.5001"/>
</g>
<!-- FuseTypographyHeadingsComponent -->
<g id="node2" class="node">
<title>FuseTypographyHeadingsComponent</title>
<polygon fill="#ffffb3" stroke="#000000" points="1209.573,-122 980.427,-122 980.427,-86 1209.573,-86 1209.573,-122"/>
<text text-anchor="middle" x="1095" y="-99.8" font-family="Times,serif" font-size="14.00" fill="#000000">FuseTypographyHeadingsComponent</text>
</g>
<!-- FuseTypographyHeadingsComponent&#45;&gt;UITypographyModule -->
<g id="edge2" class="edge">
<title>FuseTypographyHeadingsComponent&#45;&gt;UITypographyModule</title>
<path fill="none" stroke="#000000" d="M1095,-122.0225C1095,-139.3734 1095,-163 1095,-163 1095,-163 751.6149,-163 751.6149,-163"/>
<polygon fill="#000000" stroke="#000000" points="751.6149,-159.5001 741.6149,-163 751.6148,-166.5001 751.6149,-159.5001"/>
</g>
<!-- FuseTypographyInlineTextElementsComponent -->
<g id="node3" class="node">
<title>FuseTypographyInlineTextElementsComponent</title>
<polygon fill="#ffffb3" stroke="#000000" points="962.1147,-122 675.8853,-122 675.8853,-86 962.1147,-86 962.1147,-122"/>
<text text-anchor="middle" x="819" y="-99.8" font-family="Times,serif" font-size="14.00" fill="#000000">FuseTypographyInlineTextElementsComponent</text>
</g>
<!-- FuseTypographyInlineTextElementsComponent&#45;&gt;UITypographyModule -->
<g id="edge3" class="edge">
<title>FuseTypographyInlineTextElementsComponent&#45;&gt;UITypographyModule</title>
<path fill="none" stroke="#000000" d="M708.5326,-122.1061C708.5326,-122.1061 708.5326,-140.991 708.5326,-140.991"/>
<polygon fill="#000000" stroke="#000000" points="705.0327,-140.9909 708.5326,-150.991 712.0327,-140.991 705.0327,-140.9909"/>
</g>
<!-- FuseTypographyBlockquotesListsComponent -->
<g id="node4" class="node">
<title>FuseTypographyBlockquotesListsComponent</title>
<polygon fill="#ffffb3" stroke="#000000" points="657.9169,-122 384.0831,-122 384.0831,-86 657.9169,-86 657.9169,-122"/>
<text text-anchor="middle" x="521" y="-99.8" font-family="Times,serif" font-size="14.00" fill="#000000">FuseTypographyBlockquotesListsComponent</text>
</g>
<!-- FuseTypographyBlockquotesListsComponent&#45;&gt;UITypographyModule -->
<g id="edge4" class="edge">
<title>FuseTypographyBlockquotesListsComponent&#45;&gt;UITypographyModule</title>
<path fill="none" stroke="#000000" d="M628.168,-122.1061C628.168,-122.1061 628.168,-140.991 628.168,-140.991"/>
<polygon fill="#000000" stroke="#000000" points="624.668,-140.9909 628.168,-150.991 631.668,-140.991 624.668,-140.9909"/>
</g>
<!-- FuseTypographyHelpersComponent -->
<g id="node5" class="node">
<title>FuseTypographyHelpersComponent</title>
<polygon fill="#ffffb3" stroke="#000000" points="365.7338,-122 146.2662,-122 146.2662,-86 365.7338,-86 365.7338,-122"/>
<text text-anchor="middle" x="256" y="-99.8" font-family="Times,serif" font-size="14.00" fill="#000000">FuseTypographyHelpersComponent</text>
</g>
<!-- FuseTypographyHelpersComponent&#45;&gt;UITypographyModule -->
<g id="edge5" class="edge">
<title>FuseTypographyHelpersComponent&#45;&gt;UITypographyModule</title>
<path fill="none" stroke="#000000" d="M256,-122.0225C256,-139.3734 256,-163 256,-163 256,-163 588.3593,-163 588.3593,-163"/>
<polygon fill="#000000" stroke="#000000" points="588.3594,-166.5001 598.3593,-163 588.3593,-159.5001 588.3594,-166.5001"/>
</g>
<!-- SharedModule -->
<g id="node7" class="node">
<title>SharedModule</title>
<polygon fill="#8dd3c7" stroke="#000000" points="122.4231,-122 119.4231,-126 98.4231,-126 95.4231,-122 23.5769,-122 23.5769,-86 122.4231,-86 122.4231,-122"/>
<text text-anchor="middle" x="73" y="-99.8" font-family="Times,serif" font-size="14.00" fill="#000000">SharedModule</text>
</g>
<!-- SharedModule&#45;&gt;UITypographyModule -->
<g id="edge6" class="edge">
<title>SharedModule&#45;&gt;UITypographyModule</title>
<path fill="none" stroke="#000000" d="M73,-122.2843C73,-143.3211 73,-175 73,-175 73,-175 588.5808,-175 588.5808,-175"/>
<polygon fill="#000000" stroke="#000000" points="588.5809,-178.5001 598.5808,-175 588.5808,-171.5001 588.5809,-178.5001"/>
</g>
</g>
</svg>
