<?xml version="1.0" encoding="UTF-8" standalone="no"?>
<!DOCTYPE svg PUBLIC "-//W3C//DTD SVG 1.1//EN"
 "http://www.w3.org/Graphics/SVG/1.1/DTD/svg11.dtd">
<!-- Generated by graphviz version 2.40.1 (20161225.0304)
 -->
<!-- Title: dependencies Pages: 1 -->
<svg width="1816pt" height="284pt"
 viewBox="0.00 0.00 1816.00 284.00" xmlns="http://www.w3.org/2000/svg" xmlns:xlink="http://www.w3.org/1999/xlink">
<g id="graph0" class="graph" transform="scale(1 1) rotate(0) translate(4 280)">
<title>dependencies</title>
<polygon fill="#ffffff" stroke="transparent" points="-4,4 -4,-280 1812,-280 1812,4 -4,4"/>
<text text-anchor="start" x="883.0091" y="-42.4" font-family="sans-serif" font-weight="bold" font-size="14.00" fill="#000000">Legend</text>
<polygon fill="#ffffb3" stroke="transparent" points="670,-10 670,-30 690,-30 690,-10 670,-10"/>
<text text-anchor="start" x="693.629" y="-15.4" font-family="sans-serif" font-size="14.00" fill="#000000"> &#160;Declarations</text>
<polygon fill="#8dd3c7" stroke="transparent" points="783,-10 783,-30 803,-30 803,-10 783,-10"/>
<text text-anchor="start" x="806.7251" y="-15.4" font-family="sans-serif" font-size="14.00" fill="#000000"> &#160;Module</text>
<polygon fill="#80b1d3" stroke="transparent" points="869,-10 869,-30 889,-30 889,-10 869,-10"/>
<text text-anchor="start" x="892.7812" y="-15.4" font-family="sans-serif" font-size="14.00" fill="#000000"> &#160;Bootstrap</text>
<polygon fill="#fdb462" stroke="transparent" points="966,-10 966,-30 986,-30 986,-10 966,-10"/>
<text text-anchor="start" x="989.6732" y="-15.4" font-family="sans-serif" font-size="14.00" fill="#000000"> &#160;Providers</text>
<polygon fill="#fb8072" stroke="transparent" points="1062,-10 1062,-30 1082,-30 1082,-10 1062,-10"/>
<text text-anchor="start" x="1085.7258" y="-15.4" font-family="sans-serif" font-size="14.00" fill="#000000"> &#160;Exports</text>
<g id="clust1" class="cluster">
<title>cluster_AppModule</title>
<polygon fill="none" stroke="#000000" stroke-dasharray="1,5" points="8,-70 8,-268 1800,-268 1800,-70 8,-70"/>
</g>
<g id="clust2" class="cluster">
<title>cluster_AppModule_declarations</title>
<polygon fill="none" stroke="#000000" points="1670,-78 1670,-130 1792,-130 1792,-78 1670,-78"/>
</g>
<g id="clust4" class="cluster">
<title>cluster_AppModule_imports</title>
<polygon fill="none" stroke="#000000" points="668,-78 668,-130 1662,-130 1662,-78 668,-78"/>
</g>
<g id="clust6" class="cluster">
<title>cluster_AppModule_bootstrap</title>
<polygon fill="none" stroke="#000000" points="1023,-208 1023,-260 1147,-260 1147,-208 1023,-208"/>
</g>
<g id="clust7" class="cluster">
<title>cluster_AppModule_providers</title>
<polygon fill="none" stroke="#000000" points="16,-78 16,-130 660,-130 660,-78 16,-78"/>
</g>
<!-- AppComponent -->
<g id="node1" class="node">
<title>AppComponent</title>
<polygon fill="#ffffb3" stroke="#000000" points="1783.9399,-122 1678.0601,-122 1678.0601,-86 1783.9399,-86 1783.9399,-122"/>
<text text-anchor="middle" x="1731" y="-99.8" font-family="Times,serif" font-size="14.00" fill="#000000">AppComponent</text>
</g>
<!-- AppModule -->
<g id="node2" class="node">
<title>AppModule</title>
<polygon fill="#8dd3c7" stroke="#000000" points="1126.6571,-187 1123.6571,-191 1102.6571,-191 1099.6571,-187 1043.3429,-187 1043.3429,-151 1126.6571,-151 1126.6571,-187"/>
<text text-anchor="middle" x="1085" y="-164.8" font-family="Times,serif" font-size="14.00" fill="#000000">AppModule</text>
</g>
<!-- AppComponent&#45;&gt;AppModule -->
<g id="edge1" class="edge">
<title>AppComponent&#45;&gt;AppModule</title>
<path fill="none" stroke="#000000" d="M1731,-122.2479C1731,-145.0179 1731,-181 1731,-181 1731,-181 1136.8881,-181 1136.8881,-181"/>
<polygon fill="#000000" stroke="#000000" points="1136.8882,-177.5001 1126.8881,-181 1136.8881,-184.5001 1136.8882,-177.5001"/>
</g>
<!-- AppComponent  -->
<g id="node11" class="node">
<title>AppComponent </title>
<polygon fill="#80b1d3" stroke="#000000" points="1139.439,-252 1030.561,-252 1030.561,-216 1139.439,-216 1139.439,-252"/>
<text text-anchor="middle" x="1085" y="-229.8" font-family="Times,serif" font-size="14.00" fill="#000000">AppComponent </text>
</g>
<!-- AppModule&#45;&gt;AppComponent  -->
<g id="edge10" class="edge">
<title>AppModule&#45;&gt;AppComponent </title>
<path fill="none" stroke="#000000" stroke-dasharray="1,5" d="M1085,-187.1061C1085,-187.1061 1085,-205.991 1085,-205.991"/>
<polygon fill="#000000" stroke="#000000" points="1081.5001,-205.9909 1085,-215.991 1088.5001,-205.991 1081.5001,-205.9909"/>
</g>
<!-- SharedModule -->
<g id="node3" class="node">
<title>SharedModule</title>
<polygon fill="#8dd3c7" stroke="#000000" points="1654.4231,-122 1651.4231,-126 1630.4231,-126 1627.4231,-122 1555.5769,-122 1555.5769,-86 1654.4231,-86 1654.4231,-122"/>
<text text-anchor="middle" x="1605" y="-99.8" font-family="Times,serif" font-size="14.00" fill="#000000">SharedModule</text>
</g>
<!-- SharedModule&#45;&gt;AppModule -->
<g id="edge2" class="edge">
<title>SharedModule&#45;&gt;AppModule</title>
<path fill="none" stroke="#000000" d="M1605,-122.2843C1605,-143.3211 1605,-175 1605,-175 1605,-175 1136.6748,-175 1136.6748,-175"/>
<polygon fill="#000000" stroke="#000000" points="1136.6748,-171.5001 1126.6748,-175 1136.6747,-178.5001 1136.6748,-171.5001"/>
</g>
<!-- FuseMainModule -->
<g id="node4" class="node">
<title>FuseMainModule</title>
<polygon fill="#8dd3c7" stroke="#000000" points="1537.5423,-122 1534.5423,-126 1513.5423,-126 1510.5423,-122 1422.4577,-122 1422.4577,-86 1537.5423,-86 1537.5423,-122"/>
<text text-anchor="middle" x="1480" y="-99.8" font-family="Times,serif" font-size="14.00" fill="#000000">FuseMainModule</text>
</g>
<!-- FuseMainModule&#45;&gt;AppModule -->
<g id="edge3" class="edge">
<title>FuseMainModule&#45;&gt;AppModule</title>
<path fill="none" stroke="#000000" d="M1480,-122.1061C1480,-141.3391 1480,-169 1480,-169 1480,-169 1136.898,-169 1136.898,-169"/>
<polygon fill="#000000" stroke="#000000" points="1136.898,-165.5001 1126.898,-169 1136.8979,-172.5001 1136.898,-165.5001"/>
</g>
<!-- ProjectModule -->
<g id="node5" class="node">
<title>ProjectModule</title>
<polygon fill="#8dd3c7" stroke="#000000" points="1404.7036,-122 1401.7036,-126 1380.7036,-126 1377.7036,-122 1305.2964,-122 1305.2964,-86 1404.7036,-86 1404.7036,-122"/>
<text text-anchor="middle" x="1355" y="-99.8" font-family="Times,serif" font-size="14.00" fill="#000000">ProjectModule</text>
</g>
<!-- ProjectModule&#45;&gt;AppModule -->
<g id="edge4" class="edge">
<title>ProjectModule&#45;&gt;AppModule</title>
<path fill="none" stroke="#000000" d="M1355,-122.0225C1355,-139.3734 1355,-163 1355,-163 1355,-163 1136.8913,-163 1136.8913,-163"/>
<polygon fill="#000000" stroke="#000000" points="1136.8913,-159.5001 1126.8913,-163 1136.8912,-166.5001 1136.8913,-159.5001"/>
</g>
<!-- PagesModule -->
<g id="node6" class="node">
<title>PagesModule</title>
<polygon fill="#8dd3c7" stroke="#000000" points="1287.2064,-122 1284.2064,-126 1263.2064,-126 1260.2064,-122 1194.7936,-122 1194.7936,-86 1287.2064,-86 1287.2064,-122"/>
<text text-anchor="middle" x="1241" y="-99.8" font-family="Times,serif" font-size="14.00" fill="#000000">PagesModule</text>
</g>
<!-- PagesModule&#45;&gt;AppModule -->
<g id="edge5" class="edge">
<title>PagesModule&#45;&gt;AppModule</title>
<path fill="none" stroke="#000000" d="M1241,-122.2396C1241,-137.5706 1241,-157 1241,-157 1241,-157 1136.8051,-157 1136.8051,-157"/>
<polygon fill="#000000" stroke="#000000" points="1136.8052,-153.5001 1126.8051,-157 1136.8051,-160.5001 1136.8052,-153.5001"/>
</g>
<!-- UIModule -->
<g id="node7" class="node">
<title>UIModule</title>
<polygon fill="#8dd3c7" stroke="#000000" points="1177.3177,-122 1174.3177,-126 1153.3177,-126 1150.3177,-122 1102.6823,-122 1102.6823,-86 1177.3177,-86 1177.3177,-122"/>
<text text-anchor="middle" x="1140" y="-99.8" font-family="Times,serif" font-size="14.00" fill="#000000">UIModule</text>
</g>
<!-- UIModule&#45;&gt;AppModule -->
<g id="edge6" class="edge">
<title>UIModule&#45;&gt;AppModule</title>
<path fill="none" stroke="#000000" d="M1114.8349,-122.1061C1114.8349,-122.1061 1114.8349,-140.991 1114.8349,-140.991"/>
<polygon fill="#000000" stroke="#000000" points="1111.3349,-140.9909 1114.8349,-150.991 1118.3349,-140.991 1111.3349,-140.9909"/>
</g>
<!-- ServicesModule -->
<g id="node8" class="node">
<title>ServicesModule</title>
<polygon fill="#8dd3c7" stroke="#000000" points="1084.472,-122 1081.472,-126 1060.472,-126 1057.472,-122 977.528,-122 977.528,-86 1084.472,-86 1084.472,-122"/>
<text text-anchor="middle" x="1031" y="-99.8" font-family="Times,serif" font-size="14.00" fill="#000000">ServicesModule</text>
</g>
<!-- ServicesModule&#45;&gt;AppModule -->
<g id="edge7" class="edge">
<title>ServicesModule&#45;&gt;AppModule</title>
<path fill="none" stroke="#000000" d="M1063.8289,-122.1061C1063.8289,-122.1061 1063.8289,-140.991 1063.8289,-140.991"/>
<polygon fill="#000000" stroke="#000000" points="1060.329,-140.9909 1063.8289,-150.991 1067.329,-140.991 1060.329,-140.9909"/>
</g>
<!-- FuseAngularMaterialModule -->
<g id="node9" class="node">
<title>FuseAngularMaterialModule</title>
<polygon fill="#8dd3c7" stroke="#000000" points="959.785,-122 956.785,-126 935.785,-126 932.785,-122 780.215,-122 780.215,-86 959.785,-86 959.785,-122"/>
<text text-anchor="middle" x="870" y="-99.8" font-family="Times,serif" font-size="14.00" fill="#000000">FuseAngularMaterialModule</text>
</g>
<!-- FuseAngularMaterialModule&#45;&gt;AppModule -->
<g id="edge8" class="edge">
<title>FuseAngularMaterialModule&#45;&gt;AppModule</title>
<path fill="none" stroke="#000000" d="M870,-122.2396C870,-137.5706 870,-157 870,-157 870,-157 1033.2909,-157 1033.2909,-157"/>
<polygon fill="#000000" stroke="#000000" points="1033.2909,-160.5001 1043.2909,-157 1033.2909,-153.5001 1033.2909,-160.5001"/>
</g>
<!-- CoreModule -->
<g id="node10" class="node">
<title>CoreModule</title>
<polygon fill="#8dd3c7" stroke="#000000" points="762.2619,-122 759.2619,-126 738.2619,-126 735.2619,-122 675.7381,-122 675.7381,-86 762.2619,-86 762.2619,-122"/>
<text text-anchor="middle" x="719" y="-99.8" font-family="Times,serif" font-size="14.00" fill="#000000">CoreModule</text>
</g>
<!-- CoreModule&#45;&gt;AppModule -->
<g id="edge9" class="edge">
<title>CoreModule&#45;&gt;AppModule</title>
<path fill="none" stroke="#000000" d="M719,-122.0225C719,-139.3734 719,-163 719,-163 719,-163 1033.0151,-163 1033.0151,-163"/>
<polygon fill="#000000" stroke="#000000" points="1033.0152,-166.5001 1043.0151,-163 1033.0151,-159.5001 1033.0152,-166.5001"/>
</g>
<!-- FuseSplashScreenService -->
<g id="node12" class="node">
<title>FuseSplashScreenService</title>
<ellipse fill="#fdb462" stroke="#000000" cx="542" cy="-104" rx="110.0083" ry="18"/>
<text text-anchor="middle" x="542" y="-99.8" font-family="Times,serif" font-size="14.00" fill="#000000">FuseSplashScreenService</text>
</g>
<!-- FuseSplashScreenService&#45;&gt;AppModule -->
<g id="edge11" class="edge">
<title>FuseSplashScreenService&#45;&gt;AppModule</title>
<path fill="none" stroke="#000000" d="M542,-122.1061C542,-141.3391 542,-169 542,-169 542,-169 1033.2933,-169 1033.2933,-169"/>
<polygon fill="#000000" stroke="#000000" points="1033.2934,-172.5001 1043.2933,-169 1033.2933,-165.5001 1033.2934,-172.5001"/>
</g>
<!-- FuseConfigService -->
<g id="node13" class="node">
<title>FuseConfigService</title>
<ellipse fill="#fdb462" stroke="#000000" cx="329" cy="-104" rx="85.1101" ry="18"/>
<text text-anchor="middle" x="329" y="-99.8" font-family="Times,serif" font-size="14.00" fill="#000000">FuseConfigService</text>
</g>
<!-- FuseConfigService&#45;&gt;AppModule -->
<g id="edge12" class="edge">
<title>FuseConfigService&#45;&gt;AppModule</title>
<path fill="none" stroke="#000000" d="M329,-122.2843C329,-143.3211 329,-175 329,-175 329,-175 1033.2773,-175 1033.2773,-175"/>
<polygon fill="#000000" stroke="#000000" points="1033.2773,-178.5001 1043.2773,-175 1033.2773,-171.5001 1033.2773,-178.5001"/>
</g>
<!-- FuseNavigationService -->
<g id="node14" class="node">
<title>FuseNavigationService</title>
<ellipse fill="#fdb462" stroke="#000000" cx="125" cy="-104" rx="101.2815" ry="18"/>
<text text-anchor="middle" x="125" y="-99.8" font-family="Times,serif" font-size="14.00" fill="#000000">FuseNavigationService</text>
</g>
<!-- FuseNavigationService&#45;&gt;AppModule -->
<g id="edge13" class="edge">
<title>FuseNavigationService&#45;&gt;AppModule</title>
<path fill="none" stroke="#000000" d="M125,-122.2479C125,-145.0179 125,-181 125,-181 125,-181 1033.1327,-181 1033.1327,-181"/>
<polygon fill="#000000" stroke="#000000" points="1033.1327,-184.5001 1043.1327,-181 1033.1327,-177.5001 1033.1327,-184.5001"/>
</g>
</g>
</svg>
