<?xml version="1.0" encoding="UTF-8" standalone="no"?>
<!DOCTYPE svg PUBLIC "-//W3C//DTD SVG 1.1//EN"
 "http://www.w3.org/Graphics/SVG/1.1/DTD/svg11.dtd">
<!-- Generated by graphviz version 2.40.1 (20161225.0304)
 -->
<!-- Title: dependencies Pages: 1 -->
<svg width="1998pt" height="284pt"
 viewBox="0.00 0.00 1998.00 284.00" xmlns="http://www.w3.org/2000/svg" xmlns:xlink="http://www.w3.org/1999/xlink">
<g id="graph0" class="graph" transform="scale(1 1) rotate(0) translate(4 280)">
<title>dependencies</title>
<polygon fill="#ffffff" stroke="transparent" points="-4,4 -4,-280 1994,-280 1994,4 -4,4"/>
<text text-anchor="start" x="974.0091" y="-42.4" font-family="sans-serif" font-weight="bold" font-size="14.00" fill="#000000">Legend</text>
<polygon fill="#ffffb3" stroke="transparent" points="761,-10 761,-30 781,-30 781,-10 761,-10"/>
<text text-anchor="start" x="784.629" y="-15.4" font-family="sans-serif" font-size="14.00" fill="#000000"> &#160;Declarations</text>
<polygon fill="#8dd3c7" stroke="transparent" points="874,-10 874,-30 894,-30 894,-10 874,-10"/>
<text text-anchor="start" x="897.7251" y="-15.4" font-family="sans-serif" font-size="14.00" fill="#000000"> &#160;Module</text>
<polygon fill="#80b1d3" stroke="transparent" points="960,-10 960,-30 980,-30 980,-10 960,-10"/>
<text text-anchor="start" x="983.7812" y="-15.4" font-family="sans-serif" font-size="14.00" fill="#000000"> &#160;Bootstrap</text>
<polygon fill="#fdb462" stroke="transparent" points="1057,-10 1057,-30 1077,-30 1077,-10 1057,-10"/>
<text text-anchor="start" x="1080.6732" y="-15.4" font-family="sans-serif" font-size="14.00" fill="#000000"> &#160;Providers</text>
<polygon fill="#fb8072" stroke="transparent" points="1153,-10 1153,-30 1173,-30 1173,-10 1153,-10"/>
<text text-anchor="start" x="1176.7258" y="-15.4" font-family="sans-serif" font-size="14.00" fill="#000000"> &#160;Exports</text>
<g id="clust1" class="cluster">
<title>cluster_ComponentsModule</title>
<polygon fill="none" stroke="#000000" stroke-dasharray="1,5" points="8,-70 8,-268 1982,-268 1982,-70 8,-70"/>
</g>
<g id="clust2" class="cluster">
<title>cluster_ComponentsModule_declarations</title>
<polygon fill="none" stroke="#000000" points="284,-78 284,-130 1974,-130 1974,-78 284,-78"/>
</g>
<g id="clust11" class="cluster">
<title>cluster_ComponentsModule_imports</title>
<polygon fill="none" stroke="#000000" points="16,-78 16,-130 276,-130 276,-78 16,-78"/>
</g>
<g id="clust12" class="cluster">
<title>cluster_ComponentsModule_exports</title>
<polygon fill="none" stroke="#000000" points="797,-208 797,-260 991,-260 991,-208 797,-208"/>
</g>
<!-- FuseCountdownDocsComponent -->
<g id="node1" class="node">
<title>FuseCountdownDocsComponent</title>
<polygon fill="#ffffb3" stroke="#000000" points="1965.8738,-122 1764.1262,-122 1764.1262,-86 1965.8738,-86 1965.8738,-122"/>
<text text-anchor="middle" x="1865" y="-99.8" font-family="Times,serif" font-size="14.00" fill="#000000">FuseCountdownDocsComponent</text>
</g>
<!-- ComponentsModule -->
<g id="node9" class="node">
<title>ComponentsModule</title>
<polygon fill="#8dd3c7" stroke="#000000" points="959.3272,-187 956.3272,-191 935.3272,-191 932.3272,-187 828.6728,-187 828.6728,-151 959.3272,-151 959.3272,-187"/>
<text text-anchor="middle" x="894" y="-164.8" font-family="Times,serif" font-size="14.00" fill="#000000">ComponentsModule</text>
</g>
<!-- FuseCountdownDocsComponent&#45;&gt;ComponentsModule -->
<g id="edge1" class="edge">
<title>FuseCountdownDocsComponent&#45;&gt;ComponentsModule</title>
<path fill="none" stroke="#000000" d="M1865,-122.0109C1865,-144.4852 1865,-180 1865,-180 1865,-180 969.2178,-180 969.2178,-180"/>
<polygon fill="#000000" stroke="#000000" points="969.2178,-176.5001 959.2178,-180 969.2178,-183.5001 969.2178,-176.5001"/>
</g>
<!-- FuseHljsDocsComponent -->
<g id="node2" class="node">
<title>FuseHljsDocsComponent</title>
<polygon fill="#ffffb3" stroke="#000000" points="1745.8725,-122 1586.1275,-122 1586.1275,-86 1745.8725,-86 1745.8725,-122"/>
<text text-anchor="middle" x="1666" y="-99.8" font-family="Times,serif" font-size="14.00" fill="#000000">FuseHljsDocsComponent</text>
</g>
<!-- FuseHljsDocsComponent&#45;&gt;ComponentsModule -->
<g id="edge2" class="edge">
<title>FuseHljsDocsComponent&#45;&gt;ComponentsModule</title>
<path fill="none" stroke="#000000" d="M1666,-122.1289C1666,-142.5724 1666,-173 1666,-173 1666,-173 969.4873,-173 969.4873,-173"/>
<polygon fill="#000000" stroke="#000000" points="969.4873,-169.5001 959.4873,-173 969.4872,-176.5001 969.4873,-169.5001"/>
</g>
<!-- FuseMaterialColorPickerDocsComponent -->
<g id="node3" class="node">
<title>FuseMaterialColorPickerDocsComponent</title>
<polygon fill="#ffffb3" stroke="#000000" points="1567.6119,-122 1316.3881,-122 1316.3881,-86 1567.6119,-86 1567.6119,-122"/>
<text text-anchor="middle" x="1442" y="-99.8" font-family="Times,serif" font-size="14.00" fill="#000000">FuseMaterialColorPickerDocsComponent</text>
</g>
<!-- FuseMaterialColorPickerDocsComponent&#45;&gt;ComponentsModule -->
<g id="edge3" class="edge">
<title>FuseMaterialColorPickerDocsComponent&#45;&gt;ComponentsModule</title>
<path fill="none" stroke="#000000" d="M1442,-122.2667C1442,-140.5552 1442,-166 1442,-166 1442,-166 969.2858,-166 969.2858,-166"/>
<polygon fill="#000000" stroke="#000000" points="969.2858,-162.5001 959.2858,-166 969.2858,-169.5001 969.2858,-162.5001"/>
</g>
<!-- FuseNavigationDocsComponent -->
<g id="node4" class="node">
<title>FuseNavigationDocsComponent</title>
<polygon fill="#ffffb3" stroke="#000000" points="1298.2478,-122 1099.7522,-122 1099.7522,-86 1298.2478,-86 1298.2478,-122"/>
<text text-anchor="middle" x="1199" y="-99.8" font-family="Times,serif" font-size="14.00" fill="#000000">FuseNavigationDocsComponent</text>
</g>
<!-- FuseNavigationDocsComponent&#45;&gt;ComponentsModule -->
<g id="edge4" class="edge">
<title>FuseNavigationDocsComponent&#45;&gt;ComponentsModule</title>
<path fill="none" stroke="#000000" d="M1199,-122.0091C1199,-138.0494 1199,-159 1199,-159 1199,-159 969.4302,-159 969.4302,-159"/>
<polygon fill="#000000" stroke="#000000" points="969.4302,-155.5001 959.4302,-159 969.4301,-162.5001 969.4302,-155.5001"/>
</g>
<!-- FusePriceTablesComponent -->
<g id="node5" class="node">
<title>FusePriceTablesComponent</title>
<polygon fill="#ffffb3" stroke="#000000" points="1081.8543,-122 908.1457,-122 908.1457,-86 1081.8543,-86 1081.8543,-122"/>
<text text-anchor="middle" x="995" y="-99.8" font-family="Times,serif" font-size="14.00" fill="#000000">FusePriceTablesComponent</text>
</g>
<!-- FusePriceTablesComponent&#45;&gt;ComponentsModule -->
<g id="edge5" class="edge">
<title>FusePriceTablesComponent&#45;&gt;ComponentsModule</title>
<path fill="none" stroke="#000000" d="M933.6182,-122.1061C933.6182,-122.1061 933.6182,-140.991 933.6182,-140.991"/>
<polygon fill="#000000" stroke="#000000" points="930.1182,-140.9909 933.6182,-150.991 937.1182,-140.991 930.1182,-140.9909"/>
</g>
<!-- FuseSearchBarDocsComponent -->
<g id="node6" class="node">
<title>FuseSearchBarDocsComponent</title>
<polygon fill="#ffffb3" stroke="#000000" points="890.3389,-122 695.6611,-122 695.6611,-86 890.3389,-86 890.3389,-122"/>
<text text-anchor="middle" x="793" y="-99.8" font-family="Times,serif" font-size="14.00" fill="#000000">FuseSearchBarDocsComponent</text>
</g>
<!-- FuseSearchBarDocsComponent&#45;&gt;ComponentsModule -->
<g id="edge6" class="edge">
<title>FuseSearchBarDocsComponent&#45;&gt;ComponentsModule</title>
<path fill="none" stroke="#000000" d="M859.628,-122.1061C859.628,-122.1061 859.628,-140.991 859.628,-140.991"/>
<polygon fill="#000000" stroke="#000000" points="856.1281,-140.9909 859.628,-150.991 863.1281,-140.991 856.1281,-140.9909"/>
</g>
<!-- FuseShortcutsDocsComponent -->
<g id="node7" class="node">
<title>FuseShortcutsDocsComponent</title>
<polygon fill="#ffffb3" stroke="#000000" points="677.9241,-122 488.0759,-122 488.0759,-86 677.9241,-86 677.9241,-122"/>
<text text-anchor="middle" x="583" y="-99.8" font-family="Times,serif" font-size="14.00" fill="#000000">FuseShortcutsDocsComponent</text>
</g>
<!-- FuseShortcutsDocsComponent&#45;&gt;ComponentsModule -->
<g id="edge7" class="edge">
<title>FuseShortcutsDocsComponent&#45;&gt;ComponentsModule</title>
<path fill="none" stroke="#000000" d="M583,-122.0091C583,-138.0494 583,-159 583,-159 583,-159 818.8042,-159 818.8042,-159"/>
<polygon fill="#000000" stroke="#000000" points="818.8042,-162.5001 828.8042,-159 818.8042,-155.5001 818.8042,-162.5001"/>
</g>
<!-- FuseWidgetDocsComponent -->
<g id="node8" class="node">
<title>FuseWidgetDocsComponent</title>
<polygon fill="#ffffb3" stroke="#000000" points="469.7506,-122 292.2494,-122 292.2494,-86 469.7506,-86 469.7506,-122"/>
<text text-anchor="middle" x="381" y="-99.8" font-family="Times,serif" font-size="14.00" fill="#000000">FuseWidgetDocsComponent</text>
</g>
<!-- FuseWidgetDocsComponent&#45;&gt;ComponentsModule -->
<g id="edge8" class="edge">
<title>FuseWidgetDocsComponent&#45;&gt;ComponentsModule</title>
<path fill="none" stroke="#000000" d="M381,-122.2667C381,-140.5552 381,-166 381,-166 381,-166 818.7679,-166 818.7679,-166"/>
<polygon fill="#000000" stroke="#000000" points="818.7679,-169.5001 828.7679,-166 818.7678,-162.5001 818.7679,-169.5001"/>
</g>
<!-- FusePriceTablesComponent  -->
<g id="node12" class="node">
<title>FusePriceTablesComponent </title>
<polygon fill="#fb8072" stroke="#000000" points="982.8546,-252 805.1454,-252 805.1454,-216 982.8546,-216 982.8546,-252"/>
<text text-anchor="middle" x="894" y="-229.8" font-family="Times,serif" font-size="14.00" fill="#000000">FusePriceTablesComponent </text>
</g>
<!-- ComponentsModule&#45;&gt;FusePriceTablesComponent  -->
<g id="edge11" class="edge">
<title>ComponentsModule&#45;&gt;FusePriceTablesComponent </title>
<path fill="none" stroke="#000000" stroke-dasharray="5,2" d="M894,-187.1061C894,-187.1061 894,-205.991 894,-205.991"/>
<polygon fill="#000000" stroke="#000000" points="890.5001,-205.9909 894,-215.991 897.5001,-205.991 890.5001,-205.9909"/>
</g>
<!-- SharedModule -->
<g id="node10" class="node">
<title>SharedModule</title>
<polygon fill="#8dd3c7" stroke="#000000" points="268.4231,-122 265.4231,-126 244.4231,-126 241.4231,-122 169.5769,-122 169.5769,-86 268.4231,-86 268.4231,-122"/>
<text text-anchor="middle" x="219" y="-99.8" font-family="Times,serif" font-size="14.00" fill="#000000">SharedModule</text>
</g>
<!-- SharedModule&#45;&gt;ComponentsModule -->
<g id="edge9" class="edge">
<title>SharedModule&#45;&gt;ComponentsModule</title>
<path fill="none" stroke="#000000" d="M219,-122.1289C219,-142.5724 219,-173 219,-173 219,-173 818.6648,-173 818.6648,-173"/>
<polygon fill="#000000" stroke="#000000" points="818.6649,-176.5001 828.6648,-173 818.6648,-169.5001 818.6649,-176.5001"/>
</g>
<!-- FuseWidgetModule -->
<g id="node11" class="node">
<title>FuseWidgetModule</title>
<polygon fill="#8dd3c7" stroke="#000000" points="151.7022,-122 148.7022,-126 127.7022,-126 124.7022,-122 24.2978,-122 24.2978,-86 151.7022,-86 151.7022,-122"/>
<text text-anchor="middle" x="88" y="-99.8" font-family="Times,serif" font-size="14.00" fill="#000000">FuseWidgetModule</text>
</g>
<!-- FuseWidgetModule&#45;&gt;ComponentsModule -->
<g id="edge10" class="edge">
<title>FuseWidgetModule&#45;&gt;ComponentsModule</title>
<path fill="none" stroke="#000000" d="M88,-122.0109C88,-144.4852 88,-180 88,-180 88,-180 818.7244,-180 818.7244,-180"/>
<polygon fill="#000000" stroke="#000000" points="818.7244,-183.5001 828.7244,-180 818.7243,-176.5001 818.7244,-183.5001"/>
</g>
</g>
</svg>
