<?xml version="1.0" encoding="UTF-8" standalone="no"?>
<!DOCTYPE svg PUBLIC "-//W3C//DTD SVG 1.1//EN"
 "http://www.w3.org/Graphics/SVG/1.1/DTD/svg11.dtd">
<!-- Generated by graphviz version 2.40.1 (20161225.0304)
 -->
<!-- Title: dependencies Pages: 1 -->
<svg width="1488pt" height="211pt"
 viewBox="0.00 0.00 1488.00 211.00" xmlns="http://www.w3.org/2000/svg" xmlns:xlink="http://www.w3.org/1999/xlink">
<g id="graph0" class="graph" transform="scale(1 1) rotate(0) translate(4 207)">
<title>dependencies</title>
<polygon fill="#ffffff" stroke="transparent" points="-4,4 -4,-207 1484,-207 1484,4 -4,4"/>
<text text-anchor="start" x="719.0091" y="-42.4" font-family="sans-serif" font-weight="bold" font-size="14.00" fill="#000000">Legend</text>
<polygon fill="#ffffb3" stroke="transparent" points="506,-10 506,-30 526,-30 526,-10 506,-10"/>
<text text-anchor="start" x="529.629" y="-15.4" font-family="sans-serif" font-size="14.00" fill="#000000"> &#160;Declarations</text>
<polygon fill="#8dd3c7" stroke="transparent" points="619,-10 619,-30 639,-30 639,-10 619,-10"/>
<text text-anchor="start" x="642.7251" y="-15.4" font-family="sans-serif" font-size="14.00" fill="#000000"> &#160;Module</text>
<polygon fill="#80b1d3" stroke="transparent" points="705,-10 705,-30 725,-30 725,-10 705,-10"/>
<text text-anchor="start" x="728.7812" y="-15.4" font-family="sans-serif" font-size="14.00" fill="#000000"> &#160;Bootstrap</text>
<polygon fill="#fdb462" stroke="transparent" points="802,-10 802,-30 822,-30 822,-10 802,-10"/>
<text text-anchor="start" x="825.6732" y="-15.4" font-family="sans-serif" font-size="14.00" fill="#000000"> &#160;Providers</text>
<polygon fill="#fb8072" stroke="transparent" points="898,-10 898,-30 918,-30 918,-10 898,-10"/>
<text text-anchor="start" x="921.7258" y="-15.4" font-family="sans-serif" font-size="14.00" fill="#000000"> &#160;Exports</text>
<g id="clust1" class="cluster">
<title>cluster_FuseMailModule</title>
<polygon fill="none" stroke="#000000" stroke-dasharray="1,5" points="8,-70 8,-195 1472,-195 1472,-70 8,-70"/>
</g>
<g id="clust2" class="cluster">
<title>cluster_FuseMailModule_declarations</title>
<polygon fill="none" stroke="#000000" points="278,-78 278,-130 1464,-130 1464,-78 278,-78"/>
</g>
<g id="clust9" class="cluster">
<title>cluster_FuseMailModule_imports</title>
<polygon fill="none" stroke="#000000" points="156,-78 156,-130 270,-130 270,-78 156,-78"/>
</g>
<g id="clust12" class="cluster">
<title>cluster_FuseMailModule_providers</title>
<polygon fill="none" stroke="#000000" points="16,-78 16,-130 148,-130 148,-78 16,-78"/>
</g>
<!-- FuseMailComponent -->
<g id="node1" class="node">
<title>FuseMailComponent</title>
<polygon fill="#ffffb3" stroke="#000000" points="1456.2148,-122 1321.7852,-122 1321.7852,-86 1456.2148,-86 1456.2148,-122"/>
<text text-anchor="middle" x="1389" y="-99.8" font-family="Times,serif" font-size="14.00" fill="#000000">FuseMailComponent</text>
</g>
<!-- FuseMailModule -->
<g id="node7" class="node">
<title>FuseMailModule</title>
<polygon fill="#8dd3c7" stroke="#000000" points="794.4328,-187 791.4328,-191 770.4328,-191 767.4328,-187 681.5672,-187 681.5672,-151 794.4328,-151 794.4328,-187"/>
<text text-anchor="middle" x="738" y="-164.8" font-family="Times,serif" font-size="14.00" fill="#000000">FuseMailModule</text>
</g>
<!-- FuseMailComponent&#45;&gt;FuseMailModule -->
<g id="edge1" class="edge">
<title>FuseMailComponent&#45;&gt;FuseMailModule</title>
<path fill="none" stroke="#000000" d="M1389,-122.2921C1389,-144.2057 1389,-178 1389,-178 1389,-178 804.3499,-178 804.3499,-178"/>
<polygon fill="#000000" stroke="#000000" points="804.35,-174.5001 794.3499,-178 804.3499,-181.5001 804.35,-174.5001"/>
</g>
<!-- FuseMailListComponent -->
<g id="node2" class="node">
<title>FuseMailListComponent</title>
<polygon fill="#ffffb3" stroke="#000000" points="1303.993,-122 1148.007,-122 1148.007,-86 1303.993,-86 1303.993,-122"/>
<text text-anchor="middle" x="1226" y="-99.8" font-family="Times,serif" font-size="14.00" fill="#000000">FuseMailListComponent</text>
</g>
<!-- FuseMailListComponent&#45;&gt;FuseMailModule -->
<g id="edge2" class="edge">
<title>FuseMailListComponent&#45;&gt;FuseMailModule</title>
<path fill="none" stroke="#000000" d="M1226,-122.1061C1226,-141.3391 1226,-169 1226,-169 1226,-169 804.4565,-169 804.4565,-169"/>
<polygon fill="#000000" stroke="#000000" points="804.4566,-165.5001 794.4565,-169 804.4565,-172.5001 804.4566,-165.5001"/>
</g>
<!-- FuseMailListItemComponent -->
<g id="node3" class="node">
<title>FuseMailListItemComponent</title>
<polygon fill="#ffffb3" stroke="#000000" points="1129.6497,-122 948.3503,-122 948.3503,-86 1129.6497,-86 1129.6497,-122"/>
<text text-anchor="middle" x="1039" y="-99.8" font-family="Times,serif" font-size="14.00" fill="#000000">FuseMailListItemComponent</text>
</g>
<!-- FuseMailListItemComponent&#45;&gt;FuseMailModule -->
<g id="edge3" class="edge">
<title>FuseMailListItemComponent&#45;&gt;FuseMailModule</title>
<path fill="none" stroke="#000000" d="M1039,-122.027C1039,-138.3976 1039,-160 1039,-160 1039,-160 804.2627,-160 804.2627,-160"/>
<polygon fill="#000000" stroke="#000000" points="804.2627,-156.5001 794.2627,-160 804.2627,-163.5001 804.2627,-156.5001"/>
</g>
<!-- FuseMailDetailsComponent -->
<g id="node4" class="node">
<title>FuseMailDetailsComponent</title>
<polygon fill="#ffffb3" stroke="#000000" points="929.8669,-122 756.1331,-122 756.1331,-86 929.8669,-86 929.8669,-122"/>
<text text-anchor="middle" x="843" y="-99.8" font-family="Times,serif" font-size="14.00" fill="#000000">FuseMailDetailsComponent</text>
</g>
<!-- FuseMailDetailsComponent&#45;&gt;FuseMailModule -->
<g id="edge4" class="edge">
<title>FuseMailDetailsComponent&#45;&gt;FuseMailModule</title>
<path fill="none" stroke="#000000" d="M775.1413,-122.1061C775.1413,-122.1061 775.1413,-140.991 775.1413,-140.991"/>
<polygon fill="#000000" stroke="#000000" points="771.6414,-140.9909 775.1413,-150.991 778.6414,-140.991 771.6414,-140.9909"/>
</g>
<!-- FuseMailMainSidenavComponent -->
<g id="node5" class="node">
<title>FuseMailMainSidenavComponent</title>
<polygon fill="#ffffb3" stroke="#000000" points="738.3668,-122 529.6332,-122 529.6332,-86 738.3668,-86 738.3668,-122"/>
<text text-anchor="middle" x="634" y="-99.8" font-family="Times,serif" font-size="14.00" fill="#000000">FuseMailMainSidenavComponent</text>
</g>
<!-- FuseMailMainSidenavComponent&#45;&gt;FuseMailModule -->
<g id="edge5" class="edge">
<title>FuseMailMainSidenavComponent&#45;&gt;FuseMailModule</title>
<path fill="none" stroke="#000000" d="M710.1087,-122.1061C710.1087,-122.1061 710.1087,-140.991 710.1087,-140.991"/>
<polygon fill="#000000" stroke="#000000" points="706.6088,-140.9909 710.1087,-150.991 713.6088,-140.991 706.6088,-140.9909"/>
</g>
<!-- FuseMailComposeDialogComponent -->
<g id="node6" class="node">
<title>FuseMailComposeDialogComponent</title>
<polygon fill="#ffffb3" stroke="#000000" points="511.7035,-122 286.2965,-122 286.2965,-86 511.7035,-86 511.7035,-122"/>
<text text-anchor="middle" x="399" y="-99.8" font-family="Times,serif" font-size="14.00" fill="#000000">FuseMailComposeDialogComponent</text>
</g>
<!-- FuseMailComposeDialogComponent&#45;&gt;FuseMailModule -->
<g id="edge6" class="edge">
<title>FuseMailComposeDialogComponent&#45;&gt;FuseMailModule</title>
<path fill="none" stroke="#000000" d="M399,-122.027C399,-138.3976 399,-160 399,-160 399,-160 671.6405,-160 671.6405,-160"/>
<polygon fill="#000000" stroke="#000000" points="671.6405,-163.5001 681.6405,-160 671.6405,-156.5001 671.6405,-163.5001"/>
</g>
<!-- SharedModule -->
<g id="node8" class="node">
<title>SharedModule</title>
<polygon fill="#8dd3c7" stroke="#000000" points="262.4231,-122 259.4231,-126 238.4231,-126 235.4231,-122 163.5769,-122 163.5769,-86 262.4231,-86 262.4231,-122"/>
<text text-anchor="middle" x="213" y="-99.8" font-family="Times,serif" font-size="14.00" fill="#000000">SharedModule</text>
</g>
<!-- SharedModule&#45;&gt;FuseMailModule -->
<g id="edge7" class="edge">
<title>SharedModule&#45;&gt;FuseMailModule</title>
<path fill="none" stroke="#000000" d="M213,-122.1061C213,-141.3391 213,-169 213,-169 213,-169 671.5666,-169 671.5666,-169"/>
<polygon fill="#000000" stroke="#000000" points="671.5667,-172.5001 681.5666,-169 671.5666,-165.5001 671.5667,-172.5001"/>
</g>
<!-- MailService -->
<g id="node9" class="node">
<title>MailService</title>
<ellipse fill="#fdb462" stroke="#000000" cx="82" cy="-104" rx="58.4609" ry="18"/>
<text text-anchor="middle" x="82" y="-99.8" font-family="Times,serif" font-size="14.00" fill="#000000">MailService</text>
</g>
<!-- MailService&#45;&gt;FuseMailModule -->
<g id="edge8" class="edge">
<title>MailService&#45;&gt;FuseMailModule</title>
<path fill="none" stroke="#000000" d="M82,-122.2921C82,-144.2057 82,-178 82,-178 82,-178 671.502,-178 671.502,-178"/>
<polygon fill="#000000" stroke="#000000" points="671.5021,-181.5001 681.502,-178 671.502,-174.5001 671.5021,-181.5001"/>
</g>
</g>
</svg>
