<?xml version="1.0" encoding="UTF-8" standalone="no"?>
<!DOCTYPE svg PUBLIC "-//W3C//DTD SVG 1.1//EN"
 "http://www.w3.org/Graphics/SVG/1.1/DTD/svg11.dtd">
<!-- Generated by graphviz version 2.40.1 (20161225.0304)
 -->
<!-- Title: dependencies Pages: 1 -->
<svg width="2082pt" height="211pt"
 viewBox="0.00 0.00 2082.00 211.00" xmlns="http://www.w3.org/2000/svg" xmlns:xlink="http://www.w3.org/1999/xlink">
<g id="graph0" class="graph" transform="scale(1 1) rotate(0) translate(4 207)">
<title>dependencies</title>
<polygon fill="#ffffff" stroke="transparent" points="-4,4 -4,-207 2078,-207 2078,4 -4,4"/>
<text text-anchor="start" x="1016.0091" y="-42.4" font-family="sans-serif" font-weight="bold" font-size="14.00" fill="#000000">Legend</text>
<polygon fill="#ffffb3" stroke="transparent" points="803,-10 803,-30 823,-30 823,-10 803,-10"/>
<text text-anchor="start" x="826.629" y="-15.4" font-family="sans-serif" font-size="14.00" fill="#000000"> &#160;Declarations</text>
<polygon fill="#8dd3c7" stroke="transparent" points="916,-10 916,-30 936,-30 936,-10 916,-10"/>
<text text-anchor="start" x="939.7251" y="-15.4" font-family="sans-serif" font-size="14.00" fill="#000000"> &#160;Module</text>
<polygon fill="#80b1d3" stroke="transparent" points="1002,-10 1002,-30 1022,-30 1022,-10 1002,-10"/>
<text text-anchor="start" x="1025.7812" y="-15.4" font-family="sans-serif" font-size="14.00" fill="#000000"> &#160;Bootstrap</text>
<polygon fill="#fdb462" stroke="transparent" points="1099,-10 1099,-30 1119,-30 1119,-10 1099,-10"/>
<text text-anchor="start" x="1122.6732" y="-15.4" font-family="sans-serif" font-size="14.00" fill="#000000"> &#160;Providers</text>
<polygon fill="#fb8072" stroke="transparent" points="1195,-10 1195,-30 1215,-30 1215,-10 1195,-10"/>
<text text-anchor="start" x="1218.7258" y="-15.4" font-family="sans-serif" font-size="14.00" fill="#000000"> &#160;Exports</text>
<g id="clust1" class="cluster">
<title>cluster_PagesModule</title>
<polygon fill="none" stroke="#000000" stroke-dasharray="1,5" points="8,-70 8,-195 2066,-195 2066,-70 8,-70"/>
</g>
<g id="clust3" class="cluster">
<title>cluster_PagesModule_imports</title>
<polygon fill="none" stroke="#000000" points="16,-78 16,-130 2058,-130 2058,-78 16,-78"/>
</g>
<!-- LoginModule -->
<g id="node1" class="node">
<title>LoginModule</title>
<polygon fill="#8dd3c7" stroke="#000000" points="2050.493,-122 2047.493,-126 2026.493,-126 2023.493,-122 1957.507,-122 1957.507,-86 2050.493,-86 2050.493,-122"/>
<text text-anchor="middle" x="2004" y="-99.8" font-family="Times,serif" font-size="14.00" fill="#000000">LoginModule</text>
</g>
<!-- PagesModule -->
<g id="node16" class="node">
<title>PagesModule</title>
<polygon fill="#8dd3c7" stroke="#000000" points="1109.2064,-187 1106.2064,-191 1085.2064,-191 1082.2064,-187 1016.7936,-187 1016.7936,-151 1109.2064,-151 1109.2064,-187"/>
<text text-anchor="middle" x="1063" y="-164.8" font-family="Times,serif" font-size="14.00" fill="#000000">PagesModule</text>
</g>
<!-- LoginModule&#45;&gt;PagesModule -->
<g id="edge1" class="edge">
<title>LoginModule&#45;&gt;PagesModule</title>
<path fill="none" stroke="#000000" d="M2004,-122.3228C2004,-145.6602 2004,-183 2004,-183 2004,-183 1119.3434,-183 1119.3434,-183"/>
<polygon fill="#000000" stroke="#000000" points="1119.3434,-179.5001 1109.3434,-183 1119.3433,-186.5001 1119.3434,-179.5001"/>
</g>
<!-- Login2Module -->
<g id="node2" class="node">
<title>Login2Module</title>
<polygon fill="#8dd3c7" stroke="#000000" points="1939.993,-122 1936.993,-126 1915.993,-126 1912.993,-122 1840.007,-122 1840.007,-86 1939.993,-86 1939.993,-122"/>
<text text-anchor="middle" x="1890" y="-99.8" font-family="Times,serif" font-size="14.00" fill="#000000">Login2Module</text>
</g>
<!-- Login2Module&#45;&gt;PagesModule -->
<g id="edge2" class="edge">
<title>Login2Module&#45;&gt;PagesModule</title>
<path fill="none" stroke="#000000" d="M1890,-122.2921C1890,-144.2057 1890,-178 1890,-178 1890,-178 1119.2352,-178 1119.2352,-178"/>
<polygon fill="#000000" stroke="#000000" points="1119.2352,-174.5001 1109.2352,-178 1119.2351,-181.5001 1119.2352,-174.5001"/>
</g>
<!-- RegisterModule -->
<g id="node3" class="node">
<title>RegisterModule</title>
<polygon fill="#8dd3c7" stroke="#000000" points="1822.2022,-122 1819.2022,-126 1798.2022,-126 1795.2022,-122 1715.7978,-122 1715.7978,-86 1822.2022,-86 1822.2022,-122"/>
<text text-anchor="middle" x="1769" y="-99.8" font-family="Times,serif" font-size="14.00" fill="#000000">RegisterModule</text>
</g>
<!-- RegisterModule&#45;&gt;PagesModule -->
<g id="edge3" class="edge">
<title>RegisterModule&#45;&gt;PagesModule</title>
<path fill="none" stroke="#000000" d="M1769,-122.0267C1769,-142.7672 1769,-174 1769,-174 1769,-174 1119.3226,-174 1119.3226,-174"/>
<polygon fill="#000000" stroke="#000000" points="1119.3227,-170.5001 1109.3226,-174 1119.3226,-177.5001 1119.3227,-170.5001"/>
</g>
<!-- Register2Module -->
<g id="node4" class="node">
<title>Register2Module</title>
<polygon fill="#8dd3c7" stroke="#000000" points="1697.7022,-122 1694.7022,-126 1673.7022,-126 1670.7022,-122 1584.2978,-122 1584.2978,-86 1697.7022,-86 1697.7022,-122"/>
<text text-anchor="middle" x="1641" y="-99.8" font-family="Times,serif" font-size="14.00" fill="#000000">Register2Module</text>
</g>
<!-- Register2Module&#45;&gt;PagesModule -->
<g id="edge4" class="edge">
<title>Register2Module&#45;&gt;PagesModule</title>
<path fill="none" stroke="#000000" d="M1641,-122.1061C1641,-141.3391 1641,-169 1641,-169 1641,-169 1119.3231,-169 1119.3231,-169"/>
<polygon fill="#000000" stroke="#000000" points="1119.3231,-165.5001 1109.3231,-169 1119.3231,-172.5001 1119.3231,-165.5001"/>
</g>
<!-- ForgotPasswordModule -->
<g id="node5" class="node">
<title>ForgotPasswordModule</title>
<polygon fill="#8dd3c7" stroke="#000000" points="1566.0379,-122 1563.0379,-126 1542.0379,-126 1539.0379,-122 1415.9621,-122 1415.9621,-86 1566.0379,-86 1566.0379,-122"/>
<text text-anchor="middle" x="1491" y="-99.8" font-family="Times,serif" font-size="14.00" fill="#000000">ForgotPasswordModule</text>
</g>
<!-- ForgotPasswordModule&#45;&gt;PagesModule -->
<g id="edge5" class="edge">
<title>ForgotPasswordModule&#45;&gt;PagesModule</title>
<path fill="none" stroke="#000000" d="M1491,-122.302C1491,-140.2699 1491,-165 1491,-165 1491,-165 1119.2102,-165 1119.2102,-165"/>
<polygon fill="#000000" stroke="#000000" points="1119.2102,-161.5001 1109.2102,-165 1119.2101,-168.5001 1119.2102,-161.5001"/>
</g>
<!-- ResetPasswordModule -->
<g id="node6" class="node">
<title>ResetPasswordModule</title>
<polygon fill="#8dd3c7" stroke="#000000" points="1398.3047,-122 1395.3047,-126 1374.3047,-126 1371.3047,-122 1253.6953,-122 1253.6953,-86 1398.3047,-86 1398.3047,-122"/>
<text text-anchor="middle" x="1326" y="-99.8" font-family="Times,serif" font-size="14.00" fill="#000000">ResetPasswordModule</text>
</g>
<!-- ResetPasswordModule&#45;&gt;PagesModule -->
<g id="edge6" class="edge">
<title>ResetPasswordModule&#45;&gt;PagesModule</title>
<path fill="none" stroke="#000000" d="M1326,-122.027C1326,-138.3976 1326,-160 1326,-160 1326,-160 1119.1121,-160 1119.1121,-160"/>
<polygon fill="#000000" stroke="#000000" points="1119.1121,-156.5001 1109.1121,-160 1119.112,-163.5001 1119.1121,-156.5001"/>
</g>
<!-- LockModule -->
<g id="node7" class="node">
<title>LockModule</title>
<polygon fill="#8dd3c7" stroke="#000000" points="1236.3176,-122 1233.3176,-126 1212.3176,-126 1209.3176,-122 1147.6824,-122 1147.6824,-86 1236.3176,-86 1236.3176,-122"/>
<text text-anchor="middle" x="1192" y="-99.8" font-family="Times,serif" font-size="14.00" fill="#000000">LockModule</text>
</g>
<!-- LockModule&#45;&gt;PagesModule -->
<g id="edge7" class="edge">
<title>LockModule&#45;&gt;PagesModule</title>
<path fill="none" stroke="#000000" d="M1192,-122.1871C1192,-137.1824 1192,-156 1192,-156 1192,-156 1119.2076,-156 1119.2076,-156"/>
<polygon fill="#000000" stroke="#000000" points="1119.2076,-152.5001 1109.2076,-156 1119.2076,-159.5001 1119.2076,-152.5001"/>
</g>
<!-- ComingSoonModule -->
<g id="node8" class="node">
<title>ComingSoonModule</title>
<polygon fill="#8dd3c7" stroke="#000000" points="1129.951,-122 1126.951,-126 1105.951,-126 1102.951,-122 996.049,-122 996.049,-86 1129.951,-86 1129.951,-122"/>
<text text-anchor="middle" x="1063" y="-99.8" font-family="Times,serif" font-size="14.00" fill="#000000">ComingSoonModule</text>
</g>
<!-- ComingSoonModule&#45;&gt;PagesModule -->
<g id="edge8" class="edge">
<title>ComingSoonModule&#45;&gt;PagesModule</title>
<path fill="none" stroke="#000000" d="M1063,-122.1061C1063,-122.1061 1063,-140.991 1063,-140.991"/>
<polygon fill="#000000" stroke="#000000" points="1059.5001,-140.9909 1063,-150.991 1066.5001,-140.991 1059.5001,-140.9909"/>
</g>
<!-- Error404Module -->
<g id="node9" class="node">
<title>Error404Module</title>
<polygon fill="#8dd3c7" stroke="#000000" points="978.0842,-122 975.0842,-126 954.0842,-126 951.0842,-122 867.9158,-122 867.9158,-86 978.0842,-86 978.0842,-122"/>
<text text-anchor="middle" x="923" y="-99.8" font-family="Times,serif" font-size="14.00" fill="#000000">Error404Module</text>
</g>
<!-- Error404Module&#45;&gt;PagesModule -->
<g id="edge9" class="edge">
<title>Error404Module&#45;&gt;PagesModule</title>
<path fill="none" stroke="#000000" d="M923,-122.1871C923,-137.1824 923,-156 923,-156 923,-156 1006.7708,-156 1006.7708,-156"/>
<polygon fill="#000000" stroke="#000000" points="1006.7708,-159.5001 1016.7708,-156 1006.7707,-152.5001 1006.7708,-159.5001"/>
</g>
<!-- Error500Module -->
<g id="node10" class="node">
<title>Error500Module</title>
<polygon fill="#8dd3c7" stroke="#000000" points="850.0842,-122 847.0842,-126 826.0842,-126 823.0842,-122 739.9158,-122 739.9158,-86 850.0842,-86 850.0842,-122"/>
<text text-anchor="middle" x="795" y="-99.8" font-family="Times,serif" font-size="14.00" fill="#000000">Error500Module</text>
</g>
<!-- Error500Module&#45;&gt;PagesModule -->
<g id="edge10" class="edge">
<title>Error500Module&#45;&gt;PagesModule</title>
<path fill="none" stroke="#000000" d="M795,-122.027C795,-138.3976 795,-160 795,-160 795,-160 1006.6239,-160 1006.6239,-160"/>
<polygon fill="#000000" stroke="#000000" points="1006.624,-163.5001 1016.6239,-160 1006.6239,-156.5001 1006.624,-163.5001"/>
</g>
<!-- InvoiceModernModule -->
<g id="node11" class="node">
<title>InvoiceModernModule</title>
<polygon fill="#8dd3c7" stroke="#000000" points="721.8501,-122 718.8501,-126 697.8501,-126 694.8501,-122 576.1499,-122 576.1499,-86 721.8501,-86 721.8501,-122"/>
<text text-anchor="middle" x="649" y="-99.8" font-family="Times,serif" font-size="14.00" fill="#000000">InvoiceModernModule</text>
</g>
<!-- InvoiceModernModule&#45;&gt;PagesModule -->
<g id="edge11" class="edge">
<title>InvoiceModernModule&#45;&gt;PagesModule</title>
<path fill="none" stroke="#000000" d="M649,-122.302C649,-140.2699 649,-165 649,-165 649,-165 1006.714,-165 1006.714,-165"/>
<polygon fill="#000000" stroke="#000000" points="1006.714,-168.5001 1016.714,-165 1006.714,-161.5001 1006.714,-168.5001"/>
</g>
<!-- InvoiceCompactModule -->
<g id="node12" class="node">
<title>InvoiceCompactModule</title>
<polygon fill="#8dd3c7" stroke="#000000" points="558.0772,-122 555.0772,-126 534.0772,-126 531.0772,-122 405.9228,-122 405.9228,-86 558.0772,-86 558.0772,-122"/>
<text text-anchor="middle" x="482" y="-99.8" font-family="Times,serif" font-size="14.00" fill="#000000">InvoiceCompactModule</text>
</g>
<!-- InvoiceCompactModule&#45;&gt;PagesModule -->
<g id="edge12" class="edge">
<title>InvoiceCompactModule&#45;&gt;PagesModule</title>
<path fill="none" stroke="#000000" d="M482,-122.1061C482,-141.3391 482,-169 482,-169 482,-169 1006.4365,-169 1006.4365,-169"/>
<polygon fill="#000000" stroke="#000000" points="1006.4365,-172.5001 1016.4365,-169 1006.4364,-165.5001 1006.4365,-172.5001"/>
</g>
<!-- MaintenanceModule -->
<g id="node13" class="node">
<title>MaintenanceModule</title>
<polygon fill="#8dd3c7" stroke="#000000" points="387.8487,-122 384.8487,-126 363.8487,-126 360.8487,-122 256.1513,-122 256.1513,-86 387.8487,-86 387.8487,-122"/>
<text text-anchor="middle" x="322" y="-99.8" font-family="Times,serif" font-size="14.00" fill="#000000">MaintenanceModule</text>
</g>
<!-- MaintenanceModule&#45;&gt;PagesModule -->
<g id="edge13" class="edge">
<title>MaintenanceModule&#45;&gt;PagesModule</title>
<path fill="none" stroke="#000000" d="M322,-122.0267C322,-142.7672 322,-174 322,-174 322,-174 1006.6471,-174 1006.6471,-174"/>
<polygon fill="#000000" stroke="#000000" points="1006.6472,-177.5001 1016.6471,-174 1006.6471,-170.5001 1006.6472,-177.5001"/>
</g>
<!-- ProfileModule -->
<g id="node14" class="node">
<title>ProfileModule</title>
<polygon fill="#8dd3c7" stroke="#000000" points="237.65,-122 234.65,-126 213.65,-126 210.65,-122 140.35,-122 140.35,-86 237.65,-86 237.65,-122"/>
<text text-anchor="middle" x="189" y="-99.8" font-family="Times,serif" font-size="14.00" fill="#000000">ProfileModule</text>
</g>
<!-- ProfileModule&#45;&gt;PagesModule -->
<g id="edge14" class="edge">
<title>ProfileModule&#45;&gt;PagesModule</title>
<path fill="none" stroke="#000000" d="M189,-122.2921C189,-144.2057 189,-178 189,-178 189,-178 1006.627,-178 1006.627,-178"/>
<polygon fill="#000000" stroke="#000000" points="1006.6271,-181.5001 1016.627,-178 1006.627,-174.5001 1006.6271,-181.5001"/>
</g>
<!-- SearchModule -->
<g id="node15" class="node">
<title>SearchModule</title>
<polygon fill="#8dd3c7" stroke="#000000" points="121.6375,-122 118.6375,-126 97.6375,-126 94.6375,-122 24.3625,-122 24.3625,-86 121.6375,-86 121.6375,-122"/>
<text text-anchor="middle" x="73" y="-99.8" font-family="Times,serif" font-size="14.00" fill="#000000">SearchModule</text>
</g>
<!-- SearchModule&#45;&gt;PagesModule -->
<g id="edge15" class="edge">
<title>SearchModule&#45;&gt;PagesModule</title>
<path fill="none" stroke="#000000" d="M73,-122.3228C73,-145.6602 73,-183 73,-183 73,-183 1006.5781,-183 1006.5781,-183"/>
<polygon fill="#000000" stroke="#000000" points="1006.5781,-186.5001 1016.5781,-183 1006.5781,-179.5001 1006.5781,-186.5001"/>
</g>
</g>
</svg>
