<?xml version="1.0" encoding="iso-8859-1"?>
<!-- Generator: Adobe Illustrator 19.0.0, SVG Export Plug-In . SVG Version: 6.00 Build 0)  -->
<svg version="1.1" id="Capa_1" xmlns="http://www.w3.org/2000/svg" xmlns:xlink="http://www.w3.org/1999/xlink" x="0px" y="0px"
	 viewBox="0 0 380 380" style="enable-background:new 0 0 380 380;" xml:space="preserve">
<g id="XMLID_451_">
	
		<rect id="XMLID_40_" x="217.842" y="122.82" transform="matrix(-0.7071 -0.7071 0.7071 -0.7071 352.1992 525.8633)" style="fill:#AED5F3;" width="134.336" height="134.336"/>
	
		<rect id="XMLID_39_" x="122.843" y="27.822" transform="matrix(-0.7071 -0.7071 0.7071 -0.7071 257.2015 296.5173)" style="fill:#78B9EB;" width="134.337" height="134.337"/>
	<polygon id="XMLID_38_" style="fill:#006DF0;" points="190.012,0 190.011,189.981 95.021,94.99 	"/>
	
		<rect id="XMLID_37_" x="122.82" y="217.842" transform="matrix(-0.7071 -0.7071 0.7071 -0.7071 122.7974 620.884)" style="fill:#006DF0;" width="134.336" height="134.336"/>
	<polygon id="XMLID_36_" style="fill:#0052B4;" points="189.989,190.02 189.988,380 94.998,285.01 	"/>
	
		<rect id="XMLID_35_" x="27.822" y="122.843" transform="matrix(-0.7071 -0.7071 0.7071 -0.7071 27.801 391.5389)" style="fill:#003778;" width="134.337" height="134.337"/>
	<path id="XMLID_34_" style="fill:#003778;" d="M130.62,265.221c-10.931-10.93-22.804-40.523-11.874-51.453
		c10.93-10.929,40.522,0.944,51.452,11.874c10.93,10.929,10.931,28.649,0.001,39.579C159.269,276.15,141.549,276.15,130.62,265.221z
		"/>
	<path id="XMLID_33_" style="fill:#006DF0;" d="M265.222,249.38c-10.931,10.93-40.524,22.803-51.454,11.874
		c-10.929-10.929,0.945-40.522,11.875-51.452c10.929-10.929,28.649-10.93,39.578-0.001
		C276.15,220.731,276.15,238.451,265.222,249.38z"/>
	<path id="XMLID_32_" style="fill:#AED5F3;" d="M249.389,114.788c10.931,10.93,22.804,40.523,11.874,51.453
		c-10.93,10.929-40.522-0.944-51.452-11.874c-10.93-10.93-10.93-28.65-0.001-39.579C220.739,103.858,238.46,103.858,249.389,114.788
		z"/>
	<path id="XMLID_3_" style="fill:#006DF0;" d="M114.812,130.612c10.93-10.93,40.522-22.804,51.452-11.875
		c10.931,10.931-0.943,40.524-11.873,51.454c-10.93,10.929-28.65,10.929-39.58-0.001
		C103.881,159.26,103.883,141.541,114.812,130.612z"/>
</g>
<g>
</g>
<g>
</g>
<g>
</g>
<g>
</g>
<g>
</g>
<g>
</g>
<g>
</g>
<g>
</g>
<g>
</g>
<g>
</g>
<g>
</g>
<g>
</g>
<g>
</g>
<g>
</g>
<g>
</g>
</svg>
