<?xml version="1.0" encoding="UTF-8" standalone="no"?>
<!DOCTYPE svg PUBLIC "-//W3C//DTD SVG 1.1//EN"
 "http://www.w3.org/Graphics/SVG/1.1/DTD/svg11.dtd">
<!-- Generated by graphviz version 2.40.1 (20161225.0304)
 -->
<!-- Title: dependencies Pages: 1 -->
<svg width="1524pt" height="211pt"
 viewBox="0.00 0.00 1524.00 211.00" xmlns="http://www.w3.org/2000/svg" xmlns:xlink="http://www.w3.org/1999/xlink">
<g id="graph0" class="graph" transform="scale(1 1) rotate(0) translate(4 207)">
<title>dependencies</title>
<polygon fill="#ffffff" stroke="transparent" points="-4,4 -4,-207 1520,-207 1520,4 -4,4"/>
<text text-anchor="start" x="737.0091" y="-42.4" font-family="sans-serif" font-weight="bold" font-size="14.00" fill="#000000">Legend</text>
<polygon fill="#ffffb3" stroke="transparent" points="524,-10 524,-30 544,-30 544,-10 524,-10"/>
<text text-anchor="start" x="547.629" y="-15.4" font-family="sans-serif" font-size="14.00" fill="#000000"> &#160;Declarations</text>
<polygon fill="#8dd3c7" stroke="transparent" points="637,-10 637,-30 657,-30 657,-10 637,-10"/>
<text text-anchor="start" x="660.7251" y="-15.4" font-family="sans-serif" font-size="14.00" fill="#000000"> &#160;Module</text>
<polygon fill="#80b1d3" stroke="transparent" points="723,-10 723,-30 743,-30 743,-10 723,-10"/>
<text text-anchor="start" x="746.7812" y="-15.4" font-family="sans-serif" font-size="14.00" fill="#000000"> &#160;Bootstrap</text>
<polygon fill="#fdb462" stroke="transparent" points="820,-10 820,-30 840,-30 840,-10 820,-10"/>
<text text-anchor="start" x="843.6732" y="-15.4" font-family="sans-serif" font-size="14.00" fill="#000000"> &#160;Providers</text>
<polygon fill="#fb8072" stroke="transparent" points="916,-10 916,-30 936,-30 936,-10 916,-10"/>
<text text-anchor="start" x="939.7258" y="-15.4" font-family="sans-serif" font-size="14.00" fill="#000000"> &#160;Exports</text>
<g id="clust1" class="cluster">
<title>cluster_FuseContactsModule</title>
<polygon fill="none" stroke="#000000" stroke-dasharray="1,5" points="8,-70 8,-195 1508,-195 1508,-70 8,-70"/>
</g>
<g id="clust2" class="cluster">
<title>cluster_FuseContactsModule_declarations</title>
<polygon fill="none" stroke="#000000" points="310,-78 310,-130 1500,-130 1500,-78 310,-78"/>
</g>
<g id="clust8" class="cluster">
<title>cluster_FuseContactsModule_imports</title>
<polygon fill="none" stroke="#000000" points="188,-78 188,-130 302,-130 302,-78 188,-78"/>
</g>
<g id="clust11" class="cluster">
<title>cluster_FuseContactsModule_providers</title>
<polygon fill="none" stroke="#000000" points="16,-78 16,-130 180,-130 180,-78 16,-78"/>
</g>
<!-- FuseContactsComponent -->
<g id="node1" class="node">
<title>FuseContactsComponent</title>
<polygon fill="#ffffb3" stroke="#000000" points="1492.266,-122 1335.734,-122 1335.734,-86 1492.266,-86 1492.266,-122"/>
<text text-anchor="middle" x="1414" y="-99.8" font-family="Times,serif" font-size="14.00" fill="#000000">FuseContactsComponent</text>
</g>
<!-- FuseContactsModule -->
<g id="node6" class="node">
<title>FuseContactsModule</title>
<polygon fill="#8dd3c7" stroke="#000000" points="787.4832,-187 784.4832,-191 763.4832,-191 760.4832,-187 652.5168,-187 652.5168,-151 787.4832,-151 787.4832,-187"/>
<text text-anchor="middle" x="720" y="-164.8" font-family="Times,serif" font-size="14.00" fill="#000000">FuseContactsModule</text>
</g>
<!-- FuseContactsComponent&#45;&gt;FuseContactsModule -->
<g id="edge1" class="edge">
<title>FuseContactsComponent&#45;&gt;FuseContactsModule</title>
<path fill="none" stroke="#000000" d="M1414,-122.2921C1414,-144.2057 1414,-178 1414,-178 1414,-178 797.4904,-178 797.4904,-178"/>
<polygon fill="#000000" stroke="#000000" points="797.4905,-174.5001 787.4904,-178 797.4904,-181.5001 797.4905,-174.5001"/>
</g>
<!-- FuseContactsContactListComponent -->
<g id="node2" class="node">
<title>FuseContactsContactListComponent</title>
<polygon fill="#ffffb3" stroke="#000000" points="1318.0912,-122 1095.9088,-122 1095.9088,-86 1318.0912,-86 1318.0912,-122"/>
<text text-anchor="middle" x="1207" y="-99.8" font-family="Times,serif" font-size="14.00" fill="#000000">FuseContactsContactListComponent</text>
</g>
<!-- FuseContactsContactListComponent&#45;&gt;FuseContactsModule -->
<g id="edge2" class="edge">
<title>FuseContactsContactListComponent&#45;&gt;FuseContactsModule</title>
<path fill="none" stroke="#000000" d="M1207,-122.1061C1207,-141.3391 1207,-169 1207,-169 1207,-169 797.7153,-169 797.7153,-169"/>
<polygon fill="#000000" stroke="#000000" points="797.7153,-165.5001 787.7153,-169 797.7152,-172.5001 797.7153,-165.5001"/>
</g>
<!-- FuseContactsSelectedBarComponent -->
<g id="node3" class="node">
<title>FuseContactsSelectedBarComponent</title>
<polygon fill="#ffffb3" stroke="#000000" points="1078.4002,-122 853.5998,-122 853.5998,-86 1078.4002,-86 1078.4002,-122"/>
<text text-anchor="middle" x="966" y="-99.8" font-family="Times,serif" font-size="14.00" fill="#000000">FuseContactsSelectedBarComponent</text>
</g>
<!-- FuseContactsSelectedBarComponent&#45;&gt;FuseContactsModule -->
<g id="edge3" class="edge">
<title>FuseContactsSelectedBarComponent&#45;&gt;FuseContactsModule</title>
<path fill="none" stroke="#000000" d="M966,-122.027C966,-138.3976 966,-160 966,-160 966,-160 797.546,-160 797.546,-160"/>
<polygon fill="#000000" stroke="#000000" points="797.546,-156.5001 787.546,-160 797.5459,-163.5001 797.546,-156.5001"/>
</g>
<!-- FuseContactsMainSidenavComponent -->
<g id="node4" class="node">
<title>FuseContactsMainSidenavComponent</title>
<polygon fill="#ffffb3" stroke="#000000" points="835.9184,-122 604.0816,-122 604.0816,-86 835.9184,-86 835.9184,-122"/>
<text text-anchor="middle" x="720" y="-99.8" font-family="Times,serif" font-size="14.00" fill="#000000">FuseContactsMainSidenavComponent</text>
</g>
<!-- FuseContactsMainSidenavComponent&#45;&gt;FuseContactsModule -->
<g id="edge4" class="edge">
<title>FuseContactsMainSidenavComponent&#45;&gt;FuseContactsModule</title>
<path fill="none" stroke="#000000" d="M720,-122.1061C720,-122.1061 720,-140.991 720,-140.991"/>
<polygon fill="#000000" stroke="#000000" points="716.5001,-140.9909 720,-150.991 723.5001,-140.991 716.5001,-140.9909"/>
</g>
<!-- FuseContactsContactFormDialogComponent -->
<g id="node5" class="node">
<title>FuseContactsContactFormDialogComponent</title>
<polygon fill="#ffffb3" stroke="#000000" points="586.2491,-122 317.7509,-122 317.7509,-86 586.2491,-86 586.2491,-122"/>
<text text-anchor="middle" x="452" y="-99.8" font-family="Times,serif" font-size="14.00" fill="#000000">FuseContactsContactFormDialogComponent</text>
</g>
<!-- FuseContactsContactFormDialogComponent&#45;&gt;FuseContactsModule -->
<g id="edge5" class="edge">
<title>FuseContactsContactFormDialogComponent&#45;&gt;FuseContactsModule</title>
<path fill="none" stroke="#000000" d="M452,-122.027C452,-138.3976 452,-160 452,-160 452,-160 642.3723,-160 642.3723,-160"/>
<polygon fill="#000000" stroke="#000000" points="642.3723,-163.5001 652.3723,-160 642.3722,-156.5001 642.3723,-163.5001"/>
</g>
<!-- SharedModule -->
<g id="node7" class="node">
<title>SharedModule</title>
<polygon fill="#8dd3c7" stroke="#000000" points="294.4231,-122 291.4231,-126 270.4231,-126 267.4231,-122 195.5769,-122 195.5769,-86 294.4231,-86 294.4231,-122"/>
<text text-anchor="middle" x="245" y="-99.8" font-family="Times,serif" font-size="14.00" fill="#000000">SharedModule</text>
</g>
<!-- SharedModule&#45;&gt;FuseContactsModule -->
<g id="edge6" class="edge">
<title>SharedModule&#45;&gt;FuseContactsModule</title>
<path fill="none" stroke="#000000" d="M245,-122.1061C245,-141.3391 245,-169 245,-169 245,-169 642.4485,-169 642.4485,-169"/>
<polygon fill="#000000" stroke="#000000" points="642.4486,-172.5001 652.4485,-169 642.4485,-165.5001 642.4486,-172.5001"/>
</g>
<!-- ContactsService -->
<g id="node8" class="node">
<title>ContactsService</title>
<ellipse fill="#fdb462" stroke="#000000" cx="98" cy="-104" rx="73.5714" ry="18"/>
<text text-anchor="middle" x="98" y="-99.8" font-family="Times,serif" font-size="14.00" fill="#000000">ContactsService</text>
</g>
<!-- ContactsService&#45;&gt;FuseContactsModule -->
<g id="edge7" class="edge">
<title>ContactsService&#45;&gt;FuseContactsModule</title>
<path fill="none" stroke="#000000" d="M98,-122.2921C98,-144.2057 98,-178 98,-178 98,-178 642.251,-178 642.251,-178"/>
<polygon fill="#000000" stroke="#000000" points="642.2511,-181.5001 652.251,-178 642.251,-174.5001 642.2511,-181.5001"/>
</g>
</g>
</svg>
