<?xml version="1.0" encoding="UTF-8" standalone="no"?>
<!DOCTYPE svg PUBLIC "-//W3C//DTD SVG 1.1//EN"
 "http://www.w3.org/Graphics/SVG/1.1/DTD/svg11.dtd">
<!-- Generated by graphviz version 2.40.1 (20161225.0304)
 -->
<!-- Title: dependencies Pages: 1 -->
<svg width="1387pt" height="211pt"
 viewBox="0.00 0.00 1387.00 211.00" xmlns="http://www.w3.org/2000/svg" xmlns:xlink="http://www.w3.org/1999/xlink">
<g id="graph0" class="graph" transform="scale(1 1) rotate(0) translate(4 207)">
<title>dependencies</title>
<polygon fill="#ffffff" stroke="transparent" points="-4,4 -4,-207 1383,-207 1383,4 -4,4"/>
<text text-anchor="start" x="668.5091" y="-42.4" font-family="sans-serif" font-weight="bold" font-size="14.00" fill="#000000">Legend</text>
<polygon fill="#ffffb3" stroke="transparent" points="455.5,-10 455.5,-30 475.5,-30 475.5,-10 455.5,-10"/>
<text text-anchor="start" x="479.129" y="-15.4" font-family="sans-serif" font-size="14.00" fill="#000000"> &#160;Declarations</text>
<polygon fill="#8dd3c7" stroke="transparent" points="568.5,-10 568.5,-30 588.5,-30 588.5,-10 568.5,-10"/>
<text text-anchor="start" x="592.2251" y="-15.4" font-family="sans-serif" font-size="14.00" fill="#000000"> &#160;Module</text>
<polygon fill="#80b1d3" stroke="transparent" points="654.5,-10 654.5,-30 674.5,-30 674.5,-10 654.5,-10"/>
<text text-anchor="start" x="678.2812" y="-15.4" font-family="sans-serif" font-size="14.00" fill="#000000"> &#160;Bootstrap</text>
<polygon fill="#fdb462" stroke="transparent" points="751.5,-10 751.5,-30 771.5,-30 771.5,-10 751.5,-10"/>
<text text-anchor="start" x="775.1732" y="-15.4" font-family="sans-serif" font-size="14.00" fill="#000000"> &#160;Providers</text>
<polygon fill="#fb8072" stroke="transparent" points="847.5,-10 847.5,-30 867.5,-30 867.5,-10 847.5,-10"/>
<text text-anchor="start" x="871.2258" y="-15.4" font-family="sans-serif" font-size="14.00" fill="#000000"> &#160;Exports</text>
<g id="clust1" class="cluster">
<title>cluster_ProjectModule</title>
<polygon fill="none" stroke="#000000" stroke-dasharray="1,5" points="8,-70 8,-195 1371,-195 1371,-70 8,-70"/>
</g>
<g id="clust2" class="cluster">
<title>cluster_ProjectModule_declarations</title>
<polygon fill="none" stroke="#000000" points="851,-78 851,-130 1363,-130 1363,-78 851,-78"/>
</g>
<g id="clust6" class="cluster">
<title>cluster_ProjectModule_imports</title>
<polygon fill="none" stroke="#000000" points="583,-78 583,-130 843,-130 843,-78 583,-78"/>
</g>
<g id="clust9" class="cluster">
<title>cluster_ProjectModule_providers</title>
<polygon fill="none" stroke="#000000" points="16,-78 16,-130 575,-130 575,-78 16,-78"/>
</g>
<!-- FuseProjectComponent -->
<g id="node1" class="node">
<title>FuseProjectComponent</title>
<polygon fill="#ffffb3" stroke="#000000" points="1354.9284,-122 1207.0716,-122 1207.0716,-86 1354.9284,-86 1354.9284,-122"/>
<text text-anchor="middle" x="1281" y="-99.8" font-family="Times,serif" font-size="14.00" fill="#000000">FuseProjectComponent</text>
</g>
<!-- ProjectModule -->
<g id="node4" class="node">
<title>ProjectModule</title>
<polygon fill="#8dd3c7" stroke="#000000" points="769.7036,-187 766.7036,-191 745.7036,-191 742.7036,-187 670.2964,-187 670.2964,-151 769.7036,-151 769.7036,-187"/>
<text text-anchor="middle" x="720" y="-164.8" font-family="Times,serif" font-size="14.00" fill="#000000">ProjectModule</text>
</g>
<!-- FuseProjectComponent&#45;&gt;ProjectModule -->
<g id="edge1" class="edge">
<title>FuseProjectComponent&#45;&gt;ProjectModule</title>
<path fill="none" stroke="#000000" d="M1281,-122.2921C1281,-144.2057 1281,-178 1281,-178 1281,-178 779.785,-178 779.785,-178"/>
<polygon fill="#000000" stroke="#000000" points="779.785,-174.5001 769.785,-178 779.785,-181.5001 779.785,-174.5001"/>
</g>
<!-- JobListComponentComponent -->
<g id="node2" class="node">
<title>JobListComponentComponent</title>
<polygon fill="#ffffb3" stroke="#000000" points="1188.8878,-122 1001.1122,-122 1001.1122,-86 1188.8878,-86 1188.8878,-122"/>
<text text-anchor="middle" x="1095" y="-99.8" font-family="Times,serif" font-size="14.00" fill="#000000">JobListComponentComponent</text>
</g>
<!-- JobListComponentComponent&#45;&gt;ProjectModule -->
<g id="edge2" class="edge">
<title>JobListComponentComponent&#45;&gt;ProjectModule</title>
<path fill="none" stroke="#000000" d="M1095,-122.1061C1095,-141.3391 1095,-169 1095,-169 1095,-169 779.7971,-169 779.7971,-169"/>
<polygon fill="#000000" stroke="#000000" points="779.7971,-165.5001 769.7971,-169 779.7971,-172.5001 779.7971,-165.5001"/>
</g>
<!-- JobcardComponent -->
<g id="node3" class="node">
<title>JobcardComponent</title>
<polygon fill="#ffffb3" stroke="#000000" points="983.3669,-122 858.6331,-122 858.6331,-86 983.3669,-86 983.3669,-122"/>
<text text-anchor="middle" x="921" y="-99.8" font-family="Times,serif" font-size="14.00" fill="#000000">JobcardComponent</text>
</g>
<!-- JobcardComponent&#45;&gt;ProjectModule -->
<g id="edge3" class="edge">
<title>JobcardComponent&#45;&gt;ProjectModule</title>
<path fill="none" stroke="#000000" d="M921,-122.027C921,-138.3976 921,-160 921,-160 921,-160 779.6854,-160 779.6854,-160"/>
<polygon fill="#000000" stroke="#000000" points="779.6854,-156.5001 769.6854,-160 779.6854,-163.5001 779.6854,-156.5001"/>
</g>
<!-- SharedModule -->
<g id="node5" class="node">
<title>SharedModule</title>
<polygon fill="#8dd3c7" stroke="#000000" points="835.4231,-122 832.4231,-126 811.4231,-126 808.4231,-122 736.5769,-122 736.5769,-86 835.4231,-86 835.4231,-122"/>
<text text-anchor="middle" x="786" y="-99.8" font-family="Times,serif" font-size="14.00" fill="#000000">SharedModule</text>
</g>
<!-- SharedModule&#45;&gt;ProjectModule -->
<g id="edge4" class="edge">
<title>SharedModule&#45;&gt;ProjectModule</title>
<path fill="none" stroke="#000000" d="M753.1953,-122.1061C753.1953,-122.1061 753.1953,-140.991 753.1953,-140.991"/>
<polygon fill="#000000" stroke="#000000" points="749.6954,-140.9909 753.1953,-150.991 756.6954,-140.991 749.6954,-140.9909"/>
</g>
<!-- FuseWidgetModule -->
<g id="node6" class="node">
<title>FuseWidgetModule</title>
<polygon fill="#8dd3c7" stroke="#000000" points="718.7022,-122 715.7022,-126 694.7022,-126 691.7022,-122 591.2978,-122 591.2978,-86 718.7022,-86 718.7022,-122"/>
<text text-anchor="middle" x="655" y="-99.8" font-family="Times,serif" font-size="14.00" fill="#000000">FuseWidgetModule</text>
</g>
<!-- FuseWidgetModule&#45;&gt;ProjectModule -->
<g id="edge5" class="edge">
<title>FuseWidgetModule&#45;&gt;ProjectModule</title>
<path fill="none" stroke="#000000" d="M694.4997,-122.1061C694.4997,-122.1061 694.4997,-140.991 694.4997,-140.991"/>
<polygon fill="#000000" stroke="#000000" points="690.9997,-140.9909 694.4997,-150.991 697.9997,-140.991 690.9997,-140.9909"/>
</g>
<!-- ProjectsDashboardService -->
<g id="node7" class="node">
<title>ProjectsDashboardService</title>
<ellipse fill="#fdb462" stroke="#000000" cx="454" cy="-104" rx="112.8578" ry="18"/>
<text text-anchor="middle" x="454" y="-99.8" font-family="Times,serif" font-size="14.00" fill="#000000">ProjectsDashboardService</text>
</g>
<!-- ProjectsDashboardService&#45;&gt;ProjectModule -->
<g id="edge6" class="edge">
<title>ProjectsDashboardService&#45;&gt;ProjectModule</title>
<path fill="none" stroke="#000000" d="M454,-122.027C454,-138.3976 454,-160 454,-160 454,-160 660.2795,-160 660.2795,-160"/>
<polygon fill="#000000" stroke="#000000" points="660.2795,-163.5001 670.2795,-160 660.2794,-156.5001 660.2795,-163.5001"/>
</g>
<!-- AuthGuardService -->
<g id="node8" class="node">
<title>AuthGuardService</title>
<ellipse fill="#fdb462" stroke="#000000" cx="240" cy="-104" rx="83.3674" ry="18"/>
<text text-anchor="middle" x="240" y="-99.8" font-family="Times,serif" font-size="14.00" fill="#000000">AuthGuardService</text>
</g>
<!-- AuthGuardService&#45;&gt;ProjectModule -->
<g id="edge7" class="edge">
<title>AuthGuardService&#45;&gt;ProjectModule</title>
<path fill="none" stroke="#000000" d="M240,-122.1061C240,-141.3391 240,-169 240,-169 240,-169 659.99,-169 659.99,-169"/>
<polygon fill="#000000" stroke="#000000" points="659.99,-172.5001 669.99,-169 659.9899,-165.5001 659.99,-172.5001"/>
</g>
<!-- JobsService -->
<g id="node9" class="node">
<title>JobsService</title>
<ellipse fill="#fdb462" stroke="#000000" cx="81" cy="-104" rx="57.3205" ry="18"/>
<text text-anchor="middle" x="81" y="-99.8" font-family="Times,serif" font-size="14.00" fill="#000000">JobsService</text>
</g>
<!-- JobsService&#45;&gt;ProjectModule -->
<g id="edge8" class="edge">
<title>JobsService&#45;&gt;ProjectModule</title>
<path fill="none" stroke="#000000" d="M81,-122.2921C81,-144.2057 81,-178 81,-178 81,-178 660.3905,-178 660.3905,-178"/>
<polygon fill="#000000" stroke="#000000" points="660.3905,-181.5001 670.3905,-178 660.3904,-174.5001 660.3905,-181.5001"/>
</g>
</g>
</svg>
