<?xml version="1.0" encoding="UTF-8" standalone="no"?>
<!DOCTYPE svg PUBLIC "-//W3C//DTD SVG 1.1//EN"
 "http://www.w3.org/Graphics/SVG/1.1/DTD/svg11.dtd">
<!-- Generated by graphviz version 2.40.1 (20161225.0304)
 -->
<!-- Title: dependencies Pages: 1 -->
<svg width="3724pt" height="211pt"
 viewBox="0.00 0.00 3724.00 211.00" xmlns="http://www.w3.org/2000/svg" xmlns:xlink="http://www.w3.org/1999/xlink">
<g id="graph0" class="graph" transform="scale(1 1) rotate(0) translate(4 207)">
<title>dependencies</title>
<polygon fill="#ffffff" stroke="transparent" points="-4,4 -4,-207 3720,-207 3720,4 -4,4"/>
<text text-anchor="start" x="1837.0091" y="-42.4" font-family="sans-serif" font-weight="bold" font-size="14.00" fill="#000000">Legend</text>
<polygon fill="#ffffb3" stroke="transparent" points="1624,-10 1624,-30 1644,-30 1644,-10 1624,-10"/>
<text text-anchor="start" x="1647.629" y="-15.4" font-family="sans-serif" font-size="14.00" fill="#000000"> &#160;Declarations</text>
<polygon fill="#8dd3c7" stroke="transparent" points="1737,-10 1737,-30 1757,-30 1757,-10 1737,-10"/>
<text text-anchor="start" x="1760.7251" y="-15.4" font-family="sans-serif" font-size="14.00" fill="#000000"> &#160;Module</text>
<polygon fill="#80b1d3" stroke="transparent" points="1823,-10 1823,-30 1843,-30 1843,-10 1823,-10"/>
<text text-anchor="start" x="1846.7812" y="-15.4" font-family="sans-serif" font-size="14.00" fill="#000000"> &#160;Bootstrap</text>
<polygon fill="#fdb462" stroke="transparent" points="1920,-10 1920,-30 1940,-30 1940,-10 1920,-10"/>
<text text-anchor="start" x="1943.6732" y="-15.4" font-family="sans-serif" font-size="14.00" fill="#000000"> &#160;Providers</text>
<polygon fill="#fb8072" stroke="transparent" points="2016,-10 2016,-30 2036,-30 2036,-10 2016,-10"/>
<text text-anchor="start" x="2039.7258" y="-15.4" font-family="sans-serif" font-size="14.00" fill="#000000"> &#160;Exports</text>
<g id="clust1" class="cluster">
<title>cluster_UIPageLayoutsModule</title>
<polygon fill="none" stroke="#000000" stroke-dasharray="1,5" points="8,-70 8,-195 3708,-195 3708,-70 8,-70"/>
</g>
<g id="clust2" class="cluster">
<title>cluster_UIPageLayoutsModule_declarations</title>
<polygon fill="none" stroke="#000000" points="276,-78 276,-130 3700,-130 3700,-78 276,-78"/>
</g>
<g id="clust18" class="cluster">
<title>cluster_UIPageLayoutsModule_imports</title>
<polygon fill="none" stroke="#000000" points="16,-78 16,-130 268,-130 268,-78 16,-78"/>
</g>
<!-- FuseCardedFullWidthComponent -->
<g id="node1" class="node">
<title>FuseCardedFullWidthComponent</title>
<polygon fill="#ffffb3" stroke="#000000" points="3691.7603,-122 3486.2397,-122 3486.2397,-86 3691.7603,-86 3691.7603,-122"/>
<text text-anchor="middle" x="3589" y="-99.8" font-family="Times,serif" font-size="14.00" fill="#000000">FuseCardedFullWidthComponent</text>
</g>
<!-- UIPageLayoutsModule -->
<g id="node16" class="node">
<title>UIPageLayoutsModule</title>
<polygon fill="#8dd3c7" stroke="#000000" points="1775.1317,-187 1772.1317,-191 1751.1317,-191 1748.1317,-187 1628.8683,-187 1628.8683,-151 1775.1317,-151 1775.1317,-187"/>
<text text-anchor="middle" x="1702" y="-164.8" font-family="Times,serif" font-size="14.00" fill="#000000">UIPageLayoutsModule</text>
</g>
<!-- FuseCardedFullWidthComponent&#45;&gt;UIPageLayoutsModule -->
<g id="edge1" class="edge">
<title>FuseCardedFullWidthComponent&#45;&gt;UIPageLayoutsModule</title>
<path fill="none" stroke="#000000" d="M3589,-122.3228C3589,-145.6602 3589,-183 3589,-183 3589,-183 1785.3935,-183 1785.3935,-183"/>
<polygon fill="#000000" stroke="#000000" points="1785.3935,-179.5001 1775.3935,-183 1785.3935,-186.5001 1785.3935,-179.5001"/>
</g>
<!-- FuseCardedFullWidth2Component -->
<g id="node2" class="node">
<title>FuseCardedFullWidth2Component</title>
<polygon fill="#ffffb3" stroke="#000000" points="3468.2603,-122 3255.7397,-122 3255.7397,-86 3468.2603,-86 3468.2603,-122"/>
<text text-anchor="middle" x="3362" y="-99.8" font-family="Times,serif" font-size="14.00" fill="#000000">FuseCardedFullWidth2Component</text>
</g>
<!-- FuseCardedFullWidth2Component&#45;&gt;UIPageLayoutsModule -->
<g id="edge2" class="edge">
<title>FuseCardedFullWidth2Component&#45;&gt;UIPageLayoutsModule</title>
<path fill="none" stroke="#000000" d="M3362,-122.1554C3362,-144.3519 3362,-179 3362,-179 3362,-179 1785.2007,-179 1785.2007,-179"/>
<polygon fill="#000000" stroke="#000000" points="1785.2008,-175.5001 1775.2007,-179 1785.2007,-182.5001 1785.2008,-175.5001"/>
</g>
<!-- FuseCardedLeftSidenavComponent -->
<g id="node3" class="node">
<title>FuseCardedLeftSidenavComponent</title>
<polygon fill="#ffffb3" stroke="#000000" points="3237.1217,-122 3020.8783,-122 3020.8783,-86 3237.1217,-86 3237.1217,-122"/>
<text text-anchor="middle" x="3129" y="-99.8" font-family="Times,serif" font-size="14.00" fill="#000000">FuseCardedLeftSidenavComponent</text>
</g>
<!-- FuseCardedLeftSidenavComponent&#45;&gt;UIPageLayoutsModule -->
<g id="edge3" class="edge">
<title>FuseCardedLeftSidenavComponent&#45;&gt;UIPageLayoutsModule</title>
<path fill="none" stroke="#000000" d="M3129,-122.2843C3129,-143.3211 3129,-175 3129,-175 3129,-175 1785.2212,-175 1785.2212,-175"/>
<polygon fill="#000000" stroke="#000000" points="1785.2212,-171.5001 1775.2212,-175 1785.2211,-178.5001 1785.2212,-171.5001"/>
</g>
<!-- FuseCardedLeftSidenav2Component -->
<g id="node4" class="node">
<title>FuseCardedLeftSidenav2Component</title>
<polygon fill="#ffffb3" stroke="#000000" points="3002.6217,-122 2779.3783,-122 2779.3783,-86 3002.6217,-86 3002.6217,-122"/>
<text text-anchor="middle" x="2891" y="-99.8" font-family="Times,serif" font-size="14.00" fill="#000000">FuseCardedLeftSidenav2Component</text>
</g>
<!-- FuseCardedLeftSidenav2Component&#45;&gt;UIPageLayoutsModule -->
<g id="edge4" class="edge">
<title>FuseCardedLeftSidenav2Component&#45;&gt;UIPageLayoutsModule</title>
<path fill="none" stroke="#000000" d="M2891,-122.308C2891,-142.1455 2891,-171 2891,-171 2891,-171 1785.48,-171 1785.48,-171"/>
<polygon fill="#000000" stroke="#000000" points="1785.48,-167.5001 1775.48,-171 1785.4799,-174.5001 1785.48,-167.5001"/>
</g>
<!-- FuseCardedRightSidenavComponent -->
<g id="node5" class="node">
<title>FuseCardedRightSidenavComponent</title>
<polygon fill="#ffffb3" stroke="#000000" points="2761.4212,-122 2536.5788,-122 2536.5788,-86 2761.4212,-86 2761.4212,-122"/>
<text text-anchor="middle" x="2649" y="-99.8" font-family="Times,serif" font-size="14.00" fill="#000000">FuseCardedRightSidenavComponent</text>
</g>
<!-- FuseCardedRightSidenavComponent&#45;&gt;UIPageLayoutsModule -->
<g id="edge5" class="edge">
<title>FuseCardedRightSidenavComponent&#45;&gt;UIPageLayoutsModule</title>
<path fill="none" stroke="#000000" d="M2649,-122.2222C2649,-140.8285 2649,-167 2649,-167 2649,-167 1785.5215,-167 1785.5215,-167"/>
<polygon fill="#000000" stroke="#000000" points="1785.5215,-163.5001 1775.5215,-167 1785.5215,-170.5001 1785.5215,-163.5001"/>
</g>
<!-- FuseCardedRightSidenav2Component -->
<g id="node6" class="node">
<title>FuseCardedRightSidenav2Component</title>
<polygon fill="#ffffb3" stroke="#000000" points="2518.9212,-122 2287.0788,-122 2287.0788,-86 2518.9212,-86 2518.9212,-122"/>
<text text-anchor="middle" x="2403" y="-99.8" font-family="Times,serif" font-size="14.00" fill="#000000">FuseCardedRightSidenav2Component</text>
</g>
<!-- FuseCardedRightSidenav2Component&#45;&gt;UIPageLayoutsModule -->
<g id="edge6" class="edge">
<title>FuseCardedRightSidenav2Component&#45;&gt;UIPageLayoutsModule</title>
<path fill="none" stroke="#000000" d="M2403,-122.0225C2403,-139.3734 2403,-163 2403,-163 2403,-163 1785.3646,-163 1785.3646,-163"/>
<polygon fill="#000000" stroke="#000000" points="1785.3647,-159.5001 1775.3646,-163 1785.3646,-166.5001 1785.3647,-159.5001"/>
</g>
<!-- FuseSimpleFullWidthComponent -->
<g id="node7" class="node">
<title>FuseSimpleFullWidthComponent</title>
<polygon fill="#ffffb3" stroke="#000000" points="2269.5028,-122 2064.4972,-122 2064.4972,-86 2269.5028,-86 2269.5028,-122"/>
<text text-anchor="middle" x="2167" y="-99.8" font-family="Times,serif" font-size="14.00" fill="#000000">FuseSimpleFullWidthComponent</text>
</g>
<!-- FuseSimpleFullWidthComponent&#45;&gt;UIPageLayoutsModule -->
<g id="edge7" class="edge">
<title>FuseSimpleFullWidthComponent&#45;&gt;UIPageLayoutsModule</title>
<path fill="none" stroke="#000000" d="M2167,-122.0091C2167,-138.0494 2167,-159 2167,-159 2167,-159 1785.1678,-159 1785.1678,-159"/>
<polygon fill="#000000" stroke="#000000" points="1785.1678,-155.5001 1775.1678,-159 1785.1677,-162.5001 1785.1678,-155.5001"/>
</g>
<!-- FuseSimpleLeftSidenavComponent -->
<g id="node8" class="node">
<title>FuseSimpleLeftSidenavComponent</title>
<polygon fill="#ffffb3" stroke="#000000" points="2046.864,-122 1831.136,-122 1831.136,-86 2046.864,-86 2046.864,-122"/>
<text text-anchor="middle" x="1939" y="-99.8" font-family="Times,serif" font-size="14.00" fill="#000000">FuseSimpleLeftSidenavComponent</text>
</g>
<!-- FuseSimpleLeftSidenavComponent&#45;&gt;UIPageLayoutsModule -->
<g id="edge8" class="edge">
<title>FuseSimpleLeftSidenavComponent&#45;&gt;UIPageLayoutsModule</title>
<path fill="none" stroke="#000000" d="M1939,-122.1243C1939,-136.7832 1939,-155 1939,-155 1939,-155 1785.3652,-155 1785.3652,-155"/>
<polygon fill="#000000" stroke="#000000" points="1785.3653,-151.5001 1775.3652,-155 1785.3652,-158.5001 1785.3653,-151.5001"/>
</g>
<!-- FuseSimpleLeftSidenav2Component -->
<g id="node9" class="node">
<title>FuseSimpleLeftSidenav2Component</title>
<polygon fill="#ffffb3" stroke="#000000" points="1813.364,-122 1590.636,-122 1590.636,-86 1813.364,-86 1813.364,-122"/>
<text text-anchor="middle" x="1702" y="-99.8" font-family="Times,serif" font-size="14.00" fill="#000000">FuseSimpleLeftSidenav2Component</text>
</g>
<!-- FuseSimpleLeftSidenav2Component&#45;&gt;UIPageLayoutsModule -->
<g id="edge9" class="edge">
<title>FuseSimpleLeftSidenav2Component&#45;&gt;UIPageLayoutsModule</title>
<path fill="none" stroke="#000000" d="M1702,-122.1061C1702,-122.1061 1702,-140.991 1702,-140.991"/>
<polygon fill="#000000" stroke="#000000" points="1698.5001,-140.9909 1702,-150.991 1705.5001,-140.991 1698.5001,-140.9909"/>
</g>
<!-- FuseSimpleLeftSidenav3Component -->
<g id="node10" class="node">
<title>FuseSimpleLeftSidenav3Component</title>
<polygon fill="#ffffb3" stroke="#000000" points="1572.364,-122 1349.636,-122 1349.636,-86 1572.364,-86 1572.364,-122"/>
<text text-anchor="middle" x="1461" y="-99.8" font-family="Times,serif" font-size="14.00" fill="#000000">FuseSimpleLeftSidenav3Component</text>
</g>
<!-- FuseSimpleLeftSidenav3Component&#45;&gt;UIPageLayoutsModule -->
<g id="edge10" class="edge">
<title>FuseSimpleLeftSidenav3Component&#45;&gt;UIPageLayoutsModule</title>
<path fill="none" stroke="#000000" d="M1461,-122.1243C1461,-136.7832 1461,-155 1461,-155 1461,-155 1618.7105,-155 1618.7105,-155"/>
<polygon fill="#000000" stroke="#000000" points="1618.7105,-158.5001 1628.7105,-155 1618.7104,-151.5001 1618.7105,-158.5001"/>
</g>
<!-- FuseSimpleRightSidenavComponent -->
<g id="node11" class="node">
<title>FuseSimpleRightSidenavComponent</title>
<polygon fill="#ffffb3" stroke="#000000" points="1331.6637,-122 1108.3363,-122 1108.3363,-86 1331.6637,-86 1331.6637,-122"/>
<text text-anchor="middle" x="1220" y="-99.8" font-family="Times,serif" font-size="14.00" fill="#000000">FuseSimpleRightSidenavComponent</text>
</g>
<!-- FuseSimpleRightSidenavComponent&#45;&gt;UIPageLayoutsModule -->
<g id="edge11" class="edge">
<title>FuseSimpleRightSidenavComponent&#45;&gt;UIPageLayoutsModule</title>
<path fill="none" stroke="#000000" d="M1220,-122.0091C1220,-138.0494 1220,-159 1220,-159 1220,-159 1618.7946,-159 1618.7946,-159"/>
<polygon fill="#000000" stroke="#000000" points="1618.7946,-162.5001 1628.7946,-159 1618.7945,-155.5001 1618.7946,-162.5001"/>
</g>
<!-- FuseSimpleRightSidenav2Component -->
<g id="node12" class="node">
<title>FuseSimpleRightSidenav2Component</title>
<polygon fill="#ffffb3" stroke="#000000" points="1090.1636,-122 859.8364,-122 859.8364,-86 1090.1636,-86 1090.1636,-122"/>
<text text-anchor="middle" x="975" y="-99.8" font-family="Times,serif" font-size="14.00" fill="#000000">FuseSimpleRightSidenav2Component</text>
</g>
<!-- FuseSimpleRightSidenav2Component&#45;&gt;UIPageLayoutsModule -->
<g id="edge12" class="edge">
<title>FuseSimpleRightSidenav2Component&#45;&gt;UIPageLayoutsModule</title>
<path fill="none" stroke="#000000" d="M975,-122.0225C975,-139.3734 975,-163 975,-163 975,-163 1618.6275,-163 1618.6275,-163"/>
<polygon fill="#000000" stroke="#000000" points="1618.6276,-166.5001 1628.6275,-163 1618.6275,-159.5001 1618.6276,-166.5001"/>
</g>
<!-- FuseSimpleRightSidenav3Component -->
<g id="node13" class="node">
<title>FuseSimpleRightSidenav3Component</title>
<polygon fill="#ffffb3" stroke="#000000" points="841.1636,-122 610.8364,-122 610.8364,-86 841.1636,-86 841.1636,-122"/>
<text text-anchor="middle" x="726" y="-99.8" font-family="Times,serif" font-size="14.00" fill="#000000">FuseSimpleRightSidenav3Component</text>
</g>
<!-- FuseSimpleRightSidenav3Component&#45;&gt;UIPageLayoutsModule -->
<g id="edge13" class="edge">
<title>FuseSimpleRightSidenav3Component&#45;&gt;UIPageLayoutsModule</title>
<path fill="none" stroke="#000000" d="M726,-122.2222C726,-140.8285 726,-167 726,-167 726,-167 1618.6414,-167 1618.6414,-167"/>
<polygon fill="#000000" stroke="#000000" points="1618.6414,-170.5001 1628.6414,-167 1618.6413,-163.5001 1618.6414,-170.5001"/>
</g>
<!-- FuseTabbedComponent -->
<g id="node14" class="node">
<title>FuseTabbedComponent</title>
<polygon fill="#ffffb3" stroke="#000000" points="592.7562,-122 443.2438,-122 443.2438,-86 592.7562,-86 592.7562,-122"/>
<text text-anchor="middle" x="518" y="-99.8" font-family="Times,serif" font-size="14.00" fill="#000000">FuseTabbedComponent</text>
</g>
<!-- FuseTabbedComponent&#45;&gt;UIPageLayoutsModule -->
<g id="edge14" class="edge">
<title>FuseTabbedComponent&#45;&gt;UIPageLayoutsModule</title>
<path fill="none" stroke="#000000" d="M518,-122.308C518,-142.1455 518,-171 518,-171 518,-171 1618.829,-171 1618.829,-171"/>
<polygon fill="#000000" stroke="#000000" points="1618.829,-174.5001 1628.829,-171 1618.829,-167.5001 1618.829,-174.5001"/>
</g>
<!-- FuseBlankComponent -->
<g id="node15" class="node">
<title>FuseBlankComponent</title>
<polygon fill="#ffffb3" stroke="#000000" points="425.7162,-122 284.2838,-122 284.2838,-86 425.7162,-86 425.7162,-122"/>
<text text-anchor="middle" x="355" y="-99.8" font-family="Times,serif" font-size="14.00" fill="#000000">FuseBlankComponent</text>
</g>
<!-- FuseBlankComponent&#45;&gt;UIPageLayoutsModule -->
<g id="edge15" class="edge">
<title>FuseBlankComponent&#45;&gt;UIPageLayoutsModule</title>
<path fill="none" stroke="#000000" d="M355,-122.2843C355,-143.3211 355,-175 355,-175 355,-175 1618.6228,-175 1618.6228,-175"/>
<polygon fill="#000000" stroke="#000000" points="1618.6229,-178.5001 1628.6228,-175 1618.6228,-171.5001 1618.6229,-178.5001"/>
</g>
<!-- SharedModule -->
<g id="node17" class="node">
<title>SharedModule</title>
<polygon fill="#8dd3c7" stroke="#000000" points="260.4231,-122 257.4231,-126 236.4231,-126 233.4231,-122 161.5769,-122 161.5769,-86 260.4231,-86 260.4231,-122"/>
<text text-anchor="middle" x="211" y="-99.8" font-family="Times,serif" font-size="14.00" fill="#000000">SharedModule</text>
</g>
<!-- SharedModule&#45;&gt;UIPageLayoutsModule -->
<g id="edge16" class="edge">
<title>SharedModule&#45;&gt;UIPageLayoutsModule</title>
<path fill="none" stroke="#000000" d="M211,-122.1554C211,-144.3519 211,-179 211,-179 211,-179 1618.8233,-179 1618.8233,-179"/>
<polygon fill="#000000" stroke="#000000" points="1618.8234,-182.5001 1628.8233,-179 1618.8233,-175.5001 1618.8234,-182.5001"/>
</g>
<!-- FuseDemoModule -->
<g id="node18" class="node">
<title>FuseDemoModule</title>
<polygon fill="#8dd3c7" stroke="#000000" points="144.2036,-122 141.2036,-126 120.2036,-126 117.2036,-122 23.7964,-122 23.7964,-86 144.2036,-86 144.2036,-122"/>
<text text-anchor="middle" x="84" y="-99.8" font-family="Times,serif" font-size="14.00" fill="#000000">FuseDemoModule</text>
</g>
<!-- FuseDemoModule&#45;&gt;UIPageLayoutsModule -->
<g id="edge17" class="edge">
<title>FuseDemoModule&#45;&gt;UIPageLayoutsModule</title>
<path fill="none" stroke="#000000" d="M84,-122.3228C84,-145.6602 84,-183 84,-183 84,-183 1618.8049,-183 1618.8049,-183"/>
<polygon fill="#000000" stroke="#000000" points="1618.805,-186.5001 1628.8049,-183 1618.8049,-179.5001 1618.805,-186.5001"/>
</g>
</g>
</svg>
